%TF.GenerationSoftware,KiCad,Pcbnew,9.0.6*%
%TF.CreationDate,2025-12-02T18:26:22-08:00*%
%TF.ProjectId,pcb,7063622e-6b69-4636-9164-5f7063625858,rev?*%
%TF.SameCoordinates,Original*%
%TF.FileFunction,Profile,NP*%
%FSLAX46Y46*%
G04 Gerber Fmt 4.6, Leading zero omitted, Abs format (unit mm)*
G04 Created by KiCad (PCBNEW 9.0.6) date 2025-12-02 18:26:22*
%MOMM*%
%LPD*%
G01*
G04 APERTURE LIST*
%TA.AperFunction,Profile*%
%ADD10C,0.050000*%
%TD*%
%TA.AperFunction,Profile*%
%ADD11C,0.100000*%
%TD*%
G04 APERTURE END LIST*
D10*
X52196875Y-64293750D02*
G75*
G02*
X50196875Y-64293750I-1000000J0D01*
G01*
X50196875Y-64293750D02*
G75*
G02*
X52196875Y-64293750I1000000J0D01*
G01*
X30765625Y-64293750D02*
G75*
G02*
X28765625Y-64293750I-1000000J0D01*
G01*
X28765625Y-64293750D02*
G75*
G02*
X30765625Y-64293750I1000000J0D01*
G01*
X50006250Y-60721875D02*
G75*
G02*
X50006250Y-67865625I0J-3571875D01*
G01*
X30956250Y-67890192D02*
G75*
G02*
X30956250Y-60697308I0J3596442D01*
G01*
X30956250Y-73818750D02*
X30956250Y-54768750D01*
X50006250Y-73818750D02*
X30956250Y-73818750D01*
X50006250Y-54768750D02*
X50006250Y-73818750D01*
X30956250Y-54768750D02*
X50006250Y-54768750D01*
D11*
%TO.C,LED1*%
X38781301Y-58890859D02*
X38781301Y-60296543D01*
X39686848Y-61093700D02*
X41275753Y-61093700D01*
X41275752Y-58093701D02*
X39686848Y-58093701D01*
X42181299Y-60296543D02*
X42181299Y-58890859D01*
X38731816Y-58673981D02*
G75*
G02*
X38781301Y-58890858I-450505J-216876D01*
G01*
X38731816Y-58673981D02*
G75*
G02*
X39434589Y-58025404I450515J216877D01*
G01*
X38781301Y-60296543D02*
G75*
G02*
X38731816Y-60513421I-499990J-2D01*
G01*
X39434589Y-61162000D02*
G75*
G02*
X38731816Y-60513421I-252258J431701D01*
G01*
X39434589Y-61162000D02*
G75*
G02*
X39686847Y-61093701I252261J-431710D01*
G01*
X39686848Y-58093701D02*
G75*
G02*
X39434590Y-58025402I3J500009D01*
G01*
X41275753Y-61093700D02*
G75*
G02*
X41528011Y-61161999I-3J-500010D01*
G01*
X41528011Y-58025402D02*
G75*
G02*
X41275752Y-58093701I-252261J431712D01*
G01*
X41528011Y-58025402D02*
G75*
G02*
X42230781Y-58673981I252259J-431698D01*
G01*
X42181299Y-58890859D02*
G75*
G02*
X42230785Y-58673982I499991J-1D01*
G01*
X42230784Y-60513421D02*
G75*
G02*
X41528011Y-61162000I-450514J-216879D01*
G01*
X42230784Y-60513421D02*
G75*
G02*
X42181281Y-60296544I450516J216921D01*
G01*
%TD*%
M02*
