%TF.GenerationSoftware,KiCad,Pcbnew,9.0.6*%
%TF.CreationDate,2025-12-02T18:26:22-08:00*%
%TF.ProjectId,pcb,7063622e-6b69-4636-9164-5f7063625858,rev?*%
%TF.SameCoordinates,Original*%
%TF.FileFunction,Copper,L1,Top*%
%TF.FilePolarity,Positive*%
%FSLAX46Y46*%
G04 Gerber Fmt 4.6, Leading zero omitted, Abs format (unit mm)*
G04 Created by KiCad (PCBNEW 9.0.6) date 2025-12-02 18:26:22*
%MOMM*%
%LPD*%
G01*
G04 APERTURE LIST*
G04 Aperture macros list*
%AMRoundRect*
0 Rectangle with rounded corners*
0 $1 Rounding radius*
0 $2 $3 $4 $5 $6 $7 $8 $9 X,Y pos of 4 corners*
0 Add a 4 corners polygon primitive as box body*
4,1,4,$2,$3,$4,$5,$6,$7,$8,$9,$2,$3,0*
0 Add four circle primitives for the rounded corners*
1,1,$1+$1,$2,$3*
1,1,$1+$1,$4,$5*
1,1,$1+$1,$6,$7*
1,1,$1+$1,$8,$9*
0 Add four rect primitives between the rounded corners*
20,1,$1+$1,$2,$3,$4,$5,0*
20,1,$1+$1,$4,$5,$6,$7,0*
20,1,$1+$1,$6,$7,$8,$9,0*
20,1,$1+$1,$8,$9,$2,$3,0*%
%AMFreePoly0*
4,1,18,-0.410000,0.265000,0.000000,0.675000,0.328000,0.675000,0.359380,0.668758,0.385983,0.650983,0.403758,0.624380,0.410000,0.593000,0.410000,-0.593000,0.403758,-0.624380,0.385983,-0.650983,0.359380,-0.668758,0.328000,-0.675000,-0.328000,-0.675000,-0.359380,-0.668758,-0.385983,-0.650983,-0.403758,-0.624380,-0.410000,-0.593000,-0.410000,0.265000,-0.410000,0.265000,$1*%
G04 Aperture macros list end*
%TA.AperFunction,SMDPad,CuDef*%
%ADD10R,1.000000X1.000000*%
%TD*%
%TA.AperFunction,SMDPad,CuDef*%
%ADD11RoundRect,0.082000X-0.593000X0.328000X-0.593000X-0.328000X0.593000X-0.328000X0.593000X0.328000X0*%
%TD*%
%TA.AperFunction,SMDPad,CuDef*%
%ADD12FreePoly0,270.000000*%
%TD*%
%TA.AperFunction,ComponentPad*%
%ADD13R,1.600000X1.600000*%
%TD*%
%TA.AperFunction,ComponentPad*%
%ADD14O,1.600000X1.600000*%
%TD*%
%TA.AperFunction,ComponentPad*%
%ADD15C,3.300000*%
%TD*%
%TA.AperFunction,SMDPad,CuDef*%
%ADD16R,1.200000X2.600000*%
%TD*%
%TA.AperFunction,SMDPad,CuDef*%
%ADD17RoundRect,0.260000X-1.065000X-1.040000X1.065000X-1.040000X1.065000X1.040000X-1.065000X1.040000X0*%
%TD*%
%TA.AperFunction,ComponentPad*%
%ADD18O,1.727200X2.032000*%
%TD*%
%TA.AperFunction,ViaPad*%
%ADD19C,0.600000*%
%TD*%
%TA.AperFunction,Conductor*%
%ADD20C,0.200000*%
%TD*%
G04 APERTURE END LIST*
D10*
%TO.P,R1,2*%
%TO.N,Net-(J1-Pad5)*%
X35442800Y-58736300D03*
%TO.P,R1,1*%
%TO.N,Net-(LED1-DOUT)*%
X35442800Y-60436300D03*
%TD*%
D11*
%TO.P,LED1,1,VDD*%
%TO.N,Net-(LED1-VDD)*%
X37756300Y-60343700D03*
%TO.P,LED1,2,DOUT*%
%TO.N,Net-(LED1-DOUT)*%
X37756300Y-58843700D03*
%TO.P,LED1,3,DIN*%
%TO.N,Net-(LED1-DIN)*%
X43206300Y-60343700D03*
D12*
%TO.P,LED1,4,VSS*%
%TO.N,Net-(LED1-VSS)*%
X43206300Y-58843700D03*
%TD*%
D13*
%TO.P,D1,1,K*%
%TO.N,Net-(D1-K)*%
X32625900Y-64895600D03*
D14*
%TO.P,D1,2,A*%
%TO.N,Net-(D1-A)*%
X32625900Y-72515600D03*
%TD*%
D15*
%TO.P,CH1,1,1*%
%TO.N,Net-(D1-A)*%
X45481300Y-68043700D03*
D16*
X47031300Y-68043700D03*
D17*
X48726300Y-68043700D03*
%TO.P,CH1,2,2*%
%TO.N,Net-(LED1-VDD)*%
X37236300Y-70243700D03*
D16*
X38931300Y-70243700D03*
D15*
X40481300Y-70243700D03*
%TD*%
D18*
%TO.P,J1,1*%
%TO.N,Net-(LED1-VDD)*%
X45561300Y-56461400D03*
%TO.P,J1,2*%
%TO.N,Net-(D1-K)*%
X43021300Y-56461400D03*
%TO.P,J1,3*%
%TO.N,Net-(LED1-VSS)*%
X40481300Y-56461400D03*
%TO.P,J1,4*%
%TO.N,Net-(LED1-DIN)*%
X37941300Y-56461400D03*
%TO.P,J1,5*%
%TO.N,Net-(J1-Pad5)*%
X35401300Y-56461400D03*
%TD*%
D19*
%TO.N,Net-(LED1-DIN)*%
X42629600Y-61430600D03*
%TD*%
D20*
%TO.N,Net-(J1-Pad5)*%
X35442800Y-57820600D02*
X35442800Y-58736300D01*
X35401300Y-57779100D02*
X35442800Y-57820600D01*
X35401300Y-56461400D02*
X35401300Y-57779100D01*
%TO.N,Net-(LED1-DIN)*%
X43206300Y-60853900D02*
X43206300Y-60343700D01*
X42629600Y-61430600D02*
X43206300Y-60853900D01*
X42629600Y-61430600D02*
X42522200Y-61430600D01*
X42522200Y-61430600D02*
X42629600Y-61430600D01*
%TO.N,Net-(LED1-DOUT)*%
X36244500Y-60355500D02*
X37756300Y-58843700D01*
X36244500Y-60436300D02*
X36244500Y-60355500D01*
X35442800Y-60436300D02*
X36244500Y-60436300D01*
%TO.N,Net-(LED1-VSS)*%
X41646600Y-57132100D02*
X41646600Y-56461400D01*
X43206300Y-58691800D02*
X41646600Y-57132100D01*
X43206300Y-58843700D02*
X43206300Y-58691800D01*
X40481300Y-56461400D02*
X41646600Y-56461400D01*
%TO.N,Net-(D1-K)*%
X34386800Y-62033000D02*
X32625900Y-63793900D01*
X43011900Y-62033000D02*
X34386800Y-62033000D01*
X44186600Y-60858300D02*
X43011900Y-62033000D01*
X44186600Y-56461400D02*
X44186600Y-60858300D01*
X43021300Y-56461400D02*
X44186600Y-56461400D01*
X32625900Y-64895600D02*
X32625900Y-63793900D01*
%TO.N,Net-(D1-A)*%
X47925400Y-67242800D02*
X48726300Y-68043700D01*
X47031300Y-67242800D02*
X47925400Y-67242800D01*
X47031300Y-68043700D02*
X47031300Y-67242800D01*
X47031300Y-67242800D02*
X47031300Y-66442000D01*
X45481300Y-67216900D02*
X45481300Y-68043700D01*
X46256200Y-66442000D02*
X45481300Y-67216900D01*
X47031300Y-66442000D02*
X46256200Y-66442000D01*
X41009400Y-72515600D02*
X32625900Y-72515600D01*
X45481300Y-68043700D02*
X41009400Y-72515600D01*
%TO.N,Net-(LED1-VDD)*%
X39680500Y-71044500D02*
X40481300Y-70243700D01*
X38931300Y-71044500D02*
X39680500Y-71044500D01*
X38931300Y-70243700D02*
X38931300Y-71044500D01*
X38931300Y-71044500D02*
X38931300Y-71845400D01*
X38137200Y-71845400D02*
X38931300Y-71845400D01*
X37236300Y-70944500D02*
X38137200Y-71845400D01*
X37236300Y-70243700D02*
X37236300Y-70944500D01*
X36795200Y-61304800D02*
X37756300Y-60343700D01*
X34118300Y-61304800D02*
X36795200Y-61304800D01*
X31524200Y-63898900D02*
X34118300Y-61304800D01*
X31524200Y-65856600D02*
X31524200Y-63898900D01*
X35911300Y-70243700D02*
X31524200Y-65856600D01*
X37236300Y-70243700D02*
X35911300Y-70243700D01*
%TD*%
M02*
