%TF.GenerationSoftware,KiCad,Pcbnew,9.0.6*%
%TF.CreationDate,2026-01-11T15:28:45-08:00*%
%TF.ProjectId,pcb,7063622e-6b69-4636-9164-5f7063625858,rev?*%
%TF.SameCoordinates,Original*%
%TF.FileFunction,Legend,Top*%
%TF.FilePolarity,Positive*%
%FSLAX46Y46*%
G04 Gerber Fmt 4.6, Leading zero omitted, Abs format (unit mm)*
G04 Created by KiCad (PCBNEW 9.0.6) date 2026-01-11 15:28:45*
%MOMM*%
%LPD*%
G01*
G04 APERTURE LIST*
%ADD10C,0.100000*%
%ADD11C,0.025000*%
%ADD12C,0.250000*%
%ADD13C,0.300000*%
%ADD14C,0.150000*%
%ADD15C,0.120000*%
%ADD16C,0.400000*%
%ADD17C,0.127000*%
G04 APERTURE END LIST*
D10*
X154500000Y-97500000D02*
X153500000Y-97500000D01*
X148250000Y-103750000D02*
X148250000Y-104750000D01*
X144500000Y-106500000D02*
X145000000Y-106000000D01*
X146000000Y-107000000D02*
X145500000Y-107500000D01*
X154000000Y-97000000D02*
X155000000Y-97000000D01*
X142500000Y-109500000D02*
X141500000Y-109500000D01*
X155750000Y-97250000D02*
X155750000Y-96250000D01*
X158750000Y-94250000D02*
X158750000Y-93250000D01*
X152250000Y-99750000D02*
X151250000Y-99750000D01*
X148750000Y-102250000D02*
X149750000Y-102250000D01*
X140500000Y-110500000D02*
X141500000Y-110500000D01*
X157750000Y-94750000D02*
X158500000Y-95500000D01*
X146250000Y-105750000D02*
X145250000Y-105750000D01*
X148500000Y-104500000D02*
X148500000Y-103500000D01*
X133440900Y-93283855D02*
X128250000Y-93292068D01*
X124500000Y-94250000D02*
X128500000Y-94250000D01*
X144500000Y-107500000D02*
X144500000Y-108500000D01*
X159275000Y-107500000D02*
X158525000Y-106750000D01*
X159275000Y-105500000D02*
X158525000Y-106250000D01*
X157775000Y-106250000D01*
X158525000Y-105500000D01*
X157775000Y-104750000D01*
X158525000Y-104750000D01*
X159275000Y-105500000D01*
G36*
X159275000Y-105500000D02*
G01*
X158525000Y-106250000D01*
X157775000Y-106250000D01*
X158525000Y-105500000D01*
X157775000Y-104750000D01*
X158525000Y-104750000D01*
X159275000Y-105500000D01*
G37*
X150500000Y-102500000D02*
X150000000Y-103000000D01*
X147000000Y-106000000D02*
X147000000Y-105000000D01*
X156250000Y-94750000D02*
X155750000Y-95250000D01*
X144500000Y-108500000D02*
X144000000Y-109000000D01*
X150500000Y-101500000D02*
X150500000Y-102500000D01*
X155750000Y-95250000D02*
X156500000Y-95250000D01*
X152750000Y-99250000D02*
X152750000Y-100250000D01*
X157775000Y-104750000D02*
X158525000Y-105500000D01*
X143000000Y-108000000D02*
X143500000Y-107500000D01*
X157250000Y-95000000D02*
X157250000Y-94750000D01*
X156000000Y-96000000D02*
X155000000Y-96000000D01*
X159551931Y-108486051D02*
X159551931Y-92263949D01*
X157500000Y-95500000D02*
X158000000Y-95000000D01*
X157750000Y-98750000D02*
X158500000Y-99500000D01*
X143750000Y-109250000D02*
X143250000Y-109750000D01*
X153000000Y-100000000D02*
X153000000Y-99000000D01*
X161750000Y-90250000D02*
X160750000Y-90250000D01*
X157775000Y-106750000D02*
X158525000Y-107500000D01*
X147500000Y-105500000D02*
X147000000Y-106000000D01*
X156500000Y-103000000D02*
X157500000Y-103000000D01*
X157500000Y-104000000D01*
X156500000Y-104000000D01*
X156500000Y-103000000D01*
X160000000Y-91000000D02*
X159500000Y-91500000D01*
X159250000Y-93500000D02*
X158500000Y-92750000D01*
X149500000Y-101500000D02*
X150500000Y-101500000D01*
X157000000Y-94000000D02*
X156500000Y-94500000D01*
X157750000Y-92750000D02*
X158500000Y-93500000D01*
X149750000Y-103250000D02*
X149250000Y-103750000D01*
X154500000Y-98500000D02*
X154500000Y-97500000D01*
X145500000Y-106500000D02*
X144500000Y-106500000D01*
X161000000Y-90000000D02*
X161500000Y-89500000D01*
X151000000Y-100000000D02*
X152000000Y-100000000D01*
X159275000Y-107500000D02*
X158525000Y-108250000D01*
X150500000Y-100500000D02*
X151000000Y-100000000D01*
X159250000Y-95500000D02*
X158500000Y-96250000D01*
X161000000Y-91250000D02*
X161000000Y-91000000D01*
X150750000Y-101250000D02*
X149750000Y-101250000D01*
X158525000Y-106750000D02*
X157775000Y-106750000D01*
X161000000Y-91250000D02*
X159551931Y-92263949D01*
X157750000Y-93250000D02*
X157500000Y-93500000D01*
X158750000Y-93250000D02*
X157750000Y-93250000D01*
X160250000Y-90750000D02*
X161250000Y-90750000D01*
X153500000Y-97500000D02*
X154000000Y-97000000D01*
X157775000Y-102250000D02*
X158525000Y-102250000D01*
X143000000Y-110000000D02*
X142500000Y-110500000D01*
X142250000Y-109750000D02*
X142250000Y-110750000D01*
X147750000Y-105250000D02*
X147750000Y-104250000D01*
X155750000Y-96250000D02*
X154750000Y-96250000D01*
X126500000Y-93600000D02*
X130914756Y-93600000D01*
X143750000Y-107250000D02*
X144250000Y-106750000D01*
X147750000Y-104250000D02*
X146750000Y-104250000D01*
X144000000Y-109000000D02*
X144000000Y-108000000D01*
X159250000Y-95500000D02*
X158500000Y-94750000D01*
X143250000Y-109750000D02*
X143250000Y-108750000D01*
X153750000Y-99250000D02*
X153750000Y-98250000D01*
X159500000Y-92500000D02*
X158500000Y-92500000D01*
X152000000Y-101000000D02*
X151500000Y-101500000D01*
X157750000Y-100250000D02*
X158500000Y-99500000D01*
X160750000Y-90250000D02*
X160250000Y-90750000D01*
X159250000Y-99500000D02*
X158500000Y-100250000D01*
X153500000Y-99500000D02*
X153000000Y-100000000D01*
X153500000Y-98500000D02*
X153500000Y-99500000D01*
X141500000Y-111500000D02*
X141000000Y-112000000D01*
X162000000Y-91000000D02*
X162000000Y-90000000D01*
X160500000Y-91500000D02*
X160500000Y-91573531D01*
X157750000Y-96250000D02*
X158500000Y-95500000D01*
X142250000Y-110750000D02*
X141750000Y-111250000D01*
X158500000Y-96750000D02*
X157750000Y-96750000D01*
X143750000Y-108250000D02*
X143750000Y-109250000D01*
X159250000Y-91750000D02*
X158750000Y-92250000D01*
X154250000Y-96750000D02*
X155250000Y-96750000D01*
X156500000Y-96500000D02*
X156000000Y-97000000D01*
X156500000Y-95000000D02*
X157500000Y-95000000D01*
X157500000Y-96000000D01*
X156500000Y-96000000D01*
X156500000Y-95000000D01*
X159275000Y-103500000D02*
X158525000Y-102750000D01*
X157500000Y-93750000D02*
X158250000Y-93750000D01*
X159250000Y-95500000D02*
X158500000Y-96250000D01*
X157750000Y-96250000D01*
X158500000Y-95500000D01*
X157750000Y-94750000D01*
X158500000Y-94750000D01*
X159250000Y-95500000D01*
G36*
X159250000Y-95500000D02*
G01*
X158500000Y-96250000D01*
X157750000Y-96250000D01*
X158500000Y-95500000D01*
X157750000Y-94750000D01*
X158500000Y-94750000D01*
X159250000Y-95500000D01*
G37*
X157750000Y-98250000D02*
X158500000Y-98250000D01*
X160999999Y-91250000D02*
X162448068Y-92263949D01*
X142000000Y-109000000D02*
X143000000Y-109000000D01*
X151250000Y-100750000D02*
X151250000Y-101750000D01*
X143500000Y-95500000D02*
X146000000Y-95500000D01*
X146000000Y-98000000D01*
X143500000Y-98000000D01*
X143500000Y-95500000D01*
X148000000Y-103000000D02*
X149000000Y-103000000D01*
X159500000Y-91500000D02*
X160500000Y-91500000D01*
X145250000Y-106750000D02*
X145250000Y-107750000D01*
X157775000Y-106250000D02*
X158525000Y-105500000D01*
X161000000Y-91000000D02*
X160000000Y-91000000D01*
X140000000Y-111000000D02*
X140500000Y-110500000D01*
X158500000Y-92750000D02*
X157750000Y-92750000D01*
X146750000Y-105250000D02*
X146750000Y-106250000D01*
X149250000Y-102750000D02*
X148250000Y-102750000D01*
X145810660Y-96750000D02*
G75*
G02*
X143689340Y-96750000I-1060660J0D01*
G01*
X143689340Y-96750000D02*
G75*
G02*
X145810660Y-96750000I1060660J0D01*
G01*
X155414214Y-105250000D02*
G75*
G02*
X152585786Y-105250000I-1414214J0D01*
G01*
X152585786Y-105250000D02*
G75*
G02*
X155414214Y-105250000I1414214J0D01*
G01*
X159275000Y-101500000D02*
X158525000Y-102250000D01*
X157775000Y-102250000D01*
X158525000Y-101500000D01*
X157775000Y-100750000D01*
X158525000Y-100750000D01*
X159275000Y-101500000D01*
G36*
X159275000Y-101500000D02*
G01*
X158525000Y-102250000D01*
X157775000Y-102250000D01*
X158525000Y-101500000D01*
X157775000Y-100750000D01*
X158525000Y-100750000D01*
X159275000Y-101500000D01*
G37*
X147000000Y-105000000D02*
X146000000Y-105000000D01*
X156500000Y-95500000D02*
X156500000Y-96500000D01*
X156500000Y-94500000D02*
X157500000Y-94500000D01*
X157775000Y-108250000D02*
X158525000Y-107500000D01*
X145750000Y-105250000D02*
X146750000Y-105250000D01*
X151250000Y-99750000D02*
X151750000Y-99250000D01*
X157250000Y-94750000D02*
X156250000Y-94750000D01*
X150750000Y-102250000D02*
X150750000Y-101250000D01*
X146750000Y-104250000D02*
X147250000Y-103750000D01*
X151500000Y-100500000D02*
X150500000Y-100500000D01*
X158500000Y-98750000D02*
X157750000Y-98750000D01*
X159250000Y-97500000D02*
X158500000Y-98250000D01*
X157750000Y-98250000D01*
X158500000Y-97500000D01*
X157750000Y-96750000D01*
X158500000Y-96750000D01*
X159250000Y-97500000D01*
G36*
X159250000Y-97500000D02*
G01*
X158500000Y-98250000D01*
X157750000Y-98250000D01*
X158500000Y-97500000D01*
X157750000Y-96750000D01*
X158500000Y-96750000D01*
X159250000Y-97500000D01*
G37*
X152500000Y-98500000D02*
X153500000Y-98500000D01*
X160999999Y-109500000D02*
X162448068Y-108486051D01*
X141500000Y-110500000D02*
X141500000Y-111500000D01*
X159250000Y-99500000D02*
X158500000Y-98750000D01*
X157750000Y-98250000D02*
X158500000Y-97500000D01*
X149750000Y-102250000D02*
X149750000Y-103250000D01*
X152750000Y-98250000D02*
X153250000Y-97750000D01*
X154250000Y-98750000D02*
X153750000Y-99250000D01*
X128500000Y-94250000D02*
X126500000Y-94250000D01*
X143250000Y-108750000D02*
X142250000Y-108750000D01*
X151500000Y-101500000D02*
X151500000Y-100500000D01*
X159275000Y-105500000D02*
X158525000Y-106250000D01*
X157775000Y-102750000D02*
X158525000Y-103500000D01*
X152000000Y-100000000D02*
X152000000Y-101000000D01*
X162500000Y-90500000D02*
X162000000Y-91000000D01*
X159500000Y-93500000D02*
X159500000Y-92500000D01*
X141250000Y-109750000D02*
X142250000Y-109750000D01*
X156500000Y-97000000D02*
X157500000Y-97000000D01*
X157500000Y-98000000D01*
X156500000Y-98000000D01*
X156500000Y-97000000D01*
X159275000Y-101500000D02*
X158525000Y-100750000D01*
X156750000Y-96000000D02*
X156750000Y-96250000D01*
X159250000Y-99500000D02*
X158500000Y-100250000D01*
X157750000Y-100250000D01*
X158500000Y-99500000D01*
X157750000Y-98750000D01*
X158500000Y-98750000D01*
X159250000Y-99500000D01*
G36*
X159250000Y-99500000D02*
G01*
X158500000Y-100250000D01*
X157750000Y-100250000D01*
X158500000Y-99500000D01*
X157750000Y-98750000D01*
X158500000Y-98750000D01*
X159250000Y-99500000D01*
G37*
X155500000Y-95500000D02*
X156500000Y-95500000D01*
X159000000Y-93000000D02*
X159000000Y-94000000D01*
X147500000Y-104500000D02*
X147500000Y-105500000D01*
X158525000Y-102750000D02*
X157775000Y-102750000D01*
X146250000Y-106750000D02*
X146250000Y-105750000D01*
X142750000Y-108250000D02*
X143750000Y-108250000D01*
X159250000Y-93500000D02*
X158500000Y-94250000D01*
X157750000Y-94250000D01*
X158500000Y-93500000D01*
X157750000Y-92750000D01*
X158500000Y-92750000D01*
X159250000Y-93500000D01*
G36*
X159250000Y-93500000D02*
G01*
X158500000Y-94250000D01*
X157750000Y-94250000D01*
X158500000Y-93500000D01*
X157750000Y-92750000D01*
X158500000Y-92750000D01*
X159250000Y-93500000D01*
G37*
X154250000Y-97750000D02*
X154250000Y-98750000D01*
X145250000Y-105750000D02*
X145750000Y-105250000D01*
X141750000Y-111250000D02*
X141750000Y-110250000D01*
X153250000Y-97750000D02*
X154250000Y-97750000D01*
X150000000Y-103000000D02*
X150000000Y-102000000D01*
X158000000Y-93000000D02*
X159000000Y-93000000D01*
X150250000Y-100750000D02*
X151250000Y-100750000D01*
X157775000Y-104250000D02*
X158525000Y-103500000D01*
X158525000Y-100750000D02*
X157775000Y-100750000D01*
X157750000Y-94250000D02*
X158500000Y-93500000D01*
X161250000Y-90750000D02*
X161250000Y-91401125D01*
X142500000Y-110500000D02*
X142500000Y-109500000D01*
X159250000Y-93500000D02*
X158500000Y-94250000D01*
X156500000Y-93000000D02*
X157500000Y-93000000D01*
X157500000Y-94000000D01*
X156500000Y-94000000D01*
X156500000Y-93000000D01*
X147250000Y-103750000D02*
X148250000Y-103750000D01*
X161500000Y-89500000D02*
X162500000Y-89500000D01*
X141000000Y-112000000D02*
X141000000Y-111000000D01*
X159250000Y-97500000D02*
X158500000Y-98250000D01*
X155250000Y-97750000D02*
X155750000Y-97250000D01*
X157775000Y-106250000D02*
X158525000Y-106250000D01*
X153750000Y-98250000D02*
X152750000Y-98250000D01*
X158500000Y-92500000D02*
X158000000Y-93000000D01*
X152250000Y-100750000D02*
X152250000Y-99750000D01*
X159000000Y-94000000D02*
X159500000Y-93500000D01*
X158500000Y-94750000D02*
X157750000Y-94750000D01*
X157775000Y-100750000D02*
X158525000Y-101500000D01*
X144750000Y-108250000D02*
X144750000Y-107250000D01*
X152750000Y-100250000D02*
X152250000Y-100750000D01*
X147500000Y-103500000D02*
X148000000Y-103000000D01*
X158525000Y-104750000D02*
X157775000Y-104750000D01*
X148250000Y-104750000D02*
X147750000Y-105250000D01*
X161451276Y-91548724D02*
X161750000Y-91250000D01*
X154750000Y-96250000D02*
X154250000Y-96750000D01*
X156500000Y-101000000D02*
X157500000Y-101000000D01*
X157500000Y-102000000D01*
X156500000Y-102000000D01*
X156500000Y-101000000D01*
X151250000Y-101750000D02*
X150750000Y-102250000D01*
X150000000Y-103880899D02*
G75*
G02*
X156619101Y-110500000I0J-6619101D01*
G01*
X159275000Y-105500000D02*
X158525000Y-104750000D01*
X149750000Y-101250000D02*
X150250000Y-100750000D01*
X144250000Y-106750000D02*
X145250000Y-106750000D01*
X158750000Y-92250000D02*
X159551931Y-92250000D01*
X152000000Y-99000000D02*
X152500000Y-98500000D01*
X156750000Y-96250000D02*
X157000000Y-96000000D01*
X155000000Y-96000000D02*
X155500000Y-95500000D01*
X157750000Y-100250000D02*
X158500000Y-100250000D01*
X142250000Y-108750000D02*
X142750000Y-108250000D01*
X157750000Y-96250000D02*
X158500000Y-96250000D01*
X153000000Y-99000000D02*
X152000000Y-99000000D01*
X161000000Y-109500000D02*
X159551931Y-108486051D01*
X157500000Y-94500000D02*
X157500000Y-95500000D01*
X156500000Y-105000000D02*
X157500000Y-105000000D01*
X157500000Y-106000000D01*
X156500000Y-106000000D01*
X156500000Y-105000000D01*
X160250000Y-91750000D02*
X159250000Y-91750000D01*
X146000000Y-106000000D02*
X146000000Y-107000000D01*
X144750000Y-107250000D02*
X143750000Y-107250000D01*
X155250000Y-96750000D02*
X155250000Y-97750000D01*
X162500000Y-89500000D02*
X162500000Y-90500000D01*
X161750000Y-91250000D02*
X161750000Y-90250000D01*
X141000000Y-111000000D02*
X140000000Y-111000000D01*
X162448068Y-108486051D02*
X162448068Y-92250000D01*
X158000000Y-94000000D02*
X157000000Y-94000000D01*
X158000000Y-94750000D02*
X158000000Y-94250000D01*
X146000000Y-105000000D02*
X146500000Y-104500000D01*
X145500000Y-107500000D02*
X145500000Y-106500000D01*
X140750000Y-110250000D02*
X141250000Y-109750000D01*
X148250000Y-102750000D02*
X148750000Y-102250000D01*
X146750000Y-106250000D02*
X146250000Y-106750000D01*
X156500000Y-99000000D02*
X157500000Y-99000000D01*
X157500000Y-100000000D01*
X156500000Y-100000000D01*
X156500000Y-99000000D01*
X156500000Y-107000000D02*
X157500000Y-107000000D01*
X157500000Y-108000000D01*
X156500000Y-108000000D01*
X156500000Y-107000000D01*
X141500000Y-109500000D02*
X142000000Y-109000000D01*
X155000000Y-105250000D02*
G75*
G02*
X153000000Y-105250000I-1000000J0D01*
G01*
X153000000Y-105250000D02*
G75*
G02*
X155000000Y-105250000I1000000J0D01*
G01*
X156000000Y-97000000D02*
X156000000Y-96000000D01*
X144000000Y-108000000D02*
X143000000Y-108000000D01*
X157775000Y-108250000D02*
X158525000Y-108250000D01*
X157750000Y-96750000D02*
X158500000Y-97500000D01*
X158250000Y-94250000D02*
X158250000Y-94750000D01*
X162000000Y-90000000D02*
X161000000Y-90000000D01*
X159275000Y-103500000D02*
X158525000Y-104250000D01*
X151750000Y-99250000D02*
X152750000Y-99250000D01*
X158250000Y-94750000D02*
X158750000Y-94250000D01*
X159275000Y-101500000D02*
X158525000Y-102250000D01*
X143000000Y-109000000D02*
X143000000Y-110000000D01*
X159275000Y-103500000D02*
X158525000Y-104250000D01*
X157775000Y-104250000D01*
X158525000Y-103500000D01*
X157775000Y-102750000D01*
X158525000Y-102750000D01*
X159275000Y-103500000D01*
G36*
X159275000Y-103500000D02*
G01*
X158525000Y-104250000D01*
X157775000Y-104250000D01*
X158525000Y-103500000D01*
X157775000Y-102750000D01*
X158525000Y-102750000D01*
X159275000Y-103500000D01*
G37*
X155000000Y-98000000D02*
X154500000Y-98500000D01*
X149000000Y-103000000D02*
X149000000Y-104000000D01*
X145250000Y-107750000D02*
X144750000Y-108250000D01*
X143500000Y-107500000D02*
X144500000Y-107500000D01*
X145000000Y-106000000D02*
X146000000Y-106000000D01*
X150000000Y-102000000D02*
X149000000Y-102000000D01*
X159250000Y-97500000D02*
X158500000Y-96750000D01*
X149250000Y-103750000D02*
X149250000Y-102750000D01*
X159275000Y-107500000D02*
X158525000Y-108250000D01*
X157775000Y-108250000D01*
X158525000Y-107500000D01*
X157775000Y-106750000D01*
X158525000Y-106750000D01*
X159275000Y-107500000D01*
G36*
X159275000Y-107500000D02*
G01*
X158525000Y-108250000D01*
X157775000Y-108250000D01*
X158525000Y-107500000D01*
X157775000Y-106750000D01*
X158525000Y-106750000D01*
X159275000Y-107500000D01*
G37*
X157750000Y-94250000D02*
X158500000Y-94250000D01*
X149000000Y-102000000D02*
X149500000Y-101500000D01*
X155000000Y-97000000D02*
X155000000Y-98000000D01*
X157775000Y-104250000D02*
X158525000Y-104250000D01*
X149000000Y-104000000D02*
X148500000Y-104500000D01*
X157775000Y-102250000D02*
X158525000Y-101500000D01*
X148500000Y-103500000D02*
X147500000Y-103500000D01*
X141750000Y-110250000D02*
X140750000Y-110250000D01*
X146500000Y-104500000D02*
X147500000Y-104500000D01*
D11*
G36*
X147459462Y-97442983D02*
G01*
X147476901Y-97442983D01*
X147476901Y-97460349D01*
X147494902Y-97460349D01*
X147494902Y-97671057D01*
X147302390Y-97671057D01*
X147302390Y-97652300D01*
X147284389Y-97652300D01*
X147284389Y-97636351D01*
X147267194Y-97636351D01*
X147267194Y-97566448D01*
X147319829Y-97566448D01*
X147319829Y-97619009D01*
X147337170Y-97619009D01*
X147337170Y-97636351D01*
X147442267Y-97636351D01*
X147442267Y-97547886D01*
X147337170Y-97547886D01*
X147337170Y-97566448D01*
X147319829Y-97566448D01*
X147267194Y-97566448D01*
X147267194Y-97549131D01*
X147284389Y-97549131D01*
X147284389Y-97530374D01*
X147302390Y-97530374D01*
X147302390Y-97513179D01*
X147442267Y-97513179D01*
X147442267Y-97478325D01*
X147424389Y-97478325D01*
X147424389Y-97460349D01*
X147284389Y-97460349D01*
X147284389Y-97425642D01*
X147459462Y-97425642D01*
X147459462Y-97442983D01*
G37*
G36*
X147546999Y-97671057D02*
G01*
X147546999Y-97425642D01*
X147739438Y-97425642D01*
X147739438Y-97442983D01*
X147756803Y-97442983D01*
X147756803Y-97460032D01*
X147774706Y-97460032D01*
X147774706Y-97671057D01*
X147722072Y-97671057D01*
X147722072Y-97477983D01*
X147704193Y-97477983D01*
X147704193Y-97460349D01*
X147599633Y-97460349D01*
X147599633Y-97671057D01*
X147546999Y-97671057D01*
G37*
G36*
X147897145Y-97425642D02*
G01*
X147897145Y-97320911D01*
X147949780Y-97320911D01*
X147949780Y-97425642D01*
X148019071Y-97425642D01*
X148019071Y-97460349D01*
X147949780Y-97460349D01*
X147949780Y-97619180D01*
X147966974Y-97619180D01*
X147966974Y-97636351D01*
X148055024Y-97636351D01*
X148055024Y-97671057D01*
X147933098Y-97671057D01*
X147933098Y-97653423D01*
X147915390Y-97653423D01*
X147915390Y-97636668D01*
X147897145Y-97636668D01*
X147897145Y-97460349D01*
X147826803Y-97460349D01*
X147826803Y-97425642D01*
X147897145Y-97425642D01*
G37*
G36*
X148159755Y-97460349D02*
G01*
X148159755Y-97425642D01*
X148247292Y-97425642D01*
X148247292Y-97636351D01*
X148281681Y-97636351D01*
X148281681Y-97671057D01*
X148159755Y-97671057D01*
X148159755Y-97636351D01*
X148194658Y-97636351D01*
X148194658Y-97460349D01*
X148159755Y-97460349D01*
G37*
G36*
X148194658Y-97391253D02*
G01*
X148194658Y-97320911D01*
X148247292Y-97320911D01*
X148247292Y-97391253D01*
X148194658Y-97391253D01*
G37*
G36*
X148578852Y-97444400D02*
G01*
X148596217Y-97444400D01*
X148596217Y-97461595D01*
X148614120Y-97461595D01*
X148614120Y-97636351D01*
X148596217Y-97636351D01*
X148596217Y-97653863D01*
X148578852Y-97653863D01*
X148578852Y-97671057D01*
X148439047Y-97671057D01*
X148439047Y-97758594D01*
X148386413Y-97758594D01*
X148386413Y-97636351D01*
X148439047Y-97636351D01*
X148543607Y-97636351D01*
X148543607Y-97619034D01*
X148561486Y-97619034D01*
X148561486Y-97479449D01*
X148543607Y-97479449D01*
X148543607Y-97460349D01*
X148439047Y-97460349D01*
X148439047Y-97636351D01*
X148386413Y-97636351D01*
X148386413Y-97425642D01*
X148578852Y-97425642D01*
X148578852Y-97444400D01*
G37*
G36*
X148858485Y-97442983D02*
G01*
X148875924Y-97442983D01*
X148875924Y-97460349D01*
X148893925Y-97460349D01*
X148893925Y-97671057D01*
X148701413Y-97671057D01*
X148701413Y-97652300D01*
X148683412Y-97652300D01*
X148683412Y-97636351D01*
X148666217Y-97636351D01*
X148666217Y-97566448D01*
X148718852Y-97566448D01*
X148718852Y-97619009D01*
X148736193Y-97619009D01*
X148736193Y-97636351D01*
X148841290Y-97636351D01*
X148841290Y-97547886D01*
X148736193Y-97547886D01*
X148736193Y-97566448D01*
X148718852Y-97566448D01*
X148666217Y-97566448D01*
X148666217Y-97549131D01*
X148683412Y-97549131D01*
X148683412Y-97530374D01*
X148701413Y-97530374D01*
X148701413Y-97513179D01*
X148841290Y-97513179D01*
X148841290Y-97478325D01*
X148823412Y-97478325D01*
X148823412Y-97460349D01*
X148683412Y-97460349D01*
X148683412Y-97425642D01*
X148858485Y-97425642D01*
X148858485Y-97442983D01*
G37*
G36*
X149016364Y-97425642D02*
G01*
X149016364Y-97320911D01*
X149068998Y-97320911D01*
X149068998Y-97425642D01*
X149138290Y-97425642D01*
X149138290Y-97460349D01*
X149068998Y-97460349D01*
X149068998Y-97619180D01*
X149086193Y-97619180D01*
X149086193Y-97636351D01*
X149174242Y-97636351D01*
X149174242Y-97671057D01*
X149052316Y-97671057D01*
X149052316Y-97653423D01*
X149034609Y-97653423D01*
X149034609Y-97636668D01*
X149016364Y-97636668D01*
X149016364Y-97460349D01*
X148946022Y-97460349D01*
X148946022Y-97425642D01*
X149016364Y-97425642D01*
G37*
G36*
X149225826Y-97671057D02*
G01*
X149225826Y-97320911D01*
X149278461Y-97320911D01*
X149278461Y-97425642D01*
X149418265Y-97425642D01*
X149418265Y-97442983D01*
X149435631Y-97442983D01*
X149435631Y-97460032D01*
X149453534Y-97460032D01*
X149453534Y-97671057D01*
X149400900Y-97671057D01*
X149400900Y-97477983D01*
X149383021Y-97477983D01*
X149383021Y-97460349D01*
X149278461Y-97460349D01*
X149278461Y-97671057D01*
X149225826Y-97671057D01*
G37*
G36*
X149505631Y-97635105D02*
G01*
X149505631Y-97425642D01*
X149558265Y-97425642D01*
X149558265Y-97617764D01*
X149575607Y-97617764D01*
X149575607Y-97636351D01*
X149680704Y-97636351D01*
X149680704Y-97425642D01*
X149733339Y-97425642D01*
X149733339Y-97722642D01*
X149715338Y-97722642D01*
X149715338Y-97740960D01*
X149697899Y-97740960D01*
X149697899Y-97758594D01*
X149522826Y-97758594D01*
X149522826Y-97723887D01*
X149662826Y-97723887D01*
X149662826Y-97705447D01*
X149680704Y-97705447D01*
X149680704Y-97671057D01*
X149540826Y-97671057D01*
X149540826Y-97653423D01*
X149522826Y-97653423D01*
X149522826Y-97635105D01*
X149505631Y-97635105D01*
G37*
G36*
X150065240Y-97635105D02*
G01*
X150065240Y-97425642D01*
X150117875Y-97425642D01*
X150117875Y-97617764D01*
X150135069Y-97617764D01*
X150135069Y-97636351D01*
X150152777Y-97636351D01*
X150152777Y-97495471D01*
X150205411Y-97495471D01*
X150205411Y-97636351D01*
X150222606Y-97636351D01*
X150222606Y-97617764D01*
X150240314Y-97617764D01*
X150240314Y-97425642D01*
X150292948Y-97425642D01*
X150292948Y-97635105D01*
X150274703Y-97635105D01*
X150274703Y-97653423D01*
X150257508Y-97653423D01*
X150257508Y-97671057D01*
X150099630Y-97671057D01*
X150099630Y-97653423D01*
X150082435Y-97653423D01*
X150082435Y-97635105D01*
X150065240Y-97635105D01*
G37*
G36*
X150537313Y-97442837D02*
G01*
X150554508Y-97442837D01*
X150554508Y-97460032D01*
X150572752Y-97460032D01*
X150572752Y-97635105D01*
X150554508Y-97635105D01*
X150554508Y-97652300D01*
X150537313Y-97652300D01*
X150537313Y-97671057D01*
X150379434Y-97671057D01*
X150379434Y-97652300D01*
X150362240Y-97652300D01*
X150362240Y-97635105D01*
X150345045Y-97635105D01*
X150345045Y-97477910D01*
X150397679Y-97477910D01*
X150397679Y-97617739D01*
X150415020Y-97617739D01*
X150415020Y-97636351D01*
X150502240Y-97636351D01*
X150502240Y-97617739D01*
X150520118Y-97617739D01*
X150520118Y-97477910D01*
X150502240Y-97477910D01*
X150502240Y-97460349D01*
X150415020Y-97460349D01*
X150415020Y-97477910D01*
X150397679Y-97477910D01*
X150345045Y-97477910D01*
X150345045Y-97460032D01*
X150362240Y-97460032D01*
X150362240Y-97442837D01*
X150379434Y-97442837D01*
X150379434Y-97425642D01*
X150537313Y-97425642D01*
X150537313Y-97442837D01*
G37*
G36*
X150624849Y-97671057D02*
G01*
X150624849Y-97425642D01*
X150677484Y-97425642D01*
X150677484Y-97460032D01*
X150694923Y-97460032D01*
X150694923Y-97442837D01*
X150712923Y-97442837D01*
X150712923Y-97425642D01*
X150853070Y-97425642D01*
X150853070Y-97460349D01*
X150730314Y-97460349D01*
X150730314Y-97478277D01*
X150712923Y-97478277D01*
X150712923Y-97495984D01*
X150694923Y-97495984D01*
X150694923Y-97513179D01*
X150677484Y-97513179D01*
X150677484Y-97671057D01*
X150624849Y-97671057D01*
G37*
G36*
X150957801Y-97355618D02*
G01*
X150957801Y-97320911D01*
X151045338Y-97320911D01*
X151045338Y-97636351D01*
X151079727Y-97636351D01*
X151079727Y-97671057D01*
X150957801Y-97671057D01*
X150957801Y-97636351D01*
X150992704Y-97636351D01*
X150992704Y-97355618D01*
X150957801Y-97355618D01*
G37*
G36*
X151412166Y-97671057D02*
G01*
X151219727Y-97671057D01*
X151219727Y-97652300D01*
X151201824Y-97652300D01*
X151201824Y-97635105D01*
X151184459Y-97635105D01*
X151184459Y-97477910D01*
X151237093Y-97477910D01*
X151237093Y-97617739D01*
X151254434Y-97617739D01*
X151254434Y-97636351D01*
X151359532Y-97636351D01*
X151359532Y-97460349D01*
X151254434Y-97460349D01*
X151254434Y-97477910D01*
X151237093Y-97477910D01*
X151184459Y-97477910D01*
X151184459Y-97460032D01*
X151201824Y-97460032D01*
X151201824Y-97442837D01*
X151219727Y-97442837D01*
X151219727Y-97425642D01*
X151359532Y-97425642D01*
X151359532Y-97320911D01*
X151412166Y-97320911D01*
X151412166Y-97671057D01*
G37*
D10*
G36*
X166335973Y-96077644D02*
G01*
X166335973Y-95464106D01*
X166775000Y-95464106D01*
X166775000Y-95507459D01*
X166817742Y-95507459D01*
X166817742Y-95550080D01*
X166861828Y-95550080D01*
X166861828Y-96077644D01*
X166775000Y-96077644D01*
X166775000Y-95594959D01*
X166731463Y-95594959D01*
X166731463Y-95550874D01*
X166642986Y-95550874D01*
X166642986Y-96077644D01*
X166554815Y-96077644D01*
X166554815Y-95550874D01*
X166424145Y-95550874D01*
X166424145Y-96077644D01*
X166335973Y-96077644D01*
G37*
G36*
X167473168Y-95507459D02*
G01*
X167516582Y-95507459D01*
X167516582Y-95550874D01*
X167561339Y-95550874D01*
X167561339Y-96077644D01*
X167123656Y-96077644D01*
X167123656Y-96030750D01*
X167078471Y-96030750D01*
X167078471Y-95990877D01*
X167035484Y-95990877D01*
X167035484Y-95816121D01*
X167123656Y-95816121D01*
X167123656Y-95947524D01*
X167167009Y-95947524D01*
X167167009Y-95990877D01*
X167473168Y-95990877D01*
X167473168Y-95769715D01*
X167167009Y-95769715D01*
X167167009Y-95816121D01*
X167123656Y-95816121D01*
X167035484Y-95816121D01*
X167035484Y-95772829D01*
X167078471Y-95772829D01*
X167078471Y-95725935D01*
X167123656Y-95725935D01*
X167123656Y-95682948D01*
X167473168Y-95682948D01*
X167473168Y-95595814D01*
X167429815Y-95595814D01*
X167429815Y-95550874D01*
X167078471Y-95550874D01*
X167078471Y-95464106D01*
X167473168Y-95464106D01*
X167473168Y-95507459D01*
G37*
G36*
X167867864Y-95550874D02*
G01*
X167867864Y-95464106D01*
X168043719Y-95464106D01*
X168043719Y-95990877D01*
X168129692Y-95990877D01*
X168129692Y-96077644D01*
X167867864Y-96077644D01*
X167867864Y-95990877D01*
X167955547Y-95990877D01*
X167955547Y-95550874D01*
X167867864Y-95550874D01*
G37*
G36*
X167955547Y-95378133D02*
G01*
X167955547Y-95202278D01*
X168043719Y-95202278D01*
X168043719Y-95378133D01*
X167955547Y-95378133D01*
G37*
G36*
X168522679Y-95245265D02*
G01*
X168522679Y-95202278D01*
X168872191Y-95202278D01*
X168872191Y-95245265D01*
X168915177Y-95245265D01*
X168915177Y-95292159D01*
X168960362Y-95292159D01*
X168960362Y-95596974D01*
X168915177Y-95596974D01*
X168915177Y-95639961D01*
X168872191Y-95639961D01*
X168872191Y-95682948D01*
X168829204Y-95682948D01*
X168829204Y-95729842D01*
X168782309Y-95729842D01*
X168782309Y-95772829D01*
X168739323Y-95772829D01*
X168739323Y-95815816D01*
X168696336Y-95815816D01*
X168696336Y-95857337D01*
X168653349Y-95857337D01*
X168653349Y-95900690D01*
X168610362Y-95900690D01*
X168610362Y-95945448D01*
X168567376Y-95945448D01*
X168567376Y-95990877D01*
X168960362Y-95990877D01*
X168960362Y-96077644D01*
X168434508Y-96077644D01*
X168434508Y-95945448D01*
X168477494Y-95945448D01*
X168477494Y-95900690D01*
X168522679Y-95900690D01*
X168522679Y-95857337D01*
X168567376Y-95857337D01*
X168567376Y-95815816D01*
X168610362Y-95815816D01*
X168610362Y-95772829D01*
X168653349Y-95772829D01*
X168653349Y-95729842D01*
X168696336Y-95729842D01*
X168696336Y-95682948D01*
X168739323Y-95682948D01*
X168739323Y-95639961D01*
X168782309Y-95639961D01*
X168782309Y-95596974D01*
X168829204Y-95596974D01*
X168829204Y-95550080D01*
X168872191Y-95550080D01*
X168872191Y-95335696D01*
X168829204Y-95335696D01*
X168829204Y-95289045D01*
X168567376Y-95289045D01*
X168567376Y-95335696D01*
X168522679Y-95335696D01*
X168522679Y-95511001D01*
X168434508Y-95511001D01*
X168434508Y-95292159D01*
X168477494Y-95292159D01*
X168477494Y-95245265D01*
X168522679Y-95245265D01*
G37*
G36*
X169659874Y-96077644D02*
G01*
X169222191Y-96077644D01*
X169222191Y-96030750D01*
X169178777Y-96030750D01*
X169178777Y-95987763D01*
X169134019Y-95987763D01*
X169134019Y-95594776D01*
X169222191Y-95594776D01*
X169222191Y-95944349D01*
X169265544Y-95944349D01*
X169265544Y-95990877D01*
X169571702Y-95990877D01*
X169571702Y-95550874D01*
X169265544Y-95550874D01*
X169265544Y-95594776D01*
X169222191Y-95594776D01*
X169134019Y-95594776D01*
X169134019Y-95550080D01*
X169178777Y-95550080D01*
X169178777Y-95507093D01*
X169222191Y-95507093D01*
X169222191Y-95464106D01*
X169571702Y-95464106D01*
X169571702Y-95202278D01*
X169659874Y-95202278D01*
X169659874Y-96077644D01*
G37*
G36*
X169833531Y-95596974D02*
G01*
X169833531Y-95464106D01*
X169921702Y-95464106D01*
X169921702Y-95550080D01*
X169966399Y-95550080D01*
X169966399Y-95596974D01*
X170009385Y-95596974D01*
X170009385Y-95639961D01*
X170052372Y-95639961D01*
X170052372Y-95682948D01*
X170138346Y-95682948D01*
X170138346Y-95639961D01*
X170181332Y-95639961D01*
X170181332Y-95596974D01*
X170228227Y-95596974D01*
X170228227Y-95550080D01*
X170271214Y-95550080D01*
X170271214Y-95464106D01*
X170359385Y-95464106D01*
X170359385Y-95596974D01*
X170314200Y-95596974D01*
X170314200Y-95639961D01*
X170271214Y-95639961D01*
X170271214Y-95682948D01*
X170228227Y-95682948D01*
X170228227Y-95729842D01*
X170181332Y-95729842D01*
X170181332Y-95815816D01*
X170228227Y-95815816D01*
X170228227Y-95858803D01*
X170271214Y-95858803D01*
X170271214Y-95900690D01*
X170314200Y-95900690D01*
X170314200Y-95944776D01*
X170359385Y-95944776D01*
X170359385Y-96077644D01*
X170271214Y-96077644D01*
X170271214Y-95991671D01*
X170228227Y-95991671D01*
X170228227Y-95944776D01*
X170181332Y-95944776D01*
X170181332Y-95900690D01*
X170138346Y-95900690D01*
X170138346Y-95858803D01*
X170052372Y-95858803D01*
X170052372Y-95900690D01*
X170009385Y-95900690D01*
X170009385Y-95944776D01*
X169966399Y-95944776D01*
X169966399Y-95991671D01*
X169921702Y-95991671D01*
X169921702Y-96077644D01*
X169833531Y-96077644D01*
X169833531Y-95944776D01*
X169876517Y-95944776D01*
X169876517Y-95900690D01*
X169921702Y-95900690D01*
X169921702Y-95858803D01*
X169966399Y-95858803D01*
X169966399Y-95815816D01*
X170009385Y-95815816D01*
X170009385Y-95729842D01*
X169966399Y-95729842D01*
X169966399Y-95682948D01*
X169921702Y-95682948D01*
X169921702Y-95639961D01*
X169876517Y-95639961D01*
X169876517Y-95596974D01*
X169833531Y-95596974D01*
G37*
D12*
G36*
X166420023Y-106466468D02*
G01*
X166370991Y-106466468D01*
X166342171Y-106524292D01*
X166306470Y-106499542D01*
X166269593Y-106479073D01*
X166233552Y-106463668D01*
X166195560Y-106451753D01*
X166111411Y-106437853D01*
X166054453Y-106435632D01*
X165983343Y-106443181D01*
X165904972Y-106467008D01*
X165825547Y-106507338D01*
X165788250Y-106532810D01*
X165753539Y-106561375D01*
X165724053Y-106590543D01*
X165672001Y-106657439D01*
X165631859Y-106734163D01*
X165604972Y-106819086D01*
X165592592Y-106910072D01*
X165591857Y-106938833D01*
X165593787Y-106985311D01*
X165599484Y-107030297D01*
X165608893Y-107073977D01*
X165621838Y-107115855D01*
X165658078Y-107194171D01*
X165707236Y-107263790D01*
X165768163Y-107323201D01*
X165802613Y-107348609D01*
X165839514Y-107370944D01*
X165878594Y-107390003D01*
X165919808Y-107405706D01*
X165962759Y-107417844D01*
X166007523Y-107426368D01*
X166088036Y-107432143D01*
X166136358Y-107430187D01*
X166182740Y-107424309D01*
X166225625Y-107414919D01*
X166266730Y-107401861D01*
X166305308Y-107385486D01*
X166342195Y-107365563D01*
X166410861Y-107315093D01*
X166473909Y-107249086D01*
X166517781Y-107188205D01*
X166454217Y-107152607D01*
X166416483Y-107204732D01*
X166380830Y-107243908D01*
X166338873Y-107278575D01*
X166273059Y-107318766D01*
X166196065Y-107348211D01*
X166157858Y-107356748D01*
X166121057Y-107360783D01*
X166109041Y-107361068D01*
X166045161Y-107353588D01*
X165976541Y-107330217D01*
X165942710Y-107312614D01*
X165911075Y-107291750D01*
X165862722Y-107247984D01*
X165821402Y-107190661D01*
X165789288Y-107119277D01*
X165768412Y-107034334D01*
X165760995Y-106937429D01*
X165762920Y-106886725D01*
X165768576Y-106838196D01*
X165777819Y-106791941D01*
X165790461Y-106748326D01*
X165806188Y-106707885D01*
X165824912Y-106670487D01*
X165846020Y-106636980D01*
X165869680Y-106606821D01*
X165894953Y-106580931D01*
X165922331Y-106558589D01*
X165950676Y-106540534D01*
X165980715Y-106526151D01*
X166011358Y-106515869D01*
X166043345Y-106509367D01*
X166081014Y-106506768D01*
X166146546Y-106514412D01*
X166211453Y-106537510D01*
X166273093Y-106575995D01*
X166301743Y-106600824D01*
X166328291Y-106629039D01*
X166352429Y-106660458D01*
X166390058Y-106719480D01*
X166439685Y-106808774D01*
X166487984Y-106808774D01*
X166420023Y-106466468D01*
G37*
G36*
X167091813Y-107249877D02*
G01*
X166847265Y-106618875D01*
X166838490Y-106588776D01*
X166834751Y-106562724D01*
X166834747Y-106562150D01*
X166842005Y-106536400D01*
X166850954Y-106525365D01*
X166862810Y-106517011D01*
X166871262Y-106513546D01*
X166900456Y-106505951D01*
X166955159Y-106502433D01*
X166955159Y-106455172D01*
X166532680Y-106455172D01*
X166532680Y-106502249D01*
X166589364Y-106512551D01*
X166610584Y-106520207D01*
X166628423Y-106530745D01*
X166656319Y-106561429D01*
X166686777Y-106620625D01*
X166697971Y-106646902D01*
X167013533Y-107412604D01*
X167100117Y-107412604D01*
X167407192Y-106667907D01*
X167444078Y-106589284D01*
X167460794Y-106562210D01*
X167478033Y-106541793D01*
X167494369Y-106528609D01*
X167512858Y-106518847D01*
X167561673Y-106506321D01*
X167593549Y-106502310D01*
X167593549Y-106455172D01*
X167215827Y-106455172D01*
X167215827Y-106502433D01*
X167256591Y-106506331D01*
X167289095Y-106513907D01*
X167309389Y-106522712D01*
X167324884Y-106534059D01*
X167334690Y-106546178D01*
X167341103Y-106560380D01*
X167344665Y-106585964D01*
X167342621Y-106606330D01*
X167336121Y-106630388D01*
X167330744Y-106644032D01*
X167091813Y-107249877D01*
G37*
G36*
X168015054Y-106436256D02*
G01*
X168052301Y-106440353D01*
X168088017Y-106448174D01*
X168122492Y-106459753D01*
X168155216Y-106474900D01*
X168186706Y-106493906D01*
X168216176Y-106516371D01*
X168244211Y-106542877D01*
X168269908Y-106572747D01*
X168293753Y-106606776D01*
X168314905Y-106644052D01*
X168333644Y-106685412D01*
X168349316Y-106729853D01*
X168361983Y-106778058D01*
X168371215Y-106829112D01*
X168376919Y-106883398D01*
X168378851Y-106940238D01*
X168377847Y-106979561D01*
X168373241Y-107031865D01*
X168365029Y-107081792D01*
X168338803Y-107172610D01*
X168301047Y-107250641D01*
X168253636Y-107315084D01*
X168198187Y-107365618D01*
X168135891Y-107402148D01*
X168067474Y-107424498D01*
X168031089Y-107430210D01*
X167993313Y-107432143D01*
X167973946Y-107431637D01*
X167936957Y-107427743D01*
X167901451Y-107420106D01*
X167867094Y-107408680D01*
X167834453Y-107393665D01*
X167802983Y-107374754D01*
X167773508Y-107352365D01*
X167745439Y-107325910D01*
X167719695Y-107296078D01*
X167695803Y-107262097D01*
X167674600Y-107224870D01*
X167655830Y-107183618D01*
X167640128Y-107139306D01*
X167627454Y-107091344D01*
X167618215Y-107040577D01*
X167612516Y-106986737D01*
X167611115Y-106945855D01*
X167765679Y-106945855D01*
X167766282Y-106983758D01*
X167777016Y-107101497D01*
X167799201Y-107198097D01*
X167817782Y-107243287D01*
X167852358Y-107294136D01*
X167895014Y-107331027D01*
X167943482Y-107353459D01*
X167996122Y-107361068D01*
X168013171Y-107360257D01*
X168039824Y-107355657D01*
X168065319Y-107347196D01*
X168089884Y-107334796D01*
X168112625Y-107318848D01*
X168133321Y-107299505D01*
X168151546Y-107277082D01*
X168179060Y-107224720D01*
X168194644Y-107177878D01*
X168207018Y-107124623D01*
X168216031Y-107066134D01*
X168221814Y-107000093D01*
X168223757Y-106930407D01*
X168218742Y-106819144D01*
X168202082Y-106713408D01*
X168177939Y-106637367D01*
X168149934Y-106587429D01*
X168139594Y-106573959D01*
X168120317Y-106553748D01*
X168099160Y-106537078D01*
X168076276Y-106523970D01*
X168051927Y-106514517D01*
X168025962Y-106508713D01*
X167998931Y-106506768D01*
X167984892Y-106507263D01*
X167957650Y-106511166D01*
X167931750Y-106518809D01*
X167907309Y-106530105D01*
X167884755Y-106544845D01*
X167864330Y-106562882D01*
X167846328Y-106584027D01*
X167831068Y-106608017D01*
X167818741Y-106634751D01*
X167795606Y-106709090D01*
X167772938Y-106833194D01*
X167765679Y-106945855D01*
X167611115Y-106945855D01*
X167610585Y-106930407D01*
X167612734Y-106878971D01*
X167619008Y-106827816D01*
X167629179Y-106777463D01*
X167659775Y-106683033D01*
X167700448Y-106603123D01*
X167746872Y-106541389D01*
X167789860Y-106502537D01*
X167819946Y-106482594D01*
X167852274Y-106465932D01*
X167921702Y-106443232D01*
X167993313Y-106435632D01*
X168015054Y-106436256D01*
G37*
G36*
X168956607Y-106455172D02*
G01*
X168909590Y-106455172D01*
X168797491Y-106478512D01*
X168647518Y-106498830D01*
X168647518Y-106544381D01*
X168705403Y-106547312D01*
X168751879Y-106551017D01*
X168784202Y-106560777D01*
X168796690Y-106569576D01*
X168806050Y-106581372D01*
X168816746Y-106614623D01*
X168819709Y-106676944D01*
X168819709Y-107213240D01*
X168816611Y-107292079D01*
X168811451Y-107310807D01*
X168802739Y-107323196D01*
X168802063Y-107323882D01*
X168769928Y-107345531D01*
X168718993Y-107361049D01*
X168694168Y-107363938D01*
X168646114Y-107366869D01*
X168646114Y-107412604D01*
X169127394Y-107412604D01*
X169127394Y-107366869D01*
X169080805Y-107363938D01*
X169036020Y-107359292D01*
X169002970Y-107349559D01*
X168987965Y-107340372D01*
X168976348Y-107328196D01*
X168962487Y-107295905D01*
X168956673Y-107239483D01*
X168956607Y-107216049D01*
X168956607Y-106455172D01*
G37*
D10*
G36*
X156733159Y-103605365D02*
G01*
X156707367Y-103605365D01*
X156707367Y-103395659D01*
X156733159Y-103395659D01*
X156733159Y-103369866D01*
X156761295Y-103369866D01*
X156761295Y-103342756D01*
X156943708Y-103342756D01*
X156943708Y-103369866D01*
X156997637Y-103369866D01*
X156997637Y-103342756D01*
X157180526Y-103342756D01*
X157180526Y-103369866D01*
X157204450Y-103369866D01*
X157204450Y-103395659D01*
X157232586Y-103395659D01*
X157232586Y-103605365D01*
X157204450Y-103605365D01*
X157204450Y-103632476D01*
X157180526Y-103632476D01*
X157180526Y-103658268D01*
X157101281Y-103658268D01*
X157101281Y-103605365D01*
X157154368Y-103605365D01*
X157154368Y-103578804D01*
X157180526Y-103578804D01*
X157180526Y-103421597D01*
X157154368Y-103421597D01*
X157154368Y-103395659D01*
X157021561Y-103395659D01*
X157021561Y-103421597D01*
X156995769Y-103421597D01*
X156995769Y-103578804D01*
X156943708Y-103578804D01*
X156943708Y-103421597D01*
X156916048Y-103421597D01*
X156916048Y-103395659D01*
X156787600Y-103395659D01*
X156787600Y-103421597D01*
X156759427Y-103421597D01*
X156759427Y-103578804D01*
X156787600Y-103578804D01*
X156787600Y-103605365D01*
X156841016Y-103605365D01*
X156841016Y-103658268D01*
X156761295Y-103658268D01*
X156761295Y-103632476D01*
X156733159Y-103632476D01*
X156733159Y-103605365D01*
G37*
G36*
X157232586Y-101395659D02*
G01*
X157101281Y-101395659D01*
X157101281Y-101658268D01*
X156969427Y-101658268D01*
X156969427Y-101632476D01*
X156944184Y-101632476D01*
X156944184Y-101605365D01*
X156916048Y-101605365D01*
X156916048Y-101578804D01*
X156890256Y-101578804D01*
X156890256Y-101552756D01*
X156864464Y-101552756D01*
X156864464Y-101526963D01*
X156838672Y-101526963D01*
X156838672Y-101501171D01*
X156812879Y-101501171D01*
X156812879Y-101475379D01*
X156784743Y-101475379D01*
X156784743Y-101449587D01*
X156758951Y-101449587D01*
X156758951Y-101421451D01*
X156812879Y-101421451D01*
X156838672Y-101421451D01*
X156838672Y-101449587D01*
X156864464Y-101449587D01*
X156864464Y-101475379D01*
X156890256Y-101475379D01*
X156890256Y-101501171D01*
X156916048Y-101501171D01*
X156916048Y-101526963D01*
X156944184Y-101526963D01*
X156944184Y-101552756D01*
X156969427Y-101552756D01*
X156969427Y-101578804D01*
X156995769Y-101578804D01*
X156995769Y-101605365D01*
X157049221Y-101605365D01*
X157049221Y-101395659D01*
X156812879Y-101395659D01*
X156812879Y-101421451D01*
X156758951Y-101421451D01*
X156733159Y-101421451D01*
X156733159Y-101395659D01*
X156707367Y-101395659D01*
X156707367Y-101342756D01*
X157232586Y-101342756D01*
X157232586Y-101395659D01*
G37*
D11*
G36*
X146590272Y-96529185D02*
G01*
X146590272Y-96499094D01*
X146866559Y-96499094D01*
X146866559Y-96529185D01*
X146896650Y-96529185D01*
X146896650Y-96559276D01*
X146928579Y-96559276D01*
X146928579Y-96652284D01*
X146836468Y-96652284D01*
X146836468Y-96589965D01*
X146805181Y-96589965D01*
X146805181Y-96559831D01*
X146652547Y-96559831D01*
X146652547Y-96589965D01*
X146622200Y-96589965D01*
X146622200Y-97018715D01*
X146652547Y-97018715D01*
X146652547Y-97051114D01*
X146805181Y-97051114D01*
X146805181Y-97018715D01*
X146836468Y-97018715D01*
X146836468Y-96835563D01*
X146714182Y-96835563D01*
X146714182Y-96774826D01*
X146928579Y-96774826D01*
X146928579Y-97048934D01*
X146896650Y-97048934D01*
X146896650Y-97079025D01*
X146866559Y-97079025D01*
X146866559Y-97111851D01*
X146590272Y-97111851D01*
X146590272Y-97079025D01*
X146560181Y-97079025D01*
X146560181Y-97048934D01*
X146530090Y-97048934D01*
X146530090Y-96559276D01*
X146560181Y-96559276D01*
X146560181Y-96529185D01*
X146590272Y-96529185D01*
G37*
G36*
X147019748Y-97048934D02*
G01*
X147019748Y-96682374D01*
X147111858Y-96682374D01*
X147111858Y-97018587D01*
X147142206Y-97018587D01*
X147142206Y-97051114D01*
X147326127Y-97051114D01*
X147326127Y-96682374D01*
X147418237Y-96682374D01*
X147418237Y-97111851D01*
X147081468Y-97111851D01*
X147081468Y-97080991D01*
X147050138Y-97080991D01*
X147050138Y-97048934D01*
X147019748Y-97048934D01*
G37*
G36*
X147845875Y-96713021D02*
G01*
X147875966Y-96713021D01*
X147875966Y-96742556D01*
X147907895Y-96742556D01*
X147907895Y-96928571D01*
X147601516Y-96928571D01*
X147601516Y-97018843D01*
X147631864Y-97018843D01*
X147631864Y-97051114D01*
X147815785Y-97051114D01*
X147815785Y-97018843D01*
X147907895Y-97018843D01*
X147907895Y-97079580D01*
X147875966Y-97079580D01*
X147875966Y-97111851D01*
X147569588Y-97111851D01*
X147569588Y-97079580D01*
X147539497Y-97079580D01*
X147539497Y-97048934D01*
X147509406Y-97048934D01*
X147509406Y-96774356D01*
X147601516Y-96774356D01*
X147601516Y-96867834D01*
X147815785Y-96867834D01*
X147815785Y-96774356D01*
X147784497Y-96774356D01*
X147784497Y-96743111D01*
X147631864Y-96743111D01*
X147631864Y-96774356D01*
X147601516Y-96774356D01*
X147509406Y-96774356D01*
X147509406Y-96742556D01*
X147539497Y-96742556D01*
X147539497Y-96713021D01*
X147569588Y-96713021D01*
X147569588Y-96682374D01*
X147845875Y-96682374D01*
X147845875Y-96713021D01*
G37*
G36*
X148059246Y-96712465D02*
G01*
X148059246Y-96682374D01*
X148335533Y-96682374D01*
X148335533Y-96712465D01*
X148365624Y-96712465D01*
X148365624Y-96742556D01*
X148398450Y-96742556D01*
X148398450Y-96772646D01*
X148275352Y-96772646D01*
X148275352Y-96743111D01*
X148122163Y-96743111D01*
X148122163Y-96772646D01*
X148091174Y-96772646D01*
X148091174Y-96834025D01*
X148122163Y-96834025D01*
X148122163Y-96867834D01*
X148335533Y-96867834D01*
X148335533Y-96896300D01*
X148365624Y-96896300D01*
X148365624Y-96928571D01*
X148398450Y-96928571D01*
X148398450Y-97051114D01*
X148365624Y-97051114D01*
X148365624Y-97079580D01*
X148335533Y-97079580D01*
X148335533Y-97111851D01*
X148059246Y-97111851D01*
X148059246Y-97079580D01*
X148029155Y-97079580D01*
X148029155Y-97051114D01*
X147999064Y-97051114D01*
X147999064Y-97018843D01*
X148122163Y-97018843D01*
X148122163Y-97051114D01*
X148275352Y-97051114D01*
X148275352Y-97018843D01*
X148306340Y-97018843D01*
X148306340Y-96958363D01*
X148275352Y-96958363D01*
X148275352Y-96928571D01*
X148059246Y-96928571D01*
X148059246Y-96895745D01*
X148029155Y-96895745D01*
X148029155Y-96865654D01*
X147999064Y-96865654D01*
X147999064Y-96742556D01*
X148029155Y-96742556D01*
X148029155Y-96712465D01*
X148059246Y-96712465D01*
G37*
G36*
X148611821Y-96682374D02*
G01*
X148611821Y-96499094D01*
X148703931Y-96499094D01*
X148703931Y-96682374D01*
X148825191Y-96682374D01*
X148825191Y-96743111D01*
X148703931Y-96743111D01*
X148703931Y-97021066D01*
X148734022Y-97021066D01*
X148734022Y-97051114D01*
X148888108Y-97051114D01*
X148888108Y-97111851D01*
X148674738Y-97111851D01*
X148674738Y-97080991D01*
X148643750Y-97080991D01*
X148643750Y-97051669D01*
X148611821Y-97051669D01*
X148611821Y-96743111D01*
X148488722Y-96743111D01*
X148488722Y-96682374D01*
X148611821Y-96682374D01*
G37*
D10*
G36*
X156733159Y-105605365D02*
G01*
X156707367Y-105605365D01*
X156707367Y-105395659D01*
X156733159Y-105395659D01*
X156733159Y-105369866D01*
X156761295Y-105369866D01*
X156761295Y-105342756D01*
X156944184Y-105342756D01*
X156944184Y-105369866D01*
X156969976Y-105369866D01*
X156969976Y-105395659D01*
X156995769Y-105395659D01*
X156995769Y-105421451D01*
X157023905Y-105421451D01*
X157023905Y-105449587D01*
X157049697Y-105449587D01*
X157049697Y-105475379D01*
X157075489Y-105475379D01*
X157075489Y-105501171D01*
X157100402Y-105501171D01*
X157100402Y-105526963D01*
X157126414Y-105526963D01*
X157126414Y-105552756D01*
X157153269Y-105552756D01*
X157153269Y-105578548D01*
X157180526Y-105578548D01*
X157180526Y-105342756D01*
X157232586Y-105342756D01*
X157232586Y-105658268D01*
X157153269Y-105658268D01*
X157153269Y-105632476D01*
X157126414Y-105632476D01*
X157126414Y-105605365D01*
X157100402Y-105605365D01*
X157100402Y-105578548D01*
X157075489Y-105578548D01*
X157075489Y-105552756D01*
X157049697Y-105552756D01*
X157049697Y-105526963D01*
X157023905Y-105526963D01*
X157023905Y-105501171D01*
X156995769Y-105501171D01*
X156995769Y-105475379D01*
X156969976Y-105475379D01*
X156969976Y-105449587D01*
X156944184Y-105449587D01*
X156944184Y-105421451D01*
X156916048Y-105421451D01*
X156916048Y-105395659D01*
X156787417Y-105395659D01*
X156787417Y-105421451D01*
X156759427Y-105421451D01*
X156759427Y-105578548D01*
X156787417Y-105578548D01*
X156787417Y-105605365D01*
X156892600Y-105605365D01*
X156892600Y-105658268D01*
X156761295Y-105658268D01*
X156761295Y-105632476D01*
X156733159Y-105632476D01*
X156733159Y-105605365D01*
G37*
G36*
X156943708Y-93369866D02*
G01*
X156995769Y-93369866D01*
X156995769Y-93342756D01*
X157178658Y-93342756D01*
X157178658Y-93369866D01*
X157204450Y-93369866D01*
X157204450Y-93395659D01*
X157232586Y-93395659D01*
X157232586Y-93605365D01*
X157204450Y-93605365D01*
X157204450Y-93632476D01*
X157178658Y-93632476D01*
X157178658Y-93658268D01*
X156995769Y-93658268D01*
X156995769Y-93632476D01*
X156943708Y-93632476D01*
X156943708Y-93658268D01*
X156761295Y-93658268D01*
X156761295Y-93632476D01*
X156733159Y-93632476D01*
X156733159Y-93605365D01*
X156707367Y-93605365D01*
X156707367Y-93421670D01*
X156759427Y-93421670D01*
X156759427Y-93579354D01*
X156786978Y-93579354D01*
X156786978Y-93605365D01*
X156916048Y-93605365D01*
X156916048Y-93579354D01*
X156943708Y-93579354D01*
X156943708Y-93421670D01*
X156995769Y-93421670D01*
X156995769Y-93579354D01*
X157021561Y-93579354D01*
X157021561Y-93605365D01*
X157152609Y-93605365D01*
X157152609Y-93579354D01*
X157180526Y-93579354D01*
X157180526Y-93421670D01*
X157152609Y-93421670D01*
X157152609Y-93395659D01*
X157021561Y-93395659D01*
X157021561Y-93421670D01*
X156995769Y-93421670D01*
X156943708Y-93421670D01*
X156916048Y-93421670D01*
X156916048Y-93395659D01*
X156786978Y-93395659D01*
X156786978Y-93421670D01*
X156759427Y-93421670D01*
X156707367Y-93421670D01*
X156707367Y-93395659D01*
X156733159Y-93395659D01*
X156733159Y-93369866D01*
X156761295Y-93369866D01*
X156761295Y-93342756D01*
X156943708Y-93342756D01*
X156943708Y-93369866D01*
G37*
D11*
G36*
X146866559Y-95779185D02*
G01*
X146898488Y-95779185D01*
X146898488Y-95809276D01*
X146928579Y-95809276D01*
X146928579Y-96055473D01*
X146898488Y-96055473D01*
X146898488Y-96085563D01*
X146866559Y-96085563D01*
X146866559Y-96116210D01*
X146714610Y-96116210D01*
X146714610Y-96148480D01*
X146745299Y-96148480D01*
X146745299Y-96178571D01*
X146775389Y-96178571D01*
X146775389Y-96208662D01*
X146806378Y-96208662D01*
X146806378Y-96238752D01*
X146836468Y-96238752D01*
X146836468Y-96269313D01*
X146866559Y-96269313D01*
X146866559Y-96299703D01*
X146898488Y-96299703D01*
X146898488Y-96331760D01*
X146928579Y-96331760D01*
X146928579Y-96361851D01*
X146836468Y-96361851D01*
X146836468Y-96331760D01*
X146806378Y-96331760D01*
X146806378Y-96299703D01*
X146775389Y-96299703D01*
X146775389Y-96269313D01*
X146745299Y-96269313D01*
X146745299Y-96238752D01*
X146714610Y-96238752D01*
X146714610Y-96208662D01*
X146683279Y-96208662D01*
X146683279Y-96178571D01*
X146653189Y-96178571D01*
X146653189Y-96148480D01*
X146622200Y-96148480D01*
X146622200Y-96361851D01*
X146530090Y-96361851D01*
X146530090Y-96055473D01*
X146622200Y-96055473D01*
X146806378Y-96055473D01*
X146806378Y-96024912D01*
X146836468Y-96024912D01*
X146836468Y-95839837D01*
X146806378Y-95839837D01*
X146806378Y-95809831D01*
X146622200Y-95809831D01*
X146622200Y-96055473D01*
X146530090Y-96055473D01*
X146530090Y-95749094D01*
X146866559Y-95749094D01*
X146866559Y-95779185D01*
G37*
G36*
X147356217Y-95962721D02*
G01*
X147386735Y-95962721D01*
X147386735Y-95993111D01*
X147418237Y-95993111D01*
X147418237Y-96361851D01*
X147081340Y-96361851D01*
X147081340Y-96329025D01*
X147049839Y-96329025D01*
X147049839Y-96301114D01*
X147019748Y-96301114D01*
X147019748Y-96178785D01*
X147111858Y-96178785D01*
X147111858Y-96270767D01*
X147142206Y-96270767D01*
X147142206Y-96301114D01*
X147326127Y-96301114D01*
X147326127Y-96146300D01*
X147142206Y-96146300D01*
X147142206Y-96178785D01*
X147111858Y-96178785D01*
X147019748Y-96178785D01*
X147019748Y-96148480D01*
X147049839Y-96148480D01*
X147049839Y-96115654D01*
X147081340Y-96115654D01*
X147081340Y-96085563D01*
X147326127Y-96085563D01*
X147326127Y-96024570D01*
X147294839Y-96024570D01*
X147294839Y-95993111D01*
X147049839Y-95993111D01*
X147049839Y-95932374D01*
X147356217Y-95932374D01*
X147356217Y-95962721D01*
G37*
G36*
X147632505Y-95932374D02*
G01*
X147632505Y-95749094D01*
X147724615Y-95749094D01*
X147724615Y-95932374D01*
X147845875Y-95932374D01*
X147845875Y-95993111D01*
X147724615Y-95993111D01*
X147724615Y-96271066D01*
X147754706Y-96271066D01*
X147754706Y-96301114D01*
X147908792Y-96301114D01*
X147908792Y-96361851D01*
X147695422Y-96361851D01*
X147695422Y-96330991D01*
X147664433Y-96330991D01*
X147664433Y-96301669D01*
X147632505Y-96301669D01*
X147632505Y-95993111D01*
X147509406Y-95993111D01*
X147509406Y-95932374D01*
X147632505Y-95932374D01*
G37*
G36*
X148092072Y-95993111D02*
G01*
X148092072Y-95932374D01*
X148245261Y-95932374D01*
X148245261Y-96301114D01*
X148305443Y-96301114D01*
X148305443Y-96361851D01*
X148092072Y-96361851D01*
X148092072Y-96301114D01*
X148153151Y-96301114D01*
X148153151Y-95993111D01*
X148092072Y-95993111D01*
G37*
G36*
X148153151Y-95872193D02*
G01*
X148153151Y-95749094D01*
X148245261Y-95749094D01*
X148245261Y-95872193D01*
X148153151Y-95872193D01*
G37*
G36*
X148488722Y-96361851D02*
G01*
X148488722Y-95932374D01*
X148825491Y-95932374D01*
X148825491Y-95962721D01*
X148855881Y-95962721D01*
X148855881Y-95992556D01*
X148887211Y-95992556D01*
X148887211Y-96361851D01*
X148795101Y-96361851D01*
X148795101Y-96023971D01*
X148763813Y-96023971D01*
X148763813Y-95993111D01*
X148580833Y-95993111D01*
X148580833Y-96361851D01*
X148488722Y-96361851D01*
G37*
G36*
X149376869Y-96454303D02*
G01*
X149345368Y-96454303D01*
X149345368Y-96484180D01*
X149314849Y-96484180D01*
X149314849Y-96515040D01*
X149008471Y-96515040D01*
X149008471Y-96454303D01*
X149253471Y-96454303D01*
X149253471Y-96423486D01*
X149284759Y-96423486D01*
X149284759Y-96361851D01*
X149039972Y-96361851D01*
X149039972Y-96331760D01*
X149008471Y-96331760D01*
X149008471Y-96301114D01*
X148978381Y-96301114D01*
X148978381Y-96026536D01*
X149070491Y-96026536D01*
X149070491Y-96270809D01*
X149100838Y-96270809D01*
X149100838Y-96301114D01*
X149284759Y-96301114D01*
X149284759Y-95993111D01*
X149100838Y-95993111D01*
X149100838Y-96026536D01*
X149070491Y-96026536D01*
X148978381Y-96026536D01*
X148978381Y-95995291D01*
X149008471Y-95995291D01*
X149008471Y-95965200D01*
X149039972Y-95965200D01*
X149039972Y-95932374D01*
X149376869Y-95932374D01*
X149376869Y-96454303D01*
G37*
G36*
X149621228Y-96361851D02*
G01*
X149621228Y-96238752D01*
X149713338Y-96238752D01*
X149713338Y-96361851D01*
X149621228Y-96361851D01*
G37*
G36*
X149621228Y-96055473D02*
G01*
X149621228Y-95932374D01*
X149713338Y-95932374D01*
X149713338Y-96055473D01*
X149621228Y-96055473D01*
G37*
G36*
X150601441Y-95780553D02*
G01*
X150601441Y-95749094D01*
X150693551Y-95749094D01*
X150693551Y-96301114D01*
X150786559Y-96301114D01*
X150786559Y-96361851D01*
X150510272Y-96361851D01*
X150510272Y-96301114D01*
X150601441Y-96301114D01*
X150601441Y-95902284D01*
X150510272Y-95902284D01*
X150510272Y-95841546D01*
X150540362Y-95841546D01*
X150540362Y-95811028D01*
X150570453Y-95811028D01*
X150570453Y-95780553D01*
X150601441Y-95780553D01*
G37*
G36*
X151303572Y-95809831D02*
G01*
X151059470Y-95809831D01*
X151059470Y-95841846D01*
X151029123Y-95841846D01*
X151029123Y-95994736D01*
X151273482Y-95994736D01*
X151273482Y-96025382D01*
X151303572Y-96025382D01*
X151303572Y-96055473D01*
X151335501Y-96055473D01*
X151335501Y-96301114D01*
X151303572Y-96301114D01*
X151303572Y-96331760D01*
X151273482Y-96331760D01*
X151273482Y-96361851D01*
X150997194Y-96361851D01*
X150997194Y-96331760D01*
X150967103Y-96331760D01*
X150967103Y-96301114D01*
X150937013Y-96301114D01*
X150937013Y-96270638D01*
X151029123Y-96270638D01*
X151059470Y-96270638D01*
X151059470Y-96301114D01*
X151212103Y-96301114D01*
X151212103Y-96270638D01*
X151243391Y-96270638D01*
X151243391Y-96085905D01*
X151212103Y-96085905D01*
X151212103Y-96055473D01*
X151029123Y-96055473D01*
X151029123Y-96270638D01*
X150937013Y-96270638D01*
X150937013Y-95811456D01*
X150967103Y-95811456D01*
X150967103Y-95781921D01*
X150997194Y-95781921D01*
X150997194Y-95749094D01*
X151303572Y-95749094D01*
X151303572Y-95809831D01*
G37*
G36*
X151487750Y-95779185D02*
G01*
X151487750Y-95749094D01*
X151763140Y-95749094D01*
X151763140Y-95779185D01*
X151795068Y-95779185D01*
X151795068Y-95809276D01*
X151825159Y-95809276D01*
X151825159Y-95992556D01*
X151795068Y-95992556D01*
X151795068Y-96025382D01*
X151763140Y-96025382D01*
X151763140Y-96055473D01*
X151733049Y-96055473D01*
X151733049Y-96085563D01*
X151702958Y-96085563D01*
X151702958Y-96118390D01*
X151671970Y-96118390D01*
X151671970Y-96148480D01*
X151641879Y-96148480D01*
X151641879Y-96178571D01*
X151611789Y-96178571D01*
X151611789Y-96207636D01*
X151579860Y-96207636D01*
X151579860Y-96237983D01*
X151548872Y-96237983D01*
X151548872Y-96269313D01*
X151518781Y-96269313D01*
X151518781Y-96301114D01*
X151825159Y-96301114D01*
X151825159Y-96361851D01*
X151426671Y-96361851D01*
X151426671Y-96269313D01*
X151456762Y-96269313D01*
X151456762Y-96237983D01*
X151487750Y-96237983D01*
X151487750Y-96207636D01*
X151519678Y-96207636D01*
X151519678Y-96178571D01*
X151549769Y-96178571D01*
X151549769Y-96148480D01*
X151579860Y-96148480D01*
X151579860Y-96118390D01*
X151611789Y-96118390D01*
X151611789Y-96085563D01*
X151641879Y-96085563D01*
X151641879Y-96055473D01*
X151671970Y-96055473D01*
X151671970Y-96025382D01*
X151702958Y-96025382D01*
X151702958Y-95992556D01*
X151733049Y-95992556D01*
X151733049Y-95839751D01*
X151702958Y-95839751D01*
X151702958Y-95809831D01*
X151548872Y-95809831D01*
X151548872Y-95839751D01*
X151518781Y-95839751D01*
X151518781Y-95962465D01*
X151426671Y-95962465D01*
X151426671Y-95809276D01*
X151456762Y-95809276D01*
X151456762Y-95779185D01*
X151487750Y-95779185D01*
G37*
G36*
X151916329Y-95932374D02*
G01*
X151916329Y-95749094D01*
X152314817Y-95749094D01*
X152314817Y-95902284D01*
X152284726Y-95902284D01*
X152284726Y-95962465D01*
X152252798Y-95962465D01*
X152252798Y-96024313D01*
X152222707Y-96024313D01*
X152222707Y-96085179D01*
X152192616Y-96085179D01*
X152192616Y-96145745D01*
X152161628Y-96145745D01*
X152161628Y-96361851D01*
X152069518Y-96361851D01*
X152069518Y-96148480D01*
X152100506Y-96148480D01*
X152100506Y-96085179D01*
X152130597Y-96085179D01*
X152130597Y-96024313D01*
X152161628Y-96024313D01*
X152161628Y-95962465D01*
X152192616Y-95962465D01*
X152192616Y-95902284D01*
X152222707Y-95902284D01*
X152222707Y-95809831D01*
X152008439Y-95809831D01*
X152008439Y-95932374D01*
X151916329Y-95932374D01*
G37*
G36*
X152772547Y-95809831D02*
G01*
X152528444Y-95809831D01*
X152528444Y-95841846D01*
X152498097Y-95841846D01*
X152498097Y-95994736D01*
X152742456Y-95994736D01*
X152742456Y-96025382D01*
X152772547Y-96025382D01*
X152772547Y-96055473D01*
X152804475Y-96055473D01*
X152804475Y-96301114D01*
X152772547Y-96301114D01*
X152772547Y-96331760D01*
X152742456Y-96331760D01*
X152742456Y-96361851D01*
X152466168Y-96361851D01*
X152466168Y-96331760D01*
X152436078Y-96331760D01*
X152436078Y-96301114D01*
X152405987Y-96301114D01*
X152405987Y-96270638D01*
X152498097Y-96270638D01*
X152528444Y-96270638D01*
X152528444Y-96301114D01*
X152681078Y-96301114D01*
X152681078Y-96270638D01*
X152712365Y-96270638D01*
X152712365Y-96085905D01*
X152681078Y-96085905D01*
X152681078Y-96055473D01*
X152498097Y-96055473D01*
X152498097Y-96270638D01*
X152405987Y-96270638D01*
X152405987Y-95811456D01*
X152436078Y-95811456D01*
X152436078Y-95781921D01*
X152466168Y-95781921D01*
X152466168Y-95749094D01*
X152772547Y-95749094D01*
X152772547Y-95809831D01*
G37*
D12*
G36*
X126536680Y-106822254D02*
G01*
X126478367Y-106822254D01*
X126406551Y-106847275D01*
X126334283Y-106862528D01*
X126277965Y-106870064D01*
X126277965Y-106916959D01*
X126310511Y-106919951D01*
X126343732Y-106926484D01*
X126367919Y-106937874D01*
X126378878Y-106948279D01*
X126387186Y-106961895D01*
X126397207Y-107002195D01*
X126399781Y-107074801D01*
X126399781Y-107667028D01*
X126397774Y-107701080D01*
X126391539Y-107728506D01*
X126383463Y-107745707D01*
X126372421Y-107759314D01*
X126343756Y-107775727D01*
X126314724Y-107781334D01*
X126277965Y-107784265D01*
X126277965Y-107830000D01*
X126658496Y-107830000D01*
X126658496Y-107784265D01*
X126621676Y-107781334D01*
X126597183Y-107777078D01*
X126577197Y-107769002D01*
X126563913Y-107759206D01*
X126553420Y-107746388D01*
X126540339Y-107711243D01*
X126536680Y-107667028D01*
X126536680Y-107319227D01*
X126575546Y-107285695D01*
X126613967Y-107258049D01*
X126648499Y-107238079D01*
X126682934Y-107222883D01*
X126715175Y-107212970D01*
X126747547Y-107207199D01*
X126776892Y-107205532D01*
X126803275Y-107207486D01*
X126826343Y-107213351D01*
X126844289Y-107221986D01*
X126859541Y-107233801D01*
X126881423Y-107265757D01*
X126893498Y-107312298D01*
X126895350Y-107344994D01*
X126895350Y-107667028D01*
X126893343Y-107701080D01*
X126887110Y-107728506D01*
X126879034Y-107745711D01*
X126867995Y-107759321D01*
X126839339Y-107775733D01*
X126810354Y-107781334D01*
X126773534Y-107784265D01*
X126773534Y-107830000D01*
X127154064Y-107830000D01*
X127154064Y-107784265D01*
X127117306Y-107781334D01*
X127092791Y-107777078D01*
X127072788Y-107769002D01*
X127059498Y-107759209D01*
X127048999Y-107746395D01*
X127035913Y-107711267D01*
X127032248Y-107667028D01*
X127032248Y-107336629D01*
X127030155Y-107288797D01*
X127023320Y-107250444D01*
X127014909Y-107227481D01*
X127003237Y-107207831D01*
X126971369Y-107177391D01*
X126968440Y-107175368D01*
X126918083Y-107150601D01*
X126853311Y-107136621D01*
X126810537Y-107134396D01*
X126771806Y-107136358D01*
X126734069Y-107142280D01*
X126662606Y-107165463D01*
X126592048Y-107205067D01*
X126536680Y-107248274D01*
X126536680Y-106822254D01*
G37*
G36*
X127607316Y-107137341D02*
G01*
X127686348Y-107154728D01*
X127750139Y-107182267D01*
X127770131Y-107194985D01*
X127802283Y-107226861D01*
X127814101Y-107247217D01*
X127822643Y-107270620D01*
X127828910Y-107303998D01*
X127830922Y-107343407D01*
X127830922Y-107639795D01*
X127831825Y-107684453D01*
X127835609Y-107715501D01*
X127843318Y-107736821D01*
X127848751Y-107746594D01*
X127859361Y-107758485D01*
X127872648Y-107767239D01*
X127889042Y-107772932D01*
X127907370Y-107774862D01*
X127924028Y-107773373D01*
X127945942Y-107764721D01*
X127970629Y-107745980D01*
X127999511Y-107785425D01*
X127966669Y-107811588D01*
X127942926Y-107824422D01*
X127917495Y-107833597D01*
X127886631Y-107839730D01*
X127852782Y-107841723D01*
X127797256Y-107835592D01*
X127754912Y-107817760D01*
X127737001Y-107803845D01*
X127721529Y-107786591D01*
X127706932Y-107763182D01*
X127695062Y-107735355D01*
X127652761Y-107768997D01*
X127585899Y-107810126D01*
X127553551Y-107823724D01*
X127520661Y-107833297D01*
X127481589Y-107839693D01*
X127439767Y-107841723D01*
X127397577Y-107838813D01*
X127336675Y-107822691D01*
X127287529Y-107794867D01*
X127251689Y-107758192D01*
X127229743Y-107714874D01*
X127224127Y-107691197D01*
X127222208Y-107666174D01*
X127222208Y-107666009D01*
X127224173Y-107653595D01*
X127368937Y-107653595D01*
X127369726Y-107667197D01*
X127374311Y-107688593D01*
X127382637Y-107708319D01*
X127394539Y-107726299D01*
X127409477Y-107741765D01*
X127445921Y-107763270D01*
X127487334Y-107770648D01*
X127493401Y-107770576D01*
X127550072Y-107761887D01*
X127579801Y-107750710D01*
X127609884Y-107734582D01*
X127650234Y-107706118D01*
X127694024Y-107668311D01*
X127694024Y-107480732D01*
X127590939Y-107494434D01*
X127501147Y-107517889D01*
X127439299Y-107546502D01*
X127399413Y-107578466D01*
X127376674Y-107613618D01*
X127370881Y-107633037D01*
X127368937Y-107653595D01*
X127224173Y-107653595D01*
X127229750Y-107618361D01*
X127239441Y-107595711D01*
X127253045Y-107574372D01*
X127271961Y-107552964D01*
X127295318Y-107533116D01*
X127325957Y-107513201D01*
X127361842Y-107495225D01*
X127407250Y-107477758D01*
X127458879Y-107462719D01*
X127529573Y-107447118D01*
X127628567Y-107434631D01*
X127693471Y-107427982D01*
X127694024Y-107427915D01*
X127694024Y-107318189D01*
X127690948Y-107289631D01*
X127684488Y-107269832D01*
X127674633Y-107252117D01*
X127660924Y-107235986D01*
X127643866Y-107222328D01*
X127622188Y-107210614D01*
X127597104Y-107201965D01*
X127567007Y-107196285D01*
X127533557Y-107194357D01*
X127530158Y-107194377D01*
X127497770Y-107196649D01*
X127468339Y-107202390D01*
X127425026Y-107220354D01*
X127401516Y-107241977D01*
X127394094Y-107265005D01*
X127395498Y-107304145D01*
X127394102Y-107318238D01*
X127388665Y-107334730D01*
X127379644Y-107349303D01*
X127353588Y-107370243D01*
X127322165Y-107377479D01*
X127313038Y-107376891D01*
X127296271Y-107372627D01*
X127281320Y-107364738D01*
X127260173Y-107341592D01*
X127252983Y-107314036D01*
X127259326Y-107279571D01*
X127269751Y-107258194D01*
X127284693Y-107237771D01*
X127305913Y-107216661D01*
X127331641Y-107197287D01*
X127362932Y-107179154D01*
X127398042Y-107163616D01*
X127476922Y-107141808D01*
X127560179Y-107134396D01*
X127607316Y-107137341D01*
G37*
G36*
X128436523Y-107146120D02*
G01*
X128236304Y-107146120D01*
X128236304Y-106891374D01*
X128179213Y-106891374D01*
X128177651Y-106941955D01*
X128172029Y-106986484D01*
X128163753Y-107020446D01*
X128152258Y-107050081D01*
X128139035Y-107073255D01*
X128123074Y-107093075D01*
X128084729Y-107121969D01*
X128034624Y-107139795D01*
X127981803Y-107146181D01*
X127981803Y-107196250D01*
X128099406Y-107196250D01*
X128099406Y-107663365D01*
X128101391Y-107698364D01*
X128107468Y-107728844D01*
X128116113Y-107751682D01*
X128128042Y-107771594D01*
X128160049Y-107801979D01*
X128164741Y-107805026D01*
X128213767Y-107828188D01*
X128276080Y-107840645D01*
X128301578Y-107841723D01*
X128335732Y-107839762D01*
X128367824Y-107833852D01*
X128396381Y-107824577D01*
X128423219Y-107811687D01*
X128471506Y-107775391D01*
X128501613Y-107741461D01*
X128460886Y-107708306D01*
X128429348Y-107741363D01*
X128401347Y-107763570D01*
X128381562Y-107773968D01*
X128361725Y-107779838D01*
X128339375Y-107781823D01*
X128317922Y-107779850D01*
X128299057Y-107773857D01*
X128284253Y-107764928D01*
X128271492Y-107752566D01*
X128251767Y-107716603D01*
X128239326Y-107659027D01*
X128236304Y-107598946D01*
X128236304Y-107196250D01*
X128436523Y-107196250D01*
X128436523Y-107146120D01*
G37*
G36*
X129082240Y-107152653D02*
G01*
X129039986Y-107152653D01*
X129026369Y-107201624D01*
X128995386Y-107179661D01*
X128963359Y-107162164D01*
X128932497Y-107149912D01*
X128899878Y-107141258D01*
X128827250Y-107134396D01*
X128756695Y-107141892D01*
X128723627Y-107151098D01*
X128692907Y-107163607D01*
X128664819Y-107179184D01*
X128639717Y-107197562D01*
X128618328Y-107218034D01*
X128600406Y-107240711D01*
X128586706Y-107264398D01*
X128576759Y-107289692D01*
X128571086Y-107314622D01*
X128569146Y-107340598D01*
X128571129Y-107366999D01*
X128577195Y-107391221D01*
X128586442Y-107411546D01*
X128599367Y-107430283D01*
X128636930Y-107463522D01*
X128696065Y-107493772D01*
X128779195Y-107520055D01*
X128958408Y-107564813D01*
X128992547Y-107575700D01*
X129019351Y-107588837D01*
X129036071Y-107601447D01*
X129048151Y-107615799D01*
X129055196Y-107630358D01*
X129058668Y-107646498D01*
X129059098Y-107655183D01*
X129051591Y-107693614D01*
X129029507Y-107727585D01*
X128992560Y-107755778D01*
X128940900Y-107775139D01*
X128880495Y-107781823D01*
X128813002Y-107774231D01*
X128748183Y-107751617D01*
X128718722Y-107735208D01*
X128691741Y-107715613D01*
X128657929Y-107681866D01*
X128638249Y-107655718D01*
X128621732Y-107626033D01*
X128599005Y-107570736D01*
X128547714Y-107570736D01*
X128596074Y-107823527D01*
X128645411Y-107823527D01*
X128660432Y-107766130D01*
X128699594Y-107793304D01*
X128737485Y-107813802D01*
X128769048Y-107826099D01*
X128802042Y-107834617D01*
X128877037Y-107841678D01*
X128884647Y-107841723D01*
X128925081Y-107839804D01*
X128963477Y-107834187D01*
X128999750Y-107825028D01*
X129033433Y-107812558D01*
X129063996Y-107797144D01*
X129091495Y-107778896D01*
X129115138Y-107758546D01*
X129135373Y-107735885D01*
X129151467Y-107711962D01*
X129163933Y-107686233D01*
X129172332Y-107659795D01*
X129176936Y-107631987D01*
X129177800Y-107613234D01*
X129175835Y-107583805D01*
X129169902Y-107556964D01*
X129160855Y-107534423D01*
X129148329Y-107513946D01*
X129113276Y-107479377D01*
X129061304Y-107450861D01*
X128998525Y-107430968D01*
X128803986Y-107383463D01*
X128763861Y-107372472D01*
X128738529Y-107362580D01*
X128723034Y-107352268D01*
X128710709Y-107339458D01*
X128702068Y-107324904D01*
X128697194Y-107308801D01*
X128696214Y-107297245D01*
X128698128Y-107278915D01*
X128703710Y-107261840D01*
X128725590Y-107231640D01*
X128761804Y-107208435D01*
X128811658Y-107195663D01*
X128835676Y-107194357D01*
X128866641Y-107196290D01*
X128896586Y-107202004D01*
X128953185Y-107224536D01*
X129004106Y-107261533D01*
X129047576Y-107312608D01*
X129079370Y-107371922D01*
X129127852Y-107371922D01*
X129082240Y-107152653D01*
G37*
G36*
X129879326Y-107830000D02*
G01*
X130138040Y-107830000D01*
X130138040Y-107784204D01*
X130101282Y-107781273D01*
X130076827Y-107777049D01*
X130056868Y-107769005D01*
X130043583Y-107759229D01*
X130033085Y-107746431D01*
X130019980Y-107711322D01*
X130016285Y-107666845D01*
X130016285Y-107146120D01*
X129966460Y-107146120D01*
X129888070Y-107161482D01*
X129798866Y-107170729D01*
X129753358Y-107174269D01*
X129753358Y-107219942D01*
X129788712Y-107222934D01*
X129823793Y-107229163D01*
X129848905Y-107239935D01*
X129860148Y-107249779D01*
X129868441Y-107262582D01*
X129877644Y-107299404D01*
X129879326Y-107337362D01*
X129879326Y-107649138D01*
X129831003Y-107688136D01*
X129785305Y-107719586D01*
X129747303Y-107740944D01*
X129711060Y-107756542D01*
X129679938Y-107765646D01*
X129650051Y-107770132D01*
X129636304Y-107770648D01*
X129607324Y-107768673D01*
X129582374Y-107762659D01*
X129563977Y-107754109D01*
X129548436Y-107742361D01*
X129526468Y-107710796D01*
X129513709Y-107663724D01*
X129510886Y-107618546D01*
X129510886Y-107146120D01*
X129461060Y-107146120D01*
X129372357Y-107163279D01*
X129262353Y-107173316D01*
X129247958Y-107174269D01*
X129247958Y-107219881D01*
X129283312Y-107222873D01*
X129318392Y-107229071D01*
X129343514Y-107239816D01*
X129354773Y-107249647D01*
X129363081Y-107262438D01*
X129372300Y-107299205D01*
X129373988Y-107337117D01*
X129373988Y-107629781D01*
X129376019Y-107673011D01*
X129382424Y-107708829D01*
X129391011Y-107733411D01*
X129402935Y-107755409D01*
X129419234Y-107776693D01*
X129438222Y-107795527D01*
X129459605Y-107811105D01*
X129508929Y-107832362D01*
X129570799Y-107841465D01*
X129584525Y-107841723D01*
X129625399Y-107839698D01*
X129664442Y-107833340D01*
X129698935Y-107823545D01*
X129733580Y-107809573D01*
X129808719Y-107766311D01*
X129879326Y-107713679D01*
X129879326Y-107830000D01*
G37*
G36*
X130462456Y-107146120D02*
G01*
X130412691Y-107146120D01*
X130314777Y-107162856D01*
X130225856Y-107172286D01*
X130199528Y-107174269D01*
X130199528Y-107219942D01*
X130234883Y-107222934D01*
X130269975Y-107229164D01*
X130295102Y-107239940D01*
X130306354Y-107249786D01*
X130314657Y-107262593D01*
X130323872Y-107299413D01*
X130325558Y-107337362D01*
X130325558Y-107666845D01*
X130323551Y-107700931D01*
X130317315Y-107728393D01*
X130309238Y-107745623D01*
X130298195Y-107759254D01*
X130269551Y-107775676D01*
X130240500Y-107781273D01*
X130203742Y-107784204D01*
X130203742Y-107830000D01*
X130584211Y-107830000D01*
X130584211Y-107784204D01*
X130547452Y-107781273D01*
X130522998Y-107777049D01*
X130503039Y-107769005D01*
X130489753Y-107759229D01*
X130479256Y-107746431D01*
X130466150Y-107711322D01*
X130462456Y-107666845D01*
X130462456Y-107321364D01*
X130503192Y-107287510D01*
X130543324Y-107259464D01*
X130579754Y-107238787D01*
X130615673Y-107223070D01*
X130648729Y-107212892D01*
X130681339Y-107207061D01*
X130708286Y-107205532D01*
X130733482Y-107207477D01*
X130755752Y-107213279D01*
X130773631Y-107221993D01*
X130788935Y-107233895D01*
X130811265Y-107266252D01*
X130823553Y-107312725D01*
X130825340Y-107343590D01*
X130825340Y-107667028D01*
X130823354Y-107700228D01*
X130817268Y-107727152D01*
X130809204Y-107744641D01*
X130798224Y-107758509D01*
X130769781Y-107775402D01*
X130740282Y-107781334D01*
X130703524Y-107784265D01*
X130703524Y-107830000D01*
X131084054Y-107830000D01*
X131084054Y-107784265D01*
X131047234Y-107781334D01*
X131022741Y-107777078D01*
X131002755Y-107769002D01*
X130989472Y-107759206D01*
X130978978Y-107746388D01*
X130965897Y-107711243D01*
X130962238Y-107667028D01*
X130962238Y-107321181D01*
X130960303Y-107290585D01*
X130954573Y-107262416D01*
X130945593Y-107237716D01*
X130933311Y-107215439D01*
X130899976Y-107179078D01*
X130854523Y-107152840D01*
X130795817Y-107137528D01*
X130748892Y-107134396D01*
X130706171Y-107136387D01*
X130665762Y-107142507D01*
X130630055Y-107151989D01*
X130595302Y-107165337D01*
X130526495Y-107204483D01*
X130462456Y-107255235D01*
X130462456Y-107146120D01*
G37*
G36*
X131545991Y-107140384D02*
G01*
X131613835Y-107160493D01*
X131672149Y-107193232D01*
X131719757Y-107237161D01*
X131753719Y-107284397D01*
X131766758Y-107311608D01*
X131776240Y-107340903D01*
X131783313Y-107380042D01*
X131786130Y-107424923D01*
X131300270Y-107424923D01*
X131301160Y-107479074D01*
X131309871Y-107569258D01*
X131328175Y-107632041D01*
X131342352Y-107662675D01*
X131376330Y-107710882D01*
X131418665Y-107745386D01*
X131443614Y-107757960D01*
X131470740Y-107767072D01*
X131501664Y-107772911D01*
X131534926Y-107774862D01*
X131538806Y-107774834D01*
X131595480Y-107767109D01*
X131620936Y-107758024D01*
X131644817Y-107745323D01*
X131668617Y-107727763D01*
X131690977Y-107705890D01*
X131714720Y-107675848D01*
X131737098Y-107639979D01*
X131786863Y-107664036D01*
X131745309Y-107724780D01*
X131694912Y-107775986D01*
X131639209Y-107811620D01*
X131607758Y-107824498D01*
X131574327Y-107833731D01*
X131535652Y-107839747D01*
X131494321Y-107841723D01*
X131419412Y-107835176D01*
X131351139Y-107815128D01*
X131291491Y-107781933D01*
X131264411Y-107760058D01*
X131239453Y-107734745D01*
X131213355Y-107701272D01*
X131193522Y-107668533D01*
X131176877Y-107633292D01*
X131154138Y-107557895D01*
X131146580Y-107481709D01*
X131147567Y-107452541D01*
X131152209Y-107413047D01*
X131160503Y-107375453D01*
X131163981Y-107364961D01*
X131304849Y-107364961D01*
X131636592Y-107364961D01*
X131636369Y-107354302D01*
X131626918Y-107299380D01*
X131605070Y-107255701D01*
X131589872Y-107237948D01*
X131571972Y-107223027D01*
X131551099Y-107210883D01*
X131527692Y-107201962D01*
X131501005Y-107196285D01*
X131471912Y-107194357D01*
X131421253Y-107201003D01*
X131379124Y-107220839D01*
X131360755Y-107236194D01*
X131344722Y-107254991D01*
X131332616Y-107272733D01*
X131316418Y-107310698D01*
X131304849Y-107364961D01*
X131163981Y-107364961D01*
X131172284Y-107339916D01*
X131187385Y-107306620D01*
X131205590Y-107275804D01*
X131226765Y-107247558D01*
X131277099Y-107199647D01*
X131336847Y-107164099D01*
X131369748Y-107151318D01*
X131404562Y-107142000D01*
X131440957Y-107136323D01*
X131478934Y-107134396D01*
X131545991Y-107140384D01*
G37*
G36*
X133001971Y-107306709D02*
G01*
X133049312Y-107269764D01*
X133091504Y-107242724D01*
X133122639Y-107227605D01*
X133152543Y-107217650D01*
X133205792Y-107211149D01*
X133228932Y-107213102D01*
X133249341Y-107218957D01*
X133265644Y-107227751D01*
X133279624Y-107239817D01*
X133300511Y-107273599D01*
X133312520Y-107324358D01*
X133314480Y-107361786D01*
X133314480Y-107667028D01*
X133312472Y-107701080D01*
X133306237Y-107728506D01*
X133298161Y-107745707D01*
X133287119Y-107759314D01*
X133258454Y-107775727D01*
X133229422Y-107781334D01*
X133202433Y-107784326D01*
X133202433Y-107830000D01*
X133573133Y-107830000D01*
X133573133Y-107784265D01*
X133536374Y-107781334D01*
X133511865Y-107777079D01*
X133491873Y-107769004D01*
X133478594Y-107759214D01*
X133468107Y-107746403D01*
X133455036Y-107711274D01*
X133451378Y-107667028D01*
X133451378Y-107323989D01*
X133449443Y-107291020D01*
X133443715Y-107260823D01*
X133434824Y-107234729D01*
X133422687Y-107211386D01*
X133407972Y-107191555D01*
X133390411Y-107174498D01*
X133347508Y-107149279D01*
X133293281Y-107136031D01*
X133263189Y-107134396D01*
X133223557Y-107136415D01*
X133185821Y-107142735D01*
X133152645Y-107152456D01*
X133119627Y-107166289D01*
X133049915Y-107208531D01*
X132997941Y-107249434D01*
X132981981Y-107218869D01*
X132963714Y-107193432D01*
X132945783Y-107175441D01*
X132925529Y-107160925D01*
X132878759Y-107142143D01*
X132815958Y-107134519D01*
X132805416Y-107134396D01*
X132762123Y-107136416D01*
X132722316Y-107142743D01*
X132689479Y-107152120D01*
X132657703Y-107165362D01*
X132593893Y-107204842D01*
X132552564Y-107238443D01*
X132552564Y-107146120D01*
X132502861Y-107146120D01*
X132399758Y-107163281D01*
X132294540Y-107174271D01*
X132293850Y-107174330D01*
X132293850Y-107219942D01*
X132325052Y-107222934D01*
X132360133Y-107229163D01*
X132385245Y-107239935D01*
X132396487Y-107249779D01*
X132404781Y-107262582D01*
X132413984Y-107299404D01*
X132415666Y-107337362D01*
X132415666Y-107666845D01*
X132413659Y-107700931D01*
X132407424Y-107728393D01*
X132399346Y-107745623D01*
X132388304Y-107759254D01*
X132359659Y-107775676D01*
X132330608Y-107781273D01*
X132293850Y-107784204D01*
X132293850Y-107830000D01*
X132664549Y-107830000D01*
X132664549Y-107784265D01*
X132637622Y-107781273D01*
X132613161Y-107777048D01*
X132593192Y-107769004D01*
X132579895Y-107759224D01*
X132569386Y-107746423D01*
X132556265Y-107711315D01*
X132552564Y-107666845D01*
X132552564Y-107306038D01*
X132599620Y-107268563D01*
X132641859Y-107241220D01*
X132672050Y-107226660D01*
X132701539Y-107217082D01*
X132752233Y-107211149D01*
X132778773Y-107213123D01*
X132801529Y-107219128D01*
X132818289Y-107227693D01*
X132832361Y-107239462D01*
X132852267Y-107271711D01*
X132863351Y-107321133D01*
X132865073Y-107357634D01*
X132865073Y-107667028D01*
X132863066Y-107701080D01*
X132856830Y-107728506D01*
X132848754Y-107745707D01*
X132837713Y-107759314D01*
X132809047Y-107775727D01*
X132780015Y-107781334D01*
X132748874Y-107784326D01*
X132748874Y-107830000D01*
X133118169Y-107830000D01*
X133118169Y-107784326D01*
X133086967Y-107781334D01*
X133062474Y-107777078D01*
X133042488Y-107769002D01*
X133029205Y-107759206D01*
X133018711Y-107746388D01*
X133005630Y-107711243D01*
X133001971Y-107667028D01*
X133001971Y-107306709D01*
G37*
G36*
X133872758Y-107146120D02*
G01*
X133822993Y-107146120D01*
X133715626Y-107163835D01*
X133615448Y-107174269D01*
X133615448Y-107219942D01*
X133645245Y-107222934D01*
X133680327Y-107229163D01*
X133705438Y-107239935D01*
X133716681Y-107249779D01*
X133724975Y-107262582D01*
X133734177Y-107299404D01*
X133735860Y-107337362D01*
X133735860Y-107666845D01*
X133733852Y-107700931D01*
X133727617Y-107728393D01*
X133719540Y-107745623D01*
X133708497Y-107759254D01*
X133679853Y-107775676D01*
X133650802Y-107781273D01*
X133614043Y-107784204D01*
X133614043Y-107830000D01*
X133993169Y-107830000D01*
X133993169Y-107784265D01*
X133957754Y-107781273D01*
X133933316Y-107777048D01*
X133913363Y-107769003D01*
X133900073Y-107759221D01*
X133889569Y-107746416D01*
X133876453Y-107711292D01*
X133872758Y-107666845D01*
X133872758Y-107146120D01*
G37*
G36*
X133806385Y-106910303D02*
G01*
X133771264Y-106917584D01*
X133741756Y-106938597D01*
X133730759Y-106953429D01*
X133723144Y-106970377D01*
X133719068Y-106996277D01*
X133726373Y-107031397D01*
X133747440Y-107060793D01*
X133762338Y-107071752D01*
X133779433Y-107079384D01*
X133806385Y-107083593D01*
X133840709Y-107076289D01*
X133869830Y-107055075D01*
X133880730Y-107040039D01*
X133888300Y-107022785D01*
X133892358Y-106996277D01*
X133885077Y-106961952D01*
X133863918Y-106932719D01*
X133848950Y-106921782D01*
X133831846Y-106914230D01*
X133806385Y-106910303D01*
G37*
G36*
X134510964Y-107368503D02*
G01*
X134572575Y-107313609D01*
X134615374Y-107278513D01*
X134657254Y-107250460D01*
X134692190Y-107232169D01*
X134729198Y-107217383D01*
X134814478Y-107196209D01*
X134842096Y-107191854D01*
X134842096Y-107146120D01*
X134465779Y-107146120D01*
X134465779Y-107190572D01*
X134500252Y-107195221D01*
X134524189Y-107203314D01*
X134535209Y-107211295D01*
X134541761Y-107221321D01*
X134544181Y-107235024D01*
X134541676Y-107249003D01*
X134531953Y-107263370D01*
X134507056Y-107286803D01*
X134291878Y-107474687D01*
X134291878Y-106821338D01*
X134233565Y-106821338D01*
X134162365Y-106846214D01*
X134091041Y-106861405D01*
X134033164Y-106869209D01*
X134033164Y-106916104D01*
X134065710Y-106919035D01*
X134098940Y-106925596D01*
X134123130Y-106937008D01*
X134134089Y-106947424D01*
X134142396Y-106961049D01*
X134152412Y-107001369D01*
X134154980Y-107073885D01*
X134154980Y-107666845D01*
X134152973Y-107700931D01*
X134146738Y-107728393D01*
X134138661Y-107745623D01*
X134127618Y-107759254D01*
X134098974Y-107775676D01*
X134069923Y-107781273D01*
X134033164Y-107784204D01*
X134033164Y-107830000D01*
X134413695Y-107830000D01*
X134413695Y-107784204D01*
X134375409Y-107781273D01*
X134352677Y-107777646D01*
X134333853Y-107770170D01*
X134320750Y-107760585D01*
X134310240Y-107747897D01*
X134296462Y-107712296D01*
X134291878Y-107666845D01*
X134291878Y-107551379D01*
X134402948Y-107456613D01*
X134548700Y-107667944D01*
X134566911Y-107697581D01*
X134579205Y-107724999D01*
X134584787Y-107752391D01*
X134582829Y-107762793D01*
X134576937Y-107770810D01*
X134554679Y-107780026D01*
X134545952Y-107781273D01*
X134506385Y-107784204D01*
X134506385Y-107830000D01*
X134888258Y-107830000D01*
X134888258Y-107781578D01*
X134858323Y-107774394D01*
X134830034Y-107763396D01*
X134779066Y-107730721D01*
X134729314Y-107679551D01*
X134718510Y-107665685D01*
X134510964Y-107368503D01*
G37*
G36*
X135548691Y-107830000D02*
G01*
X135807405Y-107830000D01*
X135807405Y-107784204D01*
X135770647Y-107781273D01*
X135746192Y-107777049D01*
X135726233Y-107769005D01*
X135712948Y-107759229D01*
X135702450Y-107746431D01*
X135689345Y-107711322D01*
X135685650Y-107666845D01*
X135685650Y-107146120D01*
X135635825Y-107146120D01*
X135557435Y-107161482D01*
X135468230Y-107170729D01*
X135422723Y-107174269D01*
X135422723Y-107219942D01*
X135458077Y-107222934D01*
X135493158Y-107229163D01*
X135518270Y-107239935D01*
X135529513Y-107249779D01*
X135537806Y-107262582D01*
X135547009Y-107299404D01*
X135548691Y-107337362D01*
X135548691Y-107649138D01*
X135500368Y-107688136D01*
X135454670Y-107719586D01*
X135416668Y-107740944D01*
X135380425Y-107756542D01*
X135349302Y-107765646D01*
X135319416Y-107770132D01*
X135305669Y-107770648D01*
X135276689Y-107768673D01*
X135251739Y-107762659D01*
X135233342Y-107754109D01*
X135217801Y-107742361D01*
X135195833Y-107710796D01*
X135183074Y-107663724D01*
X135180251Y-107618546D01*
X135180251Y-107146120D01*
X135130425Y-107146120D01*
X135041722Y-107163279D01*
X134931718Y-107173316D01*
X134917323Y-107174269D01*
X134917323Y-107219881D01*
X134952677Y-107222873D01*
X134987757Y-107229071D01*
X135012879Y-107239816D01*
X135024138Y-107249647D01*
X135032446Y-107262438D01*
X135041665Y-107299205D01*
X135043353Y-107337117D01*
X135043353Y-107629781D01*
X135045384Y-107673011D01*
X135051789Y-107708829D01*
X135060376Y-107733411D01*
X135072300Y-107755409D01*
X135088599Y-107776693D01*
X135107587Y-107795527D01*
X135128970Y-107811105D01*
X135178294Y-107832362D01*
X135240164Y-107841465D01*
X135253890Y-107841723D01*
X135294764Y-107839698D01*
X135333807Y-107833340D01*
X135368300Y-107823545D01*
X135402945Y-107809573D01*
X135478084Y-107766311D01*
X135548691Y-107713679D01*
X135548691Y-107830000D01*
G37*
D10*
G36*
X156733159Y-107525938D02*
G01*
X156707367Y-107525938D01*
X156707367Y-107473035D01*
X157180526Y-107473035D01*
X157180526Y-107393314D01*
X157232586Y-107393314D01*
X157232586Y-107604340D01*
X157180526Y-107604340D01*
X157180526Y-107525938D01*
X156812879Y-107525938D01*
X156812879Y-107551437D01*
X156838672Y-107551437D01*
X156838672Y-107604340D01*
X156786611Y-107604340D01*
X156786611Y-107578291D01*
X156759867Y-107578291D01*
X156759867Y-107551437D01*
X156733159Y-107551437D01*
X156733159Y-107525938D01*
G37*
G36*
X156864464Y-95658268D02*
G01*
X156707367Y-95658268D01*
X156707367Y-95342756D01*
X156838672Y-95342756D01*
X156838672Y-95368548D01*
X156890256Y-95368548D01*
X156890256Y-95395659D01*
X156944184Y-95395659D01*
X156944184Y-95421451D01*
X156995439Y-95421451D01*
X156995439Y-95448268D01*
X157049697Y-95448268D01*
X157049697Y-95474060D01*
X157232586Y-95474060D01*
X157232586Y-95526963D01*
X157049697Y-95526963D01*
X157049697Y-95501171D01*
X156995439Y-95501171D01*
X156995439Y-95474060D01*
X156944184Y-95474060D01*
X156944184Y-95448268D01*
X156890256Y-95448268D01*
X156890256Y-95421451D01*
X156838672Y-95421451D01*
X156838672Y-95395659D01*
X156759427Y-95395659D01*
X156759427Y-95605365D01*
X156864464Y-95605365D01*
X156864464Y-95658268D01*
G37*
D13*
G36*
X145922047Y-109902078D02*
G01*
X145854545Y-109902078D01*
X145854545Y-109966100D01*
X145789148Y-109966100D01*
X145789148Y-110032229D01*
X145132624Y-110032229D01*
X145132624Y-109902078D01*
X145657624Y-109902078D01*
X145657624Y-109836041D01*
X145724668Y-109836041D01*
X145724668Y-109703967D01*
X145200126Y-109703967D01*
X145200126Y-109639487D01*
X145132624Y-109639487D01*
X145132624Y-109573816D01*
X145068144Y-109573816D01*
X145068144Y-108985435D01*
X145265522Y-108985435D01*
X145265522Y-109508878D01*
X145330552Y-109508878D01*
X145330552Y-109573816D01*
X145724668Y-109573816D01*
X145724668Y-108913811D01*
X145330552Y-108913811D01*
X145330552Y-108985435D01*
X145265522Y-108985435D01*
X145068144Y-108985435D01*
X145068144Y-108918482D01*
X145132624Y-108918482D01*
X145132624Y-108854002D01*
X145200126Y-108854002D01*
X145200126Y-108783660D01*
X145922047Y-108783660D01*
X145922047Y-109902078D01*
G37*
G36*
X146838416Y-108848689D02*
G01*
X146903812Y-108848689D01*
X146903812Y-108913811D01*
X146971314Y-108913811D01*
X146971314Y-109703967D01*
X146249394Y-109703967D01*
X146249394Y-109633625D01*
X146181891Y-109633625D01*
X146181891Y-109573816D01*
X146117411Y-109573816D01*
X146117411Y-109311682D01*
X146314790Y-109311682D01*
X146314790Y-109508786D01*
X146379819Y-109508786D01*
X146379819Y-109573816D01*
X146773936Y-109573816D01*
X146773936Y-109242073D01*
X146379819Y-109242073D01*
X146379819Y-109311682D01*
X146314790Y-109311682D01*
X146117411Y-109311682D01*
X146117411Y-109246744D01*
X146181891Y-109246744D01*
X146181891Y-109176402D01*
X146249394Y-109176402D01*
X146249394Y-109111922D01*
X146773936Y-109111922D01*
X146773936Y-108981222D01*
X146706891Y-108981222D01*
X146706891Y-108913811D01*
X146181891Y-108913811D01*
X146181891Y-108783660D01*
X146838416Y-108783660D01*
X146838416Y-108848689D01*
G37*
G36*
X147365980Y-108521068D02*
G01*
X147365980Y-108390917D01*
X147694243Y-108390917D01*
X147694243Y-109573816D01*
X147823203Y-109573816D01*
X147823203Y-109703967D01*
X147365980Y-109703967D01*
X147365980Y-109573816D01*
X147496864Y-109573816D01*
X147496864Y-108521068D01*
X147365980Y-108521068D01*
G37*
G36*
X148936950Y-108848689D02*
G01*
X149002346Y-108848689D01*
X149002346Y-108913811D01*
X149069849Y-108913811D01*
X149069849Y-109703967D01*
X148347928Y-109703967D01*
X148347928Y-109633625D01*
X148280426Y-109633625D01*
X148280426Y-109573816D01*
X148215945Y-109573816D01*
X148215945Y-109311682D01*
X148413324Y-109311682D01*
X148413324Y-109508786D01*
X148478354Y-109508786D01*
X148478354Y-109573816D01*
X148872470Y-109573816D01*
X148872470Y-109242073D01*
X148478354Y-109242073D01*
X148478354Y-109311682D01*
X148413324Y-109311682D01*
X148215945Y-109311682D01*
X148215945Y-109246744D01*
X148280426Y-109246744D01*
X148280426Y-109176402D01*
X148347928Y-109176402D01*
X148347928Y-109111922D01*
X148872470Y-109111922D01*
X148872470Y-108981222D01*
X148805426Y-108981222D01*
X148805426Y-108913811D01*
X148280426Y-108913811D01*
X148280426Y-108783660D01*
X148936950Y-108783660D01*
X148936950Y-108848689D01*
G37*
G36*
X149265213Y-108982962D02*
G01*
X149265213Y-108783660D01*
X149462591Y-108783660D01*
X149462591Y-108982962D01*
X149527072Y-108982962D01*
X149527072Y-109047442D01*
X149593475Y-109047442D01*
X149593475Y-109111922D01*
X149661894Y-109111922D01*
X149661894Y-109181073D01*
X149724359Y-109181073D01*
X149724359Y-109111922D01*
X149788839Y-109111922D01*
X149788839Y-109047442D01*
X149857257Y-109047442D01*
X149857257Y-108982962D01*
X149921737Y-108982962D01*
X149921737Y-108783660D01*
X150119116Y-108783660D01*
X150119116Y-108982962D01*
X150054636Y-108982962D01*
X150054636Y-109047442D01*
X149986218Y-109047442D01*
X149986218Y-109111922D01*
X149921737Y-109111922D01*
X149921737Y-109181073D01*
X149857257Y-109181073D01*
X149857257Y-109311224D01*
X149921737Y-109311224D01*
X149921737Y-109373506D01*
X149986218Y-109373506D01*
X149986218Y-109438536D01*
X150054636Y-109438536D01*
X150054636Y-109504665D01*
X150119116Y-109504665D01*
X150119116Y-109703967D01*
X149921737Y-109703967D01*
X149921737Y-109504665D01*
X149857257Y-109504665D01*
X149857257Y-109438536D01*
X149788839Y-109438536D01*
X149788839Y-109373506D01*
X149724359Y-109373506D01*
X149724359Y-109311224D01*
X149661894Y-109311224D01*
X149661894Y-109373506D01*
X149593475Y-109373506D01*
X149593475Y-109438536D01*
X149527072Y-109438536D01*
X149527072Y-109504665D01*
X149462591Y-109504665D01*
X149462591Y-109703967D01*
X149265213Y-109703967D01*
X149265213Y-109504665D01*
X149329693Y-109504665D01*
X149329693Y-109438536D01*
X149396096Y-109438536D01*
X149396096Y-109373506D01*
X149464515Y-109373506D01*
X149464515Y-109311224D01*
X149528995Y-109311224D01*
X149528995Y-109181073D01*
X149464515Y-109181073D01*
X149464515Y-109111922D01*
X149396096Y-109111922D01*
X149396096Y-109047442D01*
X149329693Y-109047442D01*
X149329693Y-108982962D01*
X149265213Y-108982962D01*
G37*
G36*
X150314480Y-109569145D02*
G01*
X150314480Y-108783660D01*
X150511859Y-108783660D01*
X150511859Y-109504115D01*
X150576888Y-109504115D01*
X150576888Y-109573816D01*
X150971005Y-109573816D01*
X150971005Y-108783660D01*
X151168383Y-108783660D01*
X151168383Y-109897407D01*
X151100881Y-109897407D01*
X151100881Y-109966100D01*
X151035485Y-109966100D01*
X151035485Y-110032229D01*
X150378960Y-110032229D01*
X150378960Y-109902078D01*
X150903960Y-109902078D01*
X150903960Y-109832927D01*
X150971005Y-109832927D01*
X150971005Y-109703967D01*
X150446463Y-109703967D01*
X150446463Y-109637838D01*
X150378960Y-109637838D01*
X150378960Y-109569145D01*
X150314480Y-109569145D01*
G37*
G36*
X151363747Y-109111922D02*
G01*
X151363747Y-108981771D01*
X152219574Y-108981771D01*
X152219574Y-109111922D01*
X151363747Y-109111922D01*
G37*
G36*
X152413015Y-109703967D02*
G01*
X152413015Y-108783660D01*
X153134661Y-108783660D01*
X153134661Y-108848689D01*
X153199782Y-108848689D01*
X153199782Y-108912620D01*
X153266918Y-108912620D01*
X153266918Y-109703967D01*
X153069539Y-109703967D01*
X153069539Y-108979939D01*
X153003136Y-108979939D01*
X153003136Y-108913811D01*
X152938656Y-108913811D01*
X152938656Y-109703967D01*
X152741277Y-109703967D01*
X152741277Y-108913811D01*
X152610393Y-108913811D01*
X152610393Y-109703967D01*
X152413015Y-109703967D01*
G37*
G36*
X154183287Y-108848689D02*
G01*
X154248683Y-108848689D01*
X154248683Y-108913811D01*
X154316185Y-108913811D01*
X154316185Y-109703967D01*
X153594265Y-109703967D01*
X153594265Y-109633625D01*
X153526762Y-109633625D01*
X153526762Y-109573816D01*
X153462282Y-109573816D01*
X153462282Y-109311682D01*
X153659661Y-109311682D01*
X153659661Y-109508786D01*
X153724690Y-109508786D01*
X153724690Y-109573816D01*
X154118807Y-109573816D01*
X154118807Y-109242073D01*
X153724690Y-109242073D01*
X153724690Y-109311682D01*
X153659661Y-109311682D01*
X153462282Y-109311682D01*
X153462282Y-109246744D01*
X153526762Y-109246744D01*
X153526762Y-109176402D01*
X153594265Y-109176402D01*
X153594265Y-109111922D01*
X154118807Y-109111922D01*
X154118807Y-108981222D01*
X154051762Y-108981222D01*
X154051762Y-108913811D01*
X153526762Y-108913811D01*
X153526762Y-108783660D01*
X154183287Y-108783660D01*
X154183287Y-108848689D01*
G37*
G36*
X154710851Y-108913811D02*
G01*
X154710851Y-108783660D01*
X155039114Y-108783660D01*
X155039114Y-109573816D01*
X155168074Y-109573816D01*
X155168074Y-109703967D01*
X154710851Y-109703967D01*
X154710851Y-109573816D01*
X154841735Y-109573816D01*
X154841735Y-108913811D01*
X154710851Y-108913811D01*
G37*
G36*
X154841735Y-108654699D02*
G01*
X154841735Y-108390917D01*
X155039114Y-108390917D01*
X155039114Y-108654699D01*
X154841735Y-108654699D01*
G37*
D10*
G36*
X156968108Y-99658268D02*
G01*
X156707367Y-99658268D01*
X156707367Y-99342756D01*
X156759427Y-99342756D01*
X156759427Y-99605365D01*
X156917916Y-99605365D01*
X156917916Y-99395659D01*
X156944184Y-99395659D01*
X156944184Y-99369866D01*
X156968108Y-99369866D01*
X156968108Y-99342756D01*
X157179134Y-99342756D01*
X157179134Y-99369866D01*
X157206794Y-99369866D01*
X157206794Y-99395659D01*
X157232586Y-99395659D01*
X157232586Y-99605365D01*
X157206794Y-99605365D01*
X157206794Y-99632476D01*
X157179134Y-99632476D01*
X157179134Y-99658268D01*
X157127073Y-99658268D01*
X157127073Y-99605365D01*
X157153488Y-99605365D01*
X157153488Y-99579354D01*
X157180526Y-99579354D01*
X157180526Y-99395659D01*
X156994450Y-99395659D01*
X156994450Y-99421670D01*
X156968108Y-99421670D01*
X156968108Y-99658268D01*
G37*
G36*
X157180526Y-97369866D02*
G01*
X157206794Y-97369866D01*
X157206794Y-97395659D01*
X157232586Y-97395659D01*
X157232586Y-97605365D01*
X157206794Y-97605365D01*
X157206794Y-97632476D01*
X157180526Y-97632476D01*
X157180526Y-97658268D01*
X156760819Y-97658268D01*
X156760819Y-97632476D01*
X156735503Y-97632476D01*
X156735503Y-97605365D01*
X156707367Y-97605365D01*
X156707367Y-97369866D01*
X156759427Y-97369866D01*
X156759427Y-97579354D01*
X156786868Y-97579354D01*
X156786868Y-97605365D01*
X156917916Y-97605365D01*
X156917916Y-97421670D01*
X156969976Y-97421670D01*
X156969976Y-97605365D01*
X157154404Y-97605365D01*
X157154404Y-97579354D01*
X157180526Y-97579354D01*
X157180526Y-97421670D01*
X157154404Y-97421670D01*
X157154404Y-97395659D01*
X156996062Y-97395659D01*
X156996062Y-97421670D01*
X156969976Y-97421670D01*
X156917916Y-97421670D01*
X156917916Y-97395659D01*
X156944184Y-97395659D01*
X156944184Y-97369866D01*
X156969976Y-97369866D01*
X156969976Y-97342756D01*
X157180526Y-97342756D01*
X157180526Y-97369866D01*
G37*
D14*
G36*
X172649878Y-95355265D02*
G01*
X172649878Y-95312278D01*
X172999389Y-95312278D01*
X172999389Y-95355265D01*
X173044574Y-95355265D01*
X173044574Y-95402159D01*
X173087561Y-95402159D01*
X173087561Y-95535027D01*
X172999389Y-95535027D01*
X172999389Y-95446001D01*
X172956036Y-95446001D01*
X172956036Y-95399045D01*
X172693231Y-95399045D01*
X172693231Y-95446001D01*
X172649878Y-95446001D01*
X172649878Y-95662400D01*
X172693231Y-95662400D01*
X172693231Y-95706181D01*
X172999389Y-95706181D01*
X172999389Y-95749961D01*
X173044574Y-95749961D01*
X173044574Y-95796062D01*
X173087561Y-95796062D01*
X173087561Y-96100877D01*
X173044574Y-96100877D01*
X173044574Y-96144658D01*
X172999389Y-96144658D01*
X172999389Y-96187644D01*
X172649878Y-96187644D01*
X172649878Y-96144658D01*
X172604693Y-96144658D01*
X172604693Y-96100877D01*
X172561706Y-96100877D01*
X172561706Y-95968803D01*
X172649878Y-95968803D01*
X172649878Y-96057280D01*
X172693231Y-96057280D01*
X172693231Y-96100877D01*
X172956036Y-96100877D01*
X172956036Y-96057280D01*
X172999389Y-96057280D01*
X172999389Y-95840270D01*
X172956036Y-95840270D01*
X172956036Y-95792948D01*
X172649878Y-95792948D01*
X172649878Y-95749961D01*
X172604693Y-95749961D01*
X172604693Y-95706181D01*
X172561706Y-95706181D01*
X172561706Y-95402159D01*
X172604693Y-95402159D01*
X172604693Y-95355265D01*
X172649878Y-95355265D01*
G37*
G36*
X173218231Y-96187644D02*
G01*
X173218231Y-95312278D01*
X173306402Y-95312278D01*
X173306402Y-96011789D01*
X173350244Y-96011789D01*
X173350244Y-95925816D01*
X173394086Y-95925816D01*
X173394086Y-95882829D01*
X173437072Y-95882829D01*
X173437072Y-95792948D01*
X173480059Y-95792948D01*
X173480059Y-95749656D01*
X173523046Y-95749656D01*
X173523046Y-95792948D01*
X173566033Y-95792948D01*
X173566033Y-95882829D01*
X173612927Y-95882829D01*
X173612927Y-95925816D01*
X173655914Y-95925816D01*
X173655914Y-96011789D01*
X173700610Y-96011789D01*
X173700610Y-95312278D01*
X173788782Y-95312278D01*
X173788782Y-96187644D01*
X173700610Y-96187644D01*
X173700610Y-96098557D01*
X173655914Y-96098557D01*
X173655914Y-96058684D01*
X173612927Y-96058684D01*
X173612927Y-96011789D01*
X173567742Y-96011789D01*
X173567742Y-95925816D01*
X173437072Y-95925816D01*
X173437072Y-96011789D01*
X173394086Y-96011789D01*
X173394086Y-96058684D01*
X173350244Y-96058684D01*
X173350244Y-96098557D01*
X173306402Y-96098557D01*
X173306402Y-96187644D01*
X173218231Y-96187644D01*
G37*
G36*
X174181280Y-95355265D02*
G01*
X174181280Y-95312278D01*
X174269452Y-95312278D01*
X174269452Y-96100877D01*
X174402320Y-96100877D01*
X174402320Y-96187644D01*
X174050610Y-96187644D01*
X174050610Y-96100877D01*
X174181280Y-96100877D01*
X174181280Y-95488133D01*
X174138782Y-95488133D01*
X174138782Y-95531120D01*
X174050610Y-95531120D01*
X174050610Y-95444352D01*
X174094025Y-95444352D01*
X174094025Y-95399778D01*
X174138782Y-95399778D01*
X174138782Y-95355265D01*
X174181280Y-95355265D01*
G37*
G36*
X126735534Y-92345265D02*
G01*
X126735534Y-92302278D01*
X127085045Y-92302278D01*
X127085045Y-92345265D01*
X127128032Y-92345265D01*
X127128032Y-92388251D01*
X127173217Y-92388251D01*
X127173217Y-92521120D01*
X127085045Y-92521120D01*
X127085045Y-92432093D01*
X127041692Y-92432093D01*
X127041692Y-92389045D01*
X126778887Y-92389045D01*
X126778887Y-92432093D01*
X126735534Y-92432093D01*
X126735534Y-93047280D01*
X126778887Y-93047280D01*
X126778887Y-93090877D01*
X127041692Y-93090877D01*
X127041692Y-93047280D01*
X127085045Y-93047280D01*
X127085045Y-92958803D01*
X127173217Y-92958803D01*
X127173217Y-93090877D01*
X127128032Y-93090877D01*
X127128032Y-93130750D01*
X127085045Y-93130750D01*
X127085045Y-93177644D01*
X126735534Y-93177644D01*
X126735534Y-93130750D01*
X126690349Y-93130750D01*
X126690349Y-93090877D01*
X126647362Y-93090877D01*
X126647362Y-92388251D01*
X126690349Y-92388251D01*
X126690349Y-92345265D01*
X126735534Y-92345265D01*
G37*
G36*
X127435045Y-92345265D02*
G01*
X127435045Y-92302278D01*
X127784557Y-92302278D01*
X127784557Y-92345265D01*
X127827543Y-92345265D01*
X127827543Y-92392159D01*
X127872728Y-92392159D01*
X127872728Y-92696974D01*
X127827543Y-92696974D01*
X127827543Y-92739961D01*
X127784557Y-92739961D01*
X127784557Y-92782948D01*
X127741570Y-92782948D01*
X127741570Y-92829842D01*
X127694675Y-92829842D01*
X127694675Y-92872829D01*
X127651689Y-92872829D01*
X127651689Y-92915816D01*
X127608702Y-92915816D01*
X127608702Y-92957337D01*
X127565715Y-92957337D01*
X127565715Y-93000690D01*
X127522728Y-93000690D01*
X127522728Y-93045448D01*
X127479742Y-93045448D01*
X127479742Y-93090877D01*
X127872728Y-93090877D01*
X127872728Y-93177644D01*
X127346873Y-93177644D01*
X127346873Y-93045448D01*
X127389860Y-93045448D01*
X127389860Y-93000690D01*
X127435045Y-93000690D01*
X127435045Y-92957337D01*
X127479742Y-92957337D01*
X127479742Y-92915816D01*
X127522728Y-92915816D01*
X127522728Y-92872829D01*
X127565715Y-92872829D01*
X127565715Y-92829842D01*
X127608702Y-92829842D01*
X127608702Y-92782948D01*
X127651689Y-92782948D01*
X127651689Y-92739961D01*
X127694675Y-92739961D01*
X127694675Y-92696974D01*
X127741570Y-92696974D01*
X127741570Y-92650080D01*
X127784557Y-92650080D01*
X127784557Y-92435696D01*
X127741570Y-92435696D01*
X127741570Y-92389045D01*
X127479742Y-92389045D01*
X127479742Y-92435696D01*
X127435045Y-92435696D01*
X127435045Y-92611001D01*
X127346873Y-92611001D01*
X127346873Y-92392159D01*
X127389860Y-92392159D01*
X127389860Y-92345265D01*
X127435045Y-92345265D01*
G37*
G36*
X124985534Y-92944765D02*
G01*
X124985534Y-92901778D01*
X125335045Y-92901778D01*
X125335045Y-92944765D01*
X125378032Y-92944765D01*
X125378032Y-92987751D01*
X125423217Y-92987751D01*
X125423217Y-93120620D01*
X125335045Y-93120620D01*
X125335045Y-93031593D01*
X125291692Y-93031593D01*
X125291692Y-92988545D01*
X125028887Y-92988545D01*
X125028887Y-93031593D01*
X124985534Y-93031593D01*
X124985534Y-93646780D01*
X125028887Y-93646780D01*
X125028887Y-93690377D01*
X125291692Y-93690377D01*
X125291692Y-93646780D01*
X125335045Y-93646780D01*
X125335045Y-93558303D01*
X125423217Y-93558303D01*
X125423217Y-93690377D01*
X125378032Y-93690377D01*
X125378032Y-93730250D01*
X125335045Y-93730250D01*
X125335045Y-93777144D01*
X124985534Y-93777144D01*
X124985534Y-93730250D01*
X124940349Y-93730250D01*
X124940349Y-93690377D01*
X124897362Y-93690377D01*
X124897362Y-92987751D01*
X124940349Y-92987751D01*
X124940349Y-92944765D01*
X124985534Y-92944765D01*
G37*
G36*
X125596873Y-93336347D02*
G01*
X125596873Y-92901778D01*
X126122728Y-92901778D01*
X126122728Y-92988545D01*
X125685045Y-92988545D01*
X125685045Y-93252694D01*
X126034557Y-93252694D01*
X126034557Y-93296474D01*
X126077543Y-93296474D01*
X126077543Y-93336347D01*
X126122728Y-93336347D01*
X126122728Y-93688057D01*
X126077543Y-93688057D01*
X126077543Y-93734158D01*
X126034557Y-93734158D01*
X126034557Y-93777144D01*
X125685045Y-93777144D01*
X125685045Y-93734158D01*
X125639860Y-93734158D01*
X125639860Y-93688057D01*
X125596873Y-93688057D01*
X125596873Y-93601289D01*
X125685045Y-93601289D01*
X125685045Y-93645314D01*
X125728398Y-93645314D01*
X125728398Y-93690377D01*
X126034557Y-93690377D01*
X126034557Y-93380250D01*
X125991204Y-93380250D01*
X125991204Y-93336347D01*
X125596873Y-93336347D01*
G37*
G36*
X176620545Y-96695265D02*
G01*
X176663532Y-96695265D01*
X176663532Y-96738251D01*
X176708717Y-96738251D01*
X176708717Y-97089961D01*
X176663532Y-97089961D01*
X176663532Y-97132948D01*
X176620545Y-97132948D01*
X176620545Y-97176728D01*
X176444690Y-97176728D01*
X176444690Y-97222829D01*
X176487677Y-97222829D01*
X176487677Y-97265816D01*
X176530664Y-97265816D01*
X176530664Y-97308803D01*
X176577558Y-97308803D01*
X176577558Y-97351789D01*
X176620545Y-97351789D01*
X176620545Y-97395448D01*
X176663532Y-97395448D01*
X176663532Y-97440877D01*
X176708717Y-97440877D01*
X176708717Y-97527644D01*
X176620545Y-97527644D01*
X176620545Y-97484658D01*
X176577558Y-97484658D01*
X176577558Y-97440877D01*
X176530664Y-97440877D01*
X176530664Y-97395448D01*
X176487677Y-97395448D01*
X176487677Y-97351789D01*
X176444690Y-97351789D01*
X176444690Y-97308803D01*
X176401704Y-97308803D01*
X176401704Y-97265816D01*
X176358717Y-97265816D01*
X176358717Y-97222829D01*
X176311822Y-97222829D01*
X176311822Y-97176728D01*
X176271034Y-97176728D01*
X176271034Y-97527644D01*
X176182862Y-97527644D01*
X176182862Y-97089961D01*
X176271034Y-97089961D01*
X176577558Y-97089961D01*
X176577558Y-97046303D01*
X176620545Y-97046303D01*
X176620545Y-96781910D01*
X176577558Y-96781910D01*
X176577558Y-96739045D01*
X176271034Y-96739045D01*
X176271034Y-97089961D01*
X176182862Y-97089961D01*
X176182862Y-96652278D01*
X176620545Y-96652278D01*
X176620545Y-96695265D01*
G37*
G36*
X177102925Y-96695265D02*
G01*
X177102925Y-96652278D01*
X177191096Y-96652278D01*
X177191096Y-97440877D01*
X177323965Y-97440877D01*
X177323965Y-97527644D01*
X176972255Y-97527644D01*
X176972255Y-97440877D01*
X177102925Y-97440877D01*
X177102925Y-96828133D01*
X177060427Y-96828133D01*
X177060427Y-96871120D01*
X176972255Y-96871120D01*
X176972255Y-96784352D01*
X177015669Y-96784352D01*
X177015669Y-96739778D01*
X177060427Y-96739778D01*
X177060427Y-96695265D01*
X177102925Y-96695265D01*
G37*
G36*
X141074145Y-94255265D02*
G01*
X141117132Y-94255265D01*
X141117132Y-94298251D01*
X141162317Y-94298251D01*
X141162317Y-94649961D01*
X141117132Y-94649961D01*
X141117132Y-94692948D01*
X141074145Y-94692948D01*
X141074145Y-94736728D01*
X140898290Y-94736728D01*
X140898290Y-94782829D01*
X140941277Y-94782829D01*
X140941277Y-94825816D01*
X140984264Y-94825816D01*
X140984264Y-94868803D01*
X141031158Y-94868803D01*
X141031158Y-94911789D01*
X141074145Y-94911789D01*
X141074145Y-94955448D01*
X141117132Y-94955448D01*
X141117132Y-95000877D01*
X141162317Y-95000877D01*
X141162317Y-95087644D01*
X141074145Y-95087644D01*
X141074145Y-95044658D01*
X141031158Y-95044658D01*
X141031158Y-95000877D01*
X140984264Y-95000877D01*
X140984264Y-94955448D01*
X140941277Y-94955448D01*
X140941277Y-94911789D01*
X140898290Y-94911789D01*
X140898290Y-94868803D01*
X140855304Y-94868803D01*
X140855304Y-94825816D01*
X140812317Y-94825816D01*
X140812317Y-94782829D01*
X140765422Y-94782829D01*
X140765422Y-94736728D01*
X140724634Y-94736728D01*
X140724634Y-95087644D01*
X140636462Y-95087644D01*
X140636462Y-94649961D01*
X140724634Y-94649961D01*
X141031158Y-94649961D01*
X141031158Y-94606303D01*
X141074145Y-94606303D01*
X141074145Y-94341910D01*
X141031158Y-94341910D01*
X141031158Y-94299045D01*
X140724634Y-94299045D01*
X140724634Y-94649961D01*
X140636462Y-94649961D01*
X140636462Y-94212278D01*
X141074145Y-94212278D01*
X141074145Y-94255265D01*
G37*
G36*
X141424145Y-94255265D02*
G01*
X141424145Y-94212278D01*
X141773657Y-94212278D01*
X141773657Y-94255265D01*
X141816643Y-94255265D01*
X141816643Y-94302159D01*
X141861828Y-94302159D01*
X141861828Y-94606181D01*
X141816643Y-94606181D01*
X141816643Y-94696062D01*
X141861828Y-94696062D01*
X141861828Y-95000877D01*
X141816643Y-95000877D01*
X141816643Y-95040750D01*
X141773657Y-95040750D01*
X141773657Y-95087644D01*
X141424145Y-95087644D01*
X141424145Y-95040750D01*
X141378960Y-95040750D01*
X141378960Y-95000877D01*
X141335973Y-95000877D01*
X141335973Y-94868803D01*
X141424145Y-94868803D01*
X141424145Y-94957280D01*
X141468414Y-94957280D01*
X141468414Y-95000877D01*
X141730426Y-95000877D01*
X141730426Y-94957280D01*
X141773657Y-94957280D01*
X141773657Y-94735935D01*
X141730426Y-94735935D01*
X141730426Y-94692948D01*
X141468414Y-94692948D01*
X141468414Y-94606181D01*
X141730426Y-94606181D01*
X141730426Y-94560080D01*
X141773657Y-94560080D01*
X141773657Y-94346001D01*
X141730426Y-94346001D01*
X141730426Y-94299045D01*
X141468414Y-94299045D01*
X141468414Y-94346001D01*
X141424145Y-94346001D01*
X141424145Y-94435027D01*
X141335973Y-94435027D01*
X141335973Y-94302159D01*
X141378960Y-94302159D01*
X141378960Y-94255265D01*
X141424145Y-94255265D01*
G37*
G36*
X122891834Y-93655265D02*
G01*
X122891834Y-93612278D01*
X123241345Y-93612278D01*
X123241345Y-93655265D01*
X123284332Y-93655265D01*
X123284332Y-93698251D01*
X123329517Y-93698251D01*
X123329517Y-93831120D01*
X123241345Y-93831120D01*
X123241345Y-93742093D01*
X123197992Y-93742093D01*
X123197992Y-93699045D01*
X122935187Y-93699045D01*
X122935187Y-93742093D01*
X122891834Y-93742093D01*
X122891834Y-94357280D01*
X122935187Y-94357280D01*
X122935187Y-94400877D01*
X123197992Y-94400877D01*
X123197992Y-94357280D01*
X123241345Y-94357280D01*
X123241345Y-94268803D01*
X123329517Y-94268803D01*
X123329517Y-94400877D01*
X123284332Y-94400877D01*
X123284332Y-94440750D01*
X123241345Y-94440750D01*
X123241345Y-94487644D01*
X122891834Y-94487644D01*
X122891834Y-94440750D01*
X122846649Y-94440750D01*
X122846649Y-94400877D01*
X122803662Y-94400877D01*
X122803662Y-93698251D01*
X122846649Y-93698251D01*
X122846649Y-93655265D01*
X122891834Y-93655265D01*
G37*
G36*
X124029028Y-94487644D02*
G01*
X123940857Y-94487644D01*
X123940857Y-94268803D01*
X123503173Y-94268803D01*
X123503173Y-94092948D01*
X123591345Y-94092948D01*
X123591345Y-94182035D01*
X123940857Y-94182035D01*
X123940857Y-93788133D01*
X123897870Y-93788133D01*
X123897870Y-93831120D01*
X123850975Y-93831120D01*
X123850975Y-93874106D01*
X123807989Y-93874106D01*
X123807989Y-93917093D01*
X123765002Y-93917093D01*
X123765002Y-93960080D01*
X123722015Y-93960080D01*
X123722015Y-94006974D01*
X123679028Y-94006974D01*
X123679028Y-94049045D01*
X123635614Y-94049045D01*
X123635614Y-94092948D01*
X123591345Y-94092948D01*
X123503173Y-94092948D01*
X123503173Y-94049045D01*
X123546160Y-94049045D01*
X123546160Y-94006974D01*
X123591345Y-94006974D01*
X123591345Y-93960080D01*
X123635614Y-93960080D01*
X123635614Y-93917093D01*
X123679028Y-93917093D01*
X123679028Y-93874106D01*
X123722015Y-93874106D01*
X123722015Y-93831120D01*
X123765002Y-93831120D01*
X123765002Y-93788133D01*
X123807989Y-93788133D01*
X123807989Y-93741238D01*
X123850975Y-93741238D01*
X123850975Y-93698251D01*
X123897870Y-93698251D01*
X123897870Y-93655265D01*
X123940857Y-93655265D01*
X123940857Y-93612278D01*
X124029028Y-93612278D01*
X124029028Y-94487644D01*
G37*
G36*
X148686951Y-94951671D02*
G01*
X148686951Y-94162278D01*
X148775123Y-94162278D01*
X148775123Y-94908196D01*
X148818476Y-94908196D01*
X148818476Y-94950877D01*
X149081281Y-94950877D01*
X149081281Y-94908196D01*
X149124634Y-94908196D01*
X149124634Y-94162278D01*
X149212806Y-94162278D01*
X149212806Y-94951671D01*
X149167621Y-94951671D01*
X149167621Y-94993558D01*
X149124634Y-94993558D01*
X149124634Y-95037644D01*
X148775123Y-95037644D01*
X148775123Y-94993558D01*
X148729938Y-94993558D01*
X148729938Y-94951671D01*
X148686951Y-94951671D01*
G37*
G36*
X149474634Y-94205265D02*
G01*
X149474634Y-94162278D01*
X149824146Y-94162278D01*
X149824146Y-94205265D01*
X149869331Y-94205265D01*
X149869331Y-94252159D01*
X149912317Y-94252159D01*
X149912317Y-94385027D01*
X149824146Y-94385027D01*
X149824146Y-94296001D01*
X149780793Y-94296001D01*
X149780793Y-94249045D01*
X149517987Y-94249045D01*
X149517987Y-94296001D01*
X149474634Y-94296001D01*
X149474634Y-94512400D01*
X149517987Y-94512400D01*
X149517987Y-94556181D01*
X149824146Y-94556181D01*
X149824146Y-94599961D01*
X149869331Y-94599961D01*
X149869331Y-94646062D01*
X149912317Y-94646062D01*
X149912317Y-94950877D01*
X149869331Y-94950877D01*
X149869331Y-94994658D01*
X149824146Y-94994658D01*
X149824146Y-95037644D01*
X149474634Y-95037644D01*
X149474634Y-94994658D01*
X149429449Y-94994658D01*
X149429449Y-94950877D01*
X149386462Y-94950877D01*
X149386462Y-94818803D01*
X149474634Y-94818803D01*
X149474634Y-94907280D01*
X149517987Y-94907280D01*
X149517987Y-94950877D01*
X149780793Y-94950877D01*
X149780793Y-94907280D01*
X149824146Y-94907280D01*
X149824146Y-94690270D01*
X149780793Y-94690270D01*
X149780793Y-94642948D01*
X149474634Y-94642948D01*
X149474634Y-94599961D01*
X149429449Y-94599961D01*
X149429449Y-94556181D01*
X149386462Y-94556181D01*
X149386462Y-94252159D01*
X149429449Y-94252159D01*
X149429449Y-94205265D01*
X149474634Y-94205265D01*
G37*
G36*
X150525001Y-94205265D02*
G01*
X150566644Y-94205265D01*
X150566644Y-94248251D01*
X150611829Y-94248251D01*
X150611829Y-94467093D01*
X150566644Y-94467093D01*
X150566644Y-94510080D01*
X150525001Y-94510080D01*
X150525001Y-94599961D01*
X150566644Y-94599961D01*
X150566644Y-94642948D01*
X150611829Y-94642948D01*
X150611829Y-94947763D01*
X150566644Y-94947763D01*
X150566644Y-94994658D01*
X150525001Y-94994658D01*
X150525001Y-95037644D01*
X150085974Y-95037644D01*
X150085974Y-94950877D01*
X150174146Y-94950877D01*
X150478472Y-94950877D01*
X150478472Y-94904349D01*
X150525001Y-94904349D01*
X150525001Y-94685935D01*
X150478472Y-94685935D01*
X150478472Y-94642948D01*
X150433776Y-94642948D01*
X150433776Y-94599961D01*
X150174146Y-94599961D01*
X150174146Y-94950877D01*
X150085974Y-94950877D01*
X150085974Y-94513194D01*
X150174146Y-94513194D01*
X150478472Y-94513194D01*
X150478472Y-94467093D01*
X150525001Y-94467093D01*
X150525001Y-94291788D01*
X150478472Y-94291788D01*
X150478472Y-94249045D01*
X150174146Y-94249045D01*
X150174146Y-94513194D01*
X150085974Y-94513194D01*
X150085974Y-94162278D01*
X150525001Y-94162278D01*
X150525001Y-94205265D01*
G37*
G36*
X151006037Y-94205265D02*
G01*
X151006037Y-94162278D01*
X151094208Y-94162278D01*
X151094208Y-94950877D01*
X151227077Y-94950877D01*
X151227077Y-95037644D01*
X150875367Y-95037644D01*
X150875367Y-94950877D01*
X151006037Y-94950877D01*
X151006037Y-94338133D01*
X150963539Y-94338133D01*
X150963539Y-94381120D01*
X150875367Y-94381120D01*
X150875367Y-94294352D01*
X150918781Y-94294352D01*
X150918781Y-94249778D01*
X150963539Y-94249778D01*
X150963539Y-94205265D01*
X151006037Y-94205265D01*
G37*
G36*
X134419965Y-100405890D02*
G01*
X134466127Y-100410103D01*
X134496709Y-100415868D01*
X134519811Y-100426269D01*
X134531487Y-100436552D01*
X134540582Y-100450107D01*
X134552306Y-100489896D01*
X134557168Y-100564403D01*
X134557168Y-100936019D01*
X134554961Y-101029830D01*
X134547328Y-101097512D01*
X134539265Y-101129459D01*
X134528212Y-101156097D01*
X134505328Y-101189848D01*
X134466852Y-101222849D01*
X134412584Y-101248474D01*
X134341039Y-101264500D01*
X134277144Y-101268372D01*
X134232801Y-101266435D01*
X134191998Y-101260689D01*
X134156871Y-101251837D01*
X134125334Y-101239750D01*
X134099220Y-101225561D01*
X134076608Y-101208675D01*
X134058642Y-101190342D01*
X134044081Y-101169730D01*
X134041938Y-101165973D01*
X134029348Y-101138360D01*
X134020043Y-101106460D01*
X134010236Y-101024969D01*
X134008355Y-100938827D01*
X134008355Y-100564403D01*
X134011340Y-100504181D01*
X134019897Y-100461970D01*
X134028047Y-100444628D01*
X134039014Y-100431482D01*
X134067156Y-100416356D01*
X134099335Y-100410103D01*
X134151176Y-100405890D01*
X134151176Y-100362475D01*
X133742374Y-100362475D01*
X133742374Y-100405890D01*
X133777362Y-100410103D01*
X133807921Y-100415869D01*
X133831006Y-100426270D01*
X133842676Y-100436556D01*
X133851766Y-100450113D01*
X133863486Y-100489922D01*
X133868343Y-100564403D01*
X133868343Y-101034204D01*
X133870373Y-101081254D01*
X133876767Y-101122519D01*
X133885607Y-101152686D01*
X133897954Y-101179991D01*
X133931435Y-101225103D01*
X133982196Y-101266504D01*
X133991563Y-101272585D01*
X134024941Y-101291576D01*
X134060205Y-101306898D01*
X134136523Y-101326880D01*
X134233147Y-101335288D01*
X134256139Y-101335539D01*
X134322346Y-101333542D01*
X134380867Y-101327376D01*
X134424984Y-101318684D01*
X134464467Y-101306647D01*
X134496616Y-101292702D01*
X134525598Y-101275754D01*
X134573767Y-101234059D01*
X134578173Y-101229110D01*
X134596757Y-101204938D01*
X134611539Y-101178648D01*
X134629720Y-101121164D01*
X134636882Y-101043231D01*
X134636975Y-101031396D01*
X134636975Y-100564403D01*
X134639924Y-100504297D01*
X134648436Y-100462128D01*
X134656572Y-100444744D01*
X134667526Y-100431564D01*
X134695627Y-100416401D01*
X134727955Y-100410103D01*
X134762943Y-100405890D01*
X134762943Y-100362475D01*
X134419965Y-100362475D01*
X134419965Y-100405890D01*
G37*
G36*
X135329220Y-100362475D02*
G01*
X135284402Y-100362475D01*
X135172607Y-100385762D01*
X135024039Y-100405890D01*
X135024039Y-100447899D01*
X135080031Y-100450708D01*
X135125813Y-100454335D01*
X135158196Y-100463767D01*
X135171326Y-100472513D01*
X135181245Y-100484258D01*
X135192675Y-100516830D01*
X135196230Y-100582294D01*
X135196230Y-101118590D01*
X135193185Y-101196931D01*
X135188152Y-101216136D01*
X135179687Y-101228917D01*
X135178034Y-101230637D01*
X135145754Y-101252445D01*
X135094650Y-101268197D01*
X135068857Y-101271242D01*
X135022634Y-101274051D01*
X135022634Y-101316000D01*
X135500007Y-101316000D01*
X135500007Y-101274051D01*
X135455249Y-101271242D01*
X135410900Y-101266638D01*
X135377819Y-101257076D01*
X135362308Y-101247884D01*
X135350236Y-101235700D01*
X135335743Y-101203676D01*
X135329392Y-101148684D01*
X135329220Y-101121399D01*
X135329220Y-100362475D01*
G37*
G36*
X131207569Y-104774265D02*
G01*
X131207569Y-104731278D01*
X131295741Y-104731278D01*
X131295741Y-105519877D01*
X131428609Y-105519877D01*
X131428609Y-105606644D01*
X131076899Y-105606644D01*
X131076899Y-105519877D01*
X131207569Y-105519877D01*
X131207569Y-104907133D01*
X131165071Y-104907133D01*
X131165071Y-104950120D01*
X131076899Y-104950120D01*
X131076899Y-104863352D01*
X131120314Y-104863352D01*
X131120314Y-104818778D01*
X131165071Y-104818778D01*
X131165071Y-104774265D01*
X131207569Y-104774265D01*
G37*
G36*
X138350813Y-96265265D02*
G01*
X138350813Y-96222278D01*
X138438985Y-96222278D01*
X138438985Y-97010877D01*
X138571853Y-97010877D01*
X138571853Y-97097644D01*
X138220143Y-97097644D01*
X138220143Y-97010877D01*
X138350813Y-97010877D01*
X138350813Y-96398133D01*
X138308315Y-96398133D01*
X138308315Y-96441120D01*
X138220143Y-96441120D01*
X138220143Y-96354352D01*
X138263558Y-96354352D01*
X138263558Y-96309778D01*
X138308315Y-96309778D01*
X138308315Y-96265265D01*
X138350813Y-96265265D01*
G37*
G36*
X139267457Y-96265265D02*
G01*
X139310443Y-96265265D01*
X139310443Y-96312159D01*
X139355628Y-96312159D01*
X139355628Y-96616181D01*
X139310443Y-96616181D01*
X139310443Y-96702948D01*
X139355628Y-96702948D01*
X139355628Y-97007763D01*
X139310443Y-97007763D01*
X139310443Y-97050750D01*
X139267457Y-97050750D01*
X139267457Y-97097644D01*
X138917945Y-97097644D01*
X138917945Y-97050750D01*
X138872760Y-97050750D01*
X138872760Y-97007763D01*
X138829773Y-97007763D01*
X138829773Y-96745935D01*
X138917945Y-96745935D01*
X138917945Y-96964349D01*
X138961298Y-96964349D01*
X138961298Y-97010877D01*
X139224104Y-97010877D01*
X139224104Y-96964349D01*
X139267457Y-96964349D01*
X139267457Y-96745935D01*
X139224104Y-96745935D01*
X139224104Y-96702948D01*
X138961298Y-96702948D01*
X138961298Y-96745935D01*
X138917945Y-96745935D01*
X138829773Y-96745935D01*
X138829773Y-96702948D01*
X138872760Y-96702948D01*
X138872760Y-96616181D01*
X138829773Y-96616181D01*
X138829773Y-96354963D01*
X138917945Y-96354963D01*
X138917945Y-96570080D01*
X138961298Y-96570080D01*
X138961298Y-96616181D01*
X139224104Y-96616181D01*
X139224104Y-96570080D01*
X139267457Y-96570080D01*
X139267457Y-96354963D01*
X139224104Y-96354963D01*
X139224104Y-96309045D01*
X138961298Y-96309045D01*
X138961298Y-96354963D01*
X138917945Y-96354963D01*
X138829773Y-96354963D01*
X138829773Y-96312159D01*
X138872760Y-96312159D01*
X138872760Y-96265265D01*
X138917945Y-96265265D01*
X138917945Y-96222278D01*
X139267457Y-96222278D01*
X139267457Y-96265265D01*
G37*
G36*
X130090434Y-96265265D02*
G01*
X130090434Y-96222278D01*
X130439945Y-96222278D01*
X130439945Y-96265265D01*
X130482932Y-96265265D01*
X130482932Y-96312159D01*
X130528117Y-96312159D01*
X130528117Y-96616974D01*
X130482932Y-96616974D01*
X130482932Y-96659961D01*
X130439945Y-96659961D01*
X130439945Y-96702948D01*
X130396958Y-96702948D01*
X130396958Y-96749842D01*
X130350064Y-96749842D01*
X130350064Y-96792829D01*
X130307077Y-96792829D01*
X130307077Y-96835816D01*
X130264090Y-96835816D01*
X130264090Y-96877337D01*
X130221104Y-96877337D01*
X130221104Y-96920690D01*
X130178117Y-96920690D01*
X130178117Y-96965448D01*
X130135130Y-96965448D01*
X130135130Y-97010877D01*
X130528117Y-97010877D01*
X130528117Y-97097644D01*
X130002262Y-97097644D01*
X130002262Y-96965448D01*
X130045249Y-96965448D01*
X130045249Y-96920690D01*
X130090434Y-96920690D01*
X130090434Y-96877337D01*
X130135130Y-96877337D01*
X130135130Y-96835816D01*
X130178117Y-96835816D01*
X130178117Y-96792829D01*
X130221104Y-96792829D01*
X130221104Y-96749842D01*
X130264090Y-96749842D01*
X130264090Y-96702948D01*
X130307077Y-96702948D01*
X130307077Y-96659961D01*
X130350064Y-96659961D01*
X130350064Y-96616974D01*
X130396958Y-96616974D01*
X130396958Y-96570080D01*
X130439945Y-96570080D01*
X130439945Y-96355696D01*
X130396958Y-96355696D01*
X130396958Y-96309045D01*
X130135130Y-96309045D01*
X130135130Y-96355696D01*
X130090434Y-96355696D01*
X130090434Y-96531001D01*
X130002262Y-96531001D01*
X130002262Y-96312159D01*
X130045249Y-96312159D01*
X130045249Y-96265265D01*
X130090434Y-96265265D01*
G37*
G36*
X130701773Y-96484106D02*
G01*
X130701773Y-96222278D01*
X131227628Y-96222278D01*
X131227628Y-96441120D01*
X131184642Y-96441120D01*
X131184642Y-96527093D01*
X131139457Y-96527093D01*
X131139457Y-96616974D01*
X131096470Y-96616974D01*
X131096470Y-96702398D01*
X131051773Y-96702398D01*
X131051773Y-96792829D01*
X131008787Y-96792829D01*
X131008787Y-97097644D01*
X130920615Y-97097644D01*
X130920615Y-96792829D01*
X130963602Y-96792829D01*
X130963602Y-96702398D01*
X131008787Y-96702398D01*
X131008787Y-96616974D01*
X131051773Y-96616974D01*
X131051773Y-96527093D01*
X131096470Y-96527093D01*
X131096470Y-96441120D01*
X131139457Y-96441120D01*
X131139457Y-96309045D01*
X130789945Y-96309045D01*
X130789945Y-96484106D01*
X130701773Y-96484106D01*
G37*
G36*
X139298701Y-104774265D02*
G01*
X139341688Y-104774265D01*
X139341688Y-104817251D01*
X139386873Y-104817251D01*
X139386873Y-105516763D01*
X139341688Y-105516763D01*
X139341688Y-105559750D01*
X139298701Y-105559750D01*
X139298701Y-105606644D01*
X138904005Y-105606644D01*
X138904005Y-105519877D01*
X139255348Y-105519877D01*
X139255348Y-105473471D01*
X139298701Y-105473471D01*
X139298701Y-105255728D01*
X138949190Y-105255728D01*
X138949190Y-105211948D01*
X138904005Y-105211948D01*
X138904005Y-105168961D01*
X138861018Y-105168961D01*
X138861018Y-104860910D01*
X138949190Y-104860910D01*
X138949190Y-105125303D01*
X138992543Y-105125303D01*
X138992543Y-105168961D01*
X139298701Y-105168961D01*
X139298701Y-104860910D01*
X139255348Y-104860910D01*
X139255348Y-104818045D01*
X138992543Y-104818045D01*
X138992543Y-104860910D01*
X138949190Y-104860910D01*
X138861018Y-104860910D01*
X138861018Y-104817251D01*
X138904005Y-104817251D01*
X138904005Y-104774265D01*
X138949190Y-104774265D01*
X138949190Y-104731278D01*
X139298701Y-104731278D01*
X139298701Y-104774265D01*
G37*
G36*
X143066645Y-92695265D02*
G01*
X143109632Y-92695265D01*
X143109632Y-92738251D01*
X143154817Y-92738251D01*
X143154817Y-93089961D01*
X143109632Y-93089961D01*
X143109632Y-93132948D01*
X143066645Y-93132948D01*
X143066645Y-93176728D01*
X142890790Y-93176728D01*
X142890790Y-93222829D01*
X142933777Y-93222829D01*
X142933777Y-93265816D01*
X142976764Y-93265816D01*
X142976764Y-93308803D01*
X143023658Y-93308803D01*
X143023658Y-93351789D01*
X143066645Y-93351789D01*
X143066645Y-93395448D01*
X143109632Y-93395448D01*
X143109632Y-93440877D01*
X143154817Y-93440877D01*
X143154817Y-93527644D01*
X143066645Y-93527644D01*
X143066645Y-93484658D01*
X143023658Y-93484658D01*
X143023658Y-93440877D01*
X142976764Y-93440877D01*
X142976764Y-93395448D01*
X142933777Y-93395448D01*
X142933777Y-93351789D01*
X142890790Y-93351789D01*
X142890790Y-93308803D01*
X142847804Y-93308803D01*
X142847804Y-93265816D01*
X142804817Y-93265816D01*
X142804817Y-93222829D01*
X142757922Y-93222829D01*
X142757922Y-93176728D01*
X142717134Y-93176728D01*
X142717134Y-93527644D01*
X142628962Y-93527644D01*
X142628962Y-93089961D01*
X142717134Y-93089961D01*
X143023658Y-93089961D01*
X143023658Y-93046303D01*
X143066645Y-93046303D01*
X143066645Y-92781910D01*
X143023658Y-92781910D01*
X143023658Y-92739045D01*
X142717134Y-92739045D01*
X142717134Y-93089961D01*
X142628962Y-93089961D01*
X142628962Y-92652278D01*
X143066645Y-92652278D01*
X143066645Y-92695265D01*
G37*
G36*
X143854328Y-93527644D02*
G01*
X143766157Y-93527644D01*
X143766157Y-93308803D01*
X143328473Y-93308803D01*
X143328473Y-93132948D01*
X143416645Y-93132948D01*
X143416645Y-93222035D01*
X143766157Y-93222035D01*
X143766157Y-92828133D01*
X143723170Y-92828133D01*
X143723170Y-92871120D01*
X143676275Y-92871120D01*
X143676275Y-92914106D01*
X143633289Y-92914106D01*
X143633289Y-92957093D01*
X143590302Y-92957093D01*
X143590302Y-93000080D01*
X143547315Y-93000080D01*
X143547315Y-93046974D01*
X143504328Y-93046974D01*
X143504328Y-93089045D01*
X143460914Y-93089045D01*
X143460914Y-93132948D01*
X143416645Y-93132948D01*
X143328473Y-93132948D01*
X143328473Y-93089045D01*
X143371460Y-93089045D01*
X143371460Y-93046974D01*
X143416645Y-93046974D01*
X143416645Y-93000080D01*
X143460914Y-93000080D01*
X143460914Y-92957093D01*
X143504328Y-92957093D01*
X143504328Y-92914106D01*
X143547315Y-92914106D01*
X143547315Y-92871120D01*
X143590302Y-92871120D01*
X143590302Y-92828133D01*
X143633289Y-92828133D01*
X143633289Y-92781238D01*
X143676275Y-92781238D01*
X143676275Y-92738251D01*
X143723170Y-92738251D01*
X143723170Y-92695265D01*
X143766157Y-92695265D01*
X143766157Y-92652278D01*
X143854328Y-92652278D01*
X143854328Y-93527644D01*
G37*
G36*
X141074145Y-92705265D02*
G01*
X141117132Y-92705265D01*
X141117132Y-92748251D01*
X141162317Y-92748251D01*
X141162317Y-93099961D01*
X141117132Y-93099961D01*
X141117132Y-93142948D01*
X141074145Y-93142948D01*
X141074145Y-93186728D01*
X140898290Y-93186728D01*
X140898290Y-93232829D01*
X140941277Y-93232829D01*
X140941277Y-93275816D01*
X140984264Y-93275816D01*
X140984264Y-93318803D01*
X141031158Y-93318803D01*
X141031158Y-93361789D01*
X141074145Y-93361789D01*
X141074145Y-93405448D01*
X141117132Y-93405448D01*
X141117132Y-93450877D01*
X141162317Y-93450877D01*
X141162317Y-93537644D01*
X141074145Y-93537644D01*
X141074145Y-93494658D01*
X141031158Y-93494658D01*
X141031158Y-93450877D01*
X140984264Y-93450877D01*
X140984264Y-93405448D01*
X140941277Y-93405448D01*
X140941277Y-93361789D01*
X140898290Y-93361789D01*
X140898290Y-93318803D01*
X140855304Y-93318803D01*
X140855304Y-93275816D01*
X140812317Y-93275816D01*
X140812317Y-93232829D01*
X140765422Y-93232829D01*
X140765422Y-93186728D01*
X140724634Y-93186728D01*
X140724634Y-93537644D01*
X140636462Y-93537644D01*
X140636462Y-93099961D01*
X140724634Y-93099961D01*
X141031158Y-93099961D01*
X141031158Y-93056303D01*
X141074145Y-93056303D01*
X141074145Y-92791910D01*
X141031158Y-92791910D01*
X141031158Y-92749045D01*
X140724634Y-92749045D01*
X140724634Y-93099961D01*
X140636462Y-93099961D01*
X140636462Y-92662278D01*
X141074145Y-92662278D01*
X141074145Y-92705265D01*
G37*
G36*
X141424145Y-92705265D02*
G01*
X141424145Y-92662278D01*
X141773657Y-92662278D01*
X141773657Y-92705265D01*
X141816643Y-92705265D01*
X141816643Y-92752159D01*
X141861828Y-92752159D01*
X141861828Y-93056974D01*
X141816643Y-93056974D01*
X141816643Y-93099961D01*
X141773657Y-93099961D01*
X141773657Y-93142948D01*
X141730670Y-93142948D01*
X141730670Y-93189842D01*
X141683775Y-93189842D01*
X141683775Y-93232829D01*
X141640789Y-93232829D01*
X141640789Y-93275816D01*
X141597802Y-93275816D01*
X141597802Y-93317337D01*
X141554815Y-93317337D01*
X141554815Y-93360690D01*
X141511828Y-93360690D01*
X141511828Y-93405448D01*
X141468842Y-93405448D01*
X141468842Y-93450877D01*
X141861828Y-93450877D01*
X141861828Y-93537644D01*
X141335973Y-93537644D01*
X141335973Y-93405448D01*
X141378960Y-93405448D01*
X141378960Y-93360690D01*
X141424145Y-93360690D01*
X141424145Y-93317337D01*
X141468842Y-93317337D01*
X141468842Y-93275816D01*
X141511828Y-93275816D01*
X141511828Y-93232829D01*
X141554815Y-93232829D01*
X141554815Y-93189842D01*
X141597802Y-93189842D01*
X141597802Y-93142948D01*
X141640789Y-93142948D01*
X141640789Y-93099961D01*
X141683775Y-93099961D01*
X141683775Y-93056974D01*
X141730670Y-93056974D01*
X141730670Y-93010080D01*
X141773657Y-93010080D01*
X141773657Y-92795696D01*
X141730670Y-92795696D01*
X141730670Y-92749045D01*
X141468842Y-92749045D01*
X141468842Y-92795696D01*
X141424145Y-92795696D01*
X141424145Y-92971001D01*
X141335973Y-92971001D01*
X141335973Y-92752159D01*
X141378960Y-92752159D01*
X141378960Y-92705265D01*
X141424145Y-92705265D01*
G37*
G36*
X155654145Y-92485265D02*
G01*
X155697132Y-92485265D01*
X155697132Y-92528251D01*
X155742317Y-92528251D01*
X155742317Y-92879961D01*
X155697132Y-92879961D01*
X155697132Y-92922948D01*
X155654145Y-92922948D01*
X155654145Y-92966728D01*
X155478290Y-92966728D01*
X155478290Y-93012829D01*
X155521277Y-93012829D01*
X155521277Y-93055816D01*
X155564264Y-93055816D01*
X155564264Y-93098803D01*
X155611158Y-93098803D01*
X155611158Y-93141789D01*
X155654145Y-93141789D01*
X155654145Y-93185448D01*
X155697132Y-93185448D01*
X155697132Y-93230877D01*
X155742317Y-93230877D01*
X155742317Y-93317644D01*
X155654145Y-93317644D01*
X155654145Y-93274658D01*
X155611158Y-93274658D01*
X155611158Y-93230877D01*
X155564264Y-93230877D01*
X155564264Y-93185448D01*
X155521277Y-93185448D01*
X155521277Y-93141789D01*
X155478290Y-93141789D01*
X155478290Y-93098803D01*
X155435304Y-93098803D01*
X155435304Y-93055816D01*
X155392317Y-93055816D01*
X155392317Y-93012829D01*
X155345422Y-93012829D01*
X155345422Y-92966728D01*
X155304634Y-92966728D01*
X155304634Y-93317644D01*
X155216462Y-93317644D01*
X155216462Y-92879961D01*
X155304634Y-92879961D01*
X155611158Y-92879961D01*
X155611158Y-92836303D01*
X155654145Y-92836303D01*
X155654145Y-92571910D01*
X155611158Y-92571910D01*
X155611158Y-92529045D01*
X155304634Y-92529045D01*
X155304634Y-92879961D01*
X155216462Y-92879961D01*
X155216462Y-92442278D01*
X155654145Y-92442278D01*
X155654145Y-92485265D01*
G37*
G36*
X155915973Y-92876847D02*
G01*
X155915973Y-92442278D01*
X156441828Y-92442278D01*
X156441828Y-92529045D01*
X156004145Y-92529045D01*
X156004145Y-92793194D01*
X156353657Y-92793194D01*
X156353657Y-92836974D01*
X156396643Y-92836974D01*
X156396643Y-92876847D01*
X156441828Y-92876847D01*
X156441828Y-93228557D01*
X156396643Y-93228557D01*
X156396643Y-93274658D01*
X156353657Y-93274658D01*
X156353657Y-93317644D01*
X156004145Y-93317644D01*
X156004145Y-93274658D01*
X155958960Y-93274658D01*
X155958960Y-93228557D01*
X155915973Y-93228557D01*
X155915973Y-93141789D01*
X156004145Y-93141789D01*
X156004145Y-93185814D01*
X156047498Y-93185814D01*
X156047498Y-93230877D01*
X156353657Y-93230877D01*
X156353657Y-92920750D01*
X156310304Y-92920750D01*
X156310304Y-92876847D01*
X155915973Y-92876847D01*
G37*
G36*
X171915534Y-111855265D02*
G01*
X171915534Y-111812278D01*
X172265045Y-111812278D01*
X172265045Y-111855265D01*
X172308032Y-111855265D01*
X172308032Y-111898251D01*
X172353217Y-111898251D01*
X172353217Y-112031120D01*
X172265045Y-112031120D01*
X172265045Y-111942093D01*
X172221692Y-111942093D01*
X172221692Y-111899045D01*
X171958887Y-111899045D01*
X171958887Y-111942093D01*
X171915534Y-111942093D01*
X171915534Y-112557280D01*
X171958887Y-112557280D01*
X171958887Y-112600877D01*
X172221692Y-112600877D01*
X172221692Y-112557280D01*
X172265045Y-112557280D01*
X172265045Y-112468803D01*
X172353217Y-112468803D01*
X172353217Y-112600877D01*
X172308032Y-112600877D01*
X172308032Y-112640750D01*
X172265045Y-112640750D01*
X172265045Y-112687644D01*
X171915534Y-112687644D01*
X171915534Y-112640750D01*
X171870349Y-112640750D01*
X171870349Y-112600877D01*
X171827362Y-112600877D01*
X171827362Y-111898251D01*
X171870349Y-111898251D01*
X171870349Y-111855265D01*
X171915534Y-111855265D01*
G37*
G36*
X172615045Y-111855265D02*
G01*
X172615045Y-111812278D01*
X172964557Y-111812278D01*
X172964557Y-111855265D01*
X173007543Y-111855265D01*
X173007543Y-111902159D01*
X173052728Y-111902159D01*
X173052728Y-112206181D01*
X173007543Y-112206181D01*
X173007543Y-112296062D01*
X173052728Y-112296062D01*
X173052728Y-112600877D01*
X173007543Y-112600877D01*
X173007543Y-112640750D01*
X172964557Y-112640750D01*
X172964557Y-112687644D01*
X172615045Y-112687644D01*
X172615045Y-112640750D01*
X172569860Y-112640750D01*
X172569860Y-112600877D01*
X172526873Y-112600877D01*
X172526873Y-112468803D01*
X172615045Y-112468803D01*
X172615045Y-112557280D01*
X172659314Y-112557280D01*
X172659314Y-112600877D01*
X172921326Y-112600877D01*
X172921326Y-112557280D01*
X172964557Y-112557280D01*
X172964557Y-112335935D01*
X172921326Y-112335935D01*
X172921326Y-112292948D01*
X172659314Y-112292948D01*
X172659314Y-112206181D01*
X172921326Y-112206181D01*
X172921326Y-112160080D01*
X172964557Y-112160080D01*
X172964557Y-111946001D01*
X172921326Y-111946001D01*
X172921326Y-111899045D01*
X172659314Y-111899045D01*
X172659314Y-111946001D01*
X172615045Y-111946001D01*
X172615045Y-112035027D01*
X172526873Y-112035027D01*
X172526873Y-111902159D01*
X172569860Y-111902159D01*
X172569860Y-111855265D01*
X172615045Y-111855265D01*
G37*
G36*
X124106434Y-96465265D02*
G01*
X124106434Y-96422278D01*
X124455945Y-96422278D01*
X124455945Y-96465265D01*
X124498932Y-96465265D01*
X124498932Y-96508251D01*
X124544117Y-96508251D01*
X124544117Y-96641120D01*
X124455945Y-96641120D01*
X124455945Y-96552093D01*
X124412592Y-96552093D01*
X124412592Y-96509045D01*
X124149787Y-96509045D01*
X124149787Y-96552093D01*
X124106434Y-96552093D01*
X124106434Y-97167280D01*
X124149787Y-97167280D01*
X124149787Y-97210877D01*
X124412592Y-97210877D01*
X124412592Y-97167280D01*
X124455945Y-97167280D01*
X124455945Y-97078803D01*
X124544117Y-97078803D01*
X124544117Y-97210877D01*
X124498932Y-97210877D01*
X124498932Y-97250750D01*
X124455945Y-97250750D01*
X124455945Y-97297644D01*
X124106434Y-97297644D01*
X124106434Y-97250750D01*
X124061249Y-97250750D01*
X124061249Y-97210877D01*
X124018262Y-97210877D01*
X124018262Y-96508251D01*
X124061249Y-96508251D01*
X124061249Y-96465265D01*
X124106434Y-96465265D01*
G37*
G36*
X125198443Y-96509045D02*
G01*
X124849298Y-96509045D01*
X124849298Y-96554780D01*
X124805945Y-96554780D01*
X124805945Y-96773194D01*
X125155457Y-96773194D01*
X125155457Y-96816974D01*
X125198443Y-96816974D01*
X125198443Y-96859961D01*
X125243628Y-96859961D01*
X125243628Y-97210877D01*
X125198443Y-97210877D01*
X125198443Y-97254658D01*
X125155457Y-97254658D01*
X125155457Y-97297644D01*
X124805945Y-97297644D01*
X124805945Y-97254658D01*
X124760760Y-97254658D01*
X124760760Y-97210877D01*
X124717773Y-97210877D01*
X124717773Y-97167341D01*
X124805945Y-97167341D01*
X124849298Y-97167341D01*
X124849298Y-97210877D01*
X125112104Y-97210877D01*
X125112104Y-97167341D01*
X125155457Y-97167341D01*
X125155457Y-96903436D01*
X125112104Y-96903436D01*
X125112104Y-96859961D01*
X124805945Y-96859961D01*
X124805945Y-97167341D01*
X124717773Y-97167341D01*
X124717773Y-96511366D01*
X124760760Y-96511366D01*
X124760760Y-96469173D01*
X124805945Y-96469173D01*
X124805945Y-96422278D01*
X125198443Y-96422278D01*
X125198443Y-96509045D01*
G37*
G36*
X163375307Y-109924045D02*
G01*
X163375307Y-109837278D01*
X163637135Y-109837278D01*
X163637135Y-109924045D01*
X163551162Y-109924045D01*
X163551162Y-110625877D01*
X163637135Y-110625877D01*
X163637135Y-110712644D01*
X163375307Y-110712644D01*
X163375307Y-110625877D01*
X163462990Y-110625877D01*
X163462990Y-109924045D01*
X163375307Y-109924045D01*
G37*
G36*
X164030122Y-109880265D02*
G01*
X164030122Y-109837278D01*
X164379634Y-109837278D01*
X164379634Y-109880265D01*
X164422620Y-109880265D01*
X164422620Y-109923251D01*
X164467805Y-109923251D01*
X164467805Y-110056120D01*
X164379634Y-110056120D01*
X164379634Y-109967093D01*
X164336281Y-109967093D01*
X164336281Y-109924045D01*
X164073475Y-109924045D01*
X164073475Y-109967093D01*
X164030122Y-109967093D01*
X164030122Y-110582280D01*
X164073475Y-110582280D01*
X164073475Y-110625877D01*
X164336281Y-110625877D01*
X164336281Y-110582280D01*
X164379634Y-110582280D01*
X164379634Y-110493803D01*
X164467805Y-110493803D01*
X164467805Y-110625877D01*
X164422620Y-110625877D01*
X164422620Y-110665750D01*
X164379634Y-110665750D01*
X164379634Y-110712644D01*
X164030122Y-110712644D01*
X164030122Y-110665750D01*
X163984937Y-110665750D01*
X163984937Y-110625877D01*
X163941950Y-110625877D01*
X163941950Y-109923251D01*
X163984937Y-109923251D01*
X163984937Y-109880265D01*
X164030122Y-109880265D01*
G37*
G36*
X164862013Y-109880265D02*
G01*
X164862013Y-109837278D01*
X164950185Y-109837278D01*
X164950185Y-110625877D01*
X165083053Y-110625877D01*
X165083053Y-110712644D01*
X164731343Y-110712644D01*
X164731343Y-110625877D01*
X164862013Y-110625877D01*
X164862013Y-110013133D01*
X164819515Y-110013133D01*
X164819515Y-110056120D01*
X164731343Y-110056120D01*
X164731343Y-109969352D01*
X164774758Y-109969352D01*
X164774758Y-109924778D01*
X164819515Y-109924778D01*
X164819515Y-109880265D01*
X164862013Y-109880265D01*
G37*
G36*
X124889045Y-109914814D02*
G01*
X124802278Y-109914814D01*
X124802278Y-109652986D01*
X124889045Y-109652986D01*
X124889045Y-109740669D01*
X125590877Y-109740669D01*
X125590877Y-109785854D01*
X125633558Y-109785854D01*
X125633558Y-109828841D01*
X125677644Y-109828841D01*
X125677644Y-110133656D01*
X125633558Y-110133656D01*
X125633558Y-110180550D01*
X125590877Y-110180550D01*
X125590877Y-110223537D01*
X125415816Y-110223537D01*
X125415816Y-110135365D01*
X125547463Y-110135365D01*
X125547463Y-110090180D01*
X125590877Y-110090180D01*
X125590877Y-109872499D01*
X125547463Y-109872499D01*
X125547463Y-109828841D01*
X124889045Y-109828841D01*
X124889045Y-109914814D01*
G37*
G36*
X124845265Y-109435854D02*
G01*
X124802278Y-109435854D01*
X124802278Y-109086342D01*
X124845265Y-109086342D01*
X124845265Y-109043356D01*
X124892159Y-109043356D01*
X124892159Y-108998171D01*
X125196181Y-108998171D01*
X125196181Y-109043356D01*
X125286062Y-109043356D01*
X125286062Y-108998171D01*
X125590877Y-108998171D01*
X125590877Y-109043356D01*
X125630750Y-109043356D01*
X125630750Y-109086342D01*
X125677644Y-109086342D01*
X125677644Y-109435854D01*
X125630750Y-109435854D01*
X125630750Y-109481039D01*
X125590877Y-109481039D01*
X125590877Y-109524026D01*
X125458803Y-109524026D01*
X125458803Y-109435854D01*
X125547280Y-109435854D01*
X125547280Y-109391585D01*
X125590877Y-109391585D01*
X125590877Y-109129573D01*
X125547280Y-109129573D01*
X125547280Y-109086342D01*
X125325935Y-109086342D01*
X125325935Y-109129573D01*
X125282948Y-109129573D01*
X125282948Y-109391585D01*
X125196181Y-109391585D01*
X125196181Y-109129573D01*
X125150080Y-109129573D01*
X125150080Y-109086342D01*
X124936001Y-109086342D01*
X124936001Y-109129573D01*
X124889045Y-109129573D01*
X124889045Y-109391585D01*
X124936001Y-109391585D01*
X124936001Y-109435854D01*
X125025027Y-109435854D01*
X125025027Y-109524026D01*
X124892159Y-109524026D01*
X124892159Y-109481039D01*
X124845265Y-109481039D01*
X124845265Y-109435854D01*
G37*
G36*
X172975280Y-105060051D02*
G01*
X172975280Y-105017064D01*
X173324791Y-105017064D01*
X173324791Y-105060051D01*
X173367778Y-105060051D01*
X173367778Y-105103037D01*
X173412963Y-105103037D01*
X173412963Y-105235906D01*
X173324791Y-105235906D01*
X173324791Y-105146879D01*
X173281438Y-105146879D01*
X173281438Y-105103831D01*
X173018633Y-105103831D01*
X173018633Y-105146879D01*
X172975280Y-105146879D01*
X172975280Y-105762066D01*
X173018633Y-105762066D01*
X173018633Y-105805663D01*
X173281438Y-105805663D01*
X173281438Y-105762066D01*
X173324791Y-105762066D01*
X173324791Y-105673589D01*
X173412963Y-105673589D01*
X173412963Y-105805663D01*
X173367778Y-105805663D01*
X173367778Y-105845536D01*
X173324791Y-105845536D01*
X173324791Y-105892430D01*
X172975280Y-105892430D01*
X172975280Y-105845536D01*
X172930095Y-105845536D01*
X172930095Y-105805663D01*
X172887108Y-105805663D01*
X172887108Y-105103037D01*
X172930095Y-105103037D01*
X172930095Y-105060051D01*
X172975280Y-105060051D01*
G37*
G36*
X173807171Y-105060051D02*
G01*
X173807171Y-105017064D01*
X173895342Y-105017064D01*
X173895342Y-105805663D01*
X174028211Y-105805663D01*
X174028211Y-105892430D01*
X173676501Y-105892430D01*
X173676501Y-105805663D01*
X173807171Y-105805663D01*
X173807171Y-105192919D01*
X173764673Y-105192919D01*
X173764673Y-105235906D01*
X173676501Y-105235906D01*
X173676501Y-105149138D01*
X173719915Y-105149138D01*
X173719915Y-105104564D01*
X173764673Y-105104564D01*
X173764673Y-105060051D01*
X173807171Y-105060051D01*
G37*
D15*
%TO.C,SW1*%
X164775000Y-95025000D02*
X164775000Y-96525000D01*
X166025000Y-99025000D02*
X170525000Y-99025000D01*
X170525000Y-92525000D02*
X166025000Y-92525000D01*
X171775000Y-96525000D02*
X171775000Y-95025000D01*
%TO.C,C2*%
X133440900Y-91420000D02*
X133440900Y-94420000D01*
X134123400Y-93047000D02*
X134758400Y-93047000D01*
X134440900Y-92793000D02*
X134440900Y-92729500D01*
X134440900Y-93047000D02*
X134440900Y-93110500D01*
X134758400Y-92793000D02*
X134123400Y-92793000D01*
X135440900Y-94420000D02*
X135440900Y-91420000D01*
X133440900Y-91420000D02*
G75*
G02*
X135440900Y-91420000I1000000J-1122254D01*
G01*
X135440900Y-94420000D02*
G75*
G02*
X133440900Y-94420000I-1000000J1122254D01*
G01*
%TO.C,C5*%
X130940900Y-91730000D02*
X130940900Y-94730000D01*
X131623400Y-93357000D02*
X132258400Y-93357000D01*
X131940900Y-93103000D02*
X131940900Y-93039500D01*
X131940900Y-93357000D02*
X131940900Y-93420500D01*
X132258400Y-93103000D02*
X131623400Y-93103000D01*
X132940900Y-94730000D02*
X132940900Y-91730000D01*
X130940900Y-91730000D02*
G75*
G02*
X132940900Y-91730000I1000000J-1122254D01*
G01*
X132940900Y-94730000D02*
G75*
G02*
X130940900Y-94730000I-1000000J1122254D01*
G01*
%TO.C,R1*%
X175130000Y-94060000D02*
X175130000Y-96060000D01*
X175130000Y-96060000D02*
X178530000Y-96060000D01*
X178530000Y-94060000D02*
X175130000Y-94060000D01*
X178530000Y-96060000D02*
X178530000Y-94060000D01*
%TO.C,JP1*%
X125405000Y-95305000D02*
X123405000Y-95305000D01*
%TO.C,R3*%
X136800000Y-93500000D02*
X136800000Y-95500000D01*
X136800000Y-95500000D02*
X140200000Y-95500000D01*
X140200000Y-93500000D02*
X136800000Y-93500000D01*
X140200000Y-95500000D02*
X140200000Y-93500000D01*
%TO.C,C4*%
X128513600Y-92100000D02*
X128513600Y-95100000D01*
X129196100Y-93727000D02*
X129831100Y-93727000D01*
X129513600Y-93473000D02*
X129513600Y-93409500D01*
X129513600Y-93727000D02*
X129513600Y-93790500D01*
X129831100Y-93473000D02*
X129196100Y-93473000D01*
X130513600Y-95100000D02*
X130513600Y-92100000D01*
X128513600Y-92100000D02*
G75*
G02*
X130513600Y-92100000I1000000J-1122254D01*
G01*
X130513600Y-95100000D02*
G75*
G02*
X128513600Y-95100000I-1000000J1122254D01*
G01*
%TO.C,U1*%
X129379800Y-95601000D02*
X139979800Y-95601000D01*
X129379800Y-105092000D02*
X129379800Y-95601000D01*
X130488800Y-106201000D02*
X129379800Y-105092000D01*
X139979800Y-95601000D02*
X139979800Y-106201000D01*
X139979800Y-106201000D02*
X130488800Y-106201000D01*
D16*
X130488800Y-105219000D02*
G75*
G02*
X130234800Y-105219000I-127000J0D01*
G01*
X130234800Y-105219000D02*
G75*
G02*
X130488800Y-105219000I127000J0D01*
G01*
D15*
%TO.C,R4*%
X141542500Y-90270000D02*
X141542500Y-92270000D01*
X141542500Y-92270000D02*
X144942500Y-92270000D01*
X144942500Y-90270000D02*
X141542500Y-90270000D01*
X144942500Y-92270000D02*
X144942500Y-90270000D01*
%TO.C,R2*%
X136800000Y-91500000D02*
X136800000Y-93500000D01*
X136800000Y-93500000D02*
X140200000Y-93500000D01*
X140200000Y-91500000D02*
X136800000Y-91500000D01*
X140200000Y-93500000D02*
X140200000Y-91500000D01*
%TO.C,R5*%
X155090000Y-90130000D02*
X155090000Y-92130000D01*
X155090000Y-92130000D02*
X158490000Y-92130000D01*
X158490000Y-90130000D02*
X155090000Y-90130000D01*
X158490000Y-92130000D02*
X158490000Y-90130000D01*
%TO.C,C3*%
X170940900Y-111480000D02*
X173940900Y-111480000D01*
X172313900Y-110162500D02*
X172313900Y-110797500D01*
X172313900Y-110480000D02*
X172250400Y-110480000D01*
X172567900Y-110480000D02*
X172631400Y-110480000D01*
X172567900Y-110797500D02*
X172567900Y-110162500D01*
X173940900Y-109480000D02*
X170940900Y-109480000D01*
X170940900Y-111480000D02*
G75*
G02*
X170940900Y-109480000I1122254J1000000D01*
G01*
X173940900Y-109480000D02*
G75*
G02*
X173940900Y-111480000I-1122254J-1000000D01*
G01*
%TO.C,C6*%
X123131800Y-99590000D02*
X126131800Y-99590000D01*
X124504800Y-98272500D02*
X124504800Y-98907500D01*
X124504800Y-98590000D02*
X124441300Y-98590000D01*
X124758800Y-98590000D02*
X124822300Y-98590000D01*
X124758800Y-98907500D02*
X124758800Y-98272500D01*
X126131800Y-97590000D02*
X123131800Y-97590000D01*
X123131800Y-99590000D02*
G75*
G02*
X123131800Y-97590000I1122254J1000000D01*
G01*
X126131800Y-97590000D02*
G75*
G02*
X126131800Y-99590000I-1122254J-1000000D01*
G01*
D17*
%TO.C,IC1*%
X164155000Y-105060000D02*
X164155000Y-108660000D01*
X164155000Y-108660000D02*
X170755000Y-108660000D01*
X170755000Y-105060000D02*
X164155000Y-105060000D01*
X170755000Y-108660000D02*
X170755000Y-105060000D01*
D15*
%TO.C,J3*%
X126290000Y-110940000D02*
X126290000Y-109610000D01*
X126320000Y-108310000D02*
X139110000Y-108280000D01*
X127620000Y-110940000D02*
X126290000Y-110940000D01*
X128890000Y-110940000D02*
X139110000Y-110940000D01*
X139110000Y-110940000D02*
X139110000Y-108280000D01*
%TO.C,C1*%
X172000000Y-108250000D02*
X175000000Y-108250000D01*
X173373000Y-106932500D02*
X173373000Y-107567500D01*
X173373000Y-107250000D02*
X173309500Y-107250000D01*
X173627000Y-107250000D02*
X173690500Y-107250000D01*
X173627000Y-107567500D02*
X173627000Y-106932500D01*
X175000000Y-106250000D02*
X172000000Y-106250000D01*
X172000000Y-108250000D02*
G75*
G02*
X172000000Y-106250000I1122254J1000000D01*
G01*
X175000000Y-106250000D02*
G75*
G02*
X175000000Y-108250000I-1122254J-1000000D01*
G01*
%TD*%
M02*
