%TF.GenerationSoftware,KiCad,Pcbnew,9.0.6*%
%TF.CreationDate,2026-01-11T15:28:45-08:00*%
%TF.ProjectId,pcb,7063622e-6b69-4636-9164-5f7063625858,rev?*%
%TF.SameCoordinates,Original*%
%TF.FileFunction,Copper,L1,Top*%
%TF.FilePolarity,Positive*%
%FSLAX46Y46*%
G04 Gerber Fmt 4.6, Leading zero omitted, Abs format (unit mm)*
G04 Created by KiCad (PCBNEW 9.0.6) date 2026-01-11 15:28:45*
%MOMM*%
%LPD*%
G01*
G04 APERTURE LIST*
G04 Aperture macros list*
%AMRoundRect*
0 Rectangle with rounded corners*
0 $1 Rounding radius*
0 $2 $3 $4 $5 $6 $7 $8 $9 X,Y pos of 4 corners*
0 Add a 4 corners polygon primitive as box body*
4,1,4,$2,$3,$4,$5,$6,$7,$8,$9,$2,$3,0*
0 Add four circle primitives for the rounded corners*
1,1,$1+$1,$2,$3*
1,1,$1+$1,$4,$5*
1,1,$1+$1,$6,$7*
1,1,$1+$1,$8,$9*
0 Add four rect primitives between the rounded corners*
20,1,$1+$1,$2,$3,$4,$5,0*
20,1,$1+$1,$4,$5,$6,$7,0*
20,1,$1+$1,$6,$7,$8,$9,0*
20,1,$1+$1,$8,$9,$2,$3,0*%
G04 Aperture macros list end*
%TA.AperFunction,ComponentPad*%
%ADD10C,2.000000*%
%TD*%
%TA.AperFunction,SMDPad,CuDef*%
%ADD11R,1.270000X0.635000*%
%TD*%
%TA.AperFunction,SMDPad,CuDef*%
%ADD12RoundRect,0.250000X0.475000X-0.250000X0.475000X0.250000X-0.475000X0.250000X-0.475000X-0.250000X0*%
%TD*%
%TA.AperFunction,ComponentPad*%
%ADD13C,1.879600*%
%TD*%
%TA.AperFunction,SMDPad,CuDef*%
%ADD14RoundRect,0.250000X0.262500X0.450000X-0.262500X0.450000X-0.262500X-0.450000X0.262500X-0.450000X0*%
%TD*%
%TA.AperFunction,ComponentPad*%
%ADD15C,1.900000*%
%TD*%
%TA.AperFunction,SMDPad,CuDef*%
%ADD16R,0.600000X2.450000*%
%TD*%
%TA.AperFunction,SMDPad,CuDef*%
%ADD17R,0.300000X2.450000*%
%TD*%
%TA.AperFunction,ComponentPad*%
%ADD18O,1.000000X1.600000*%
%TD*%
%TA.AperFunction,ComponentPad*%
%ADD19O,1.000000X2.100000*%
%TD*%
%TA.AperFunction,SMDPad,CuDef*%
%ADD20RoundRect,0.100000X0.100000X-0.637500X0.100000X0.637500X-0.100000X0.637500X-0.100000X-0.637500X0*%
%TD*%
%TA.AperFunction,SMDPad,CuDef*%
%ADD21RoundRect,0.100000X0.637500X-0.100000X0.637500X0.100000X-0.637500X0.100000X-0.637500X-0.100000X0*%
%TD*%
%TA.AperFunction,SMDPad,CuDef*%
%ADD22RoundRect,0.250000X-0.262500X-0.450000X0.262500X-0.450000X0.262500X0.450000X-0.262500X0.450000X0*%
%TD*%
%TA.AperFunction,SMDPad,CuDef*%
%ADD23RoundRect,0.250000X-0.250000X-0.475000X0.250000X-0.475000X0.250000X0.475000X-0.250000X0.475000X0*%
%TD*%
%TA.AperFunction,SMDPad,CuDef*%
%ADD24R,1.200000X1.500000*%
%TD*%
%TA.AperFunction,SMDPad,CuDef*%
%ADD25R,3.300000X1.500000*%
%TD*%
%TA.AperFunction,ComponentPad*%
%ADD26C,2.100000*%
%TD*%
%TA.AperFunction,SMDPad,CuDef*%
%ADD27RoundRect,0.250000X0.250000X0.475000X-0.250000X0.475000X-0.250000X-0.475000X0.250000X-0.475000X0*%
%TD*%
%TA.AperFunction,ComponentPad*%
%ADD28C,3.300000*%
%TD*%
%TA.AperFunction,ViaPad*%
%ADD29C,0.600000*%
%TD*%
%TA.AperFunction,Conductor*%
%ADD30C,0.200000*%
%TD*%
%TA.AperFunction,Conductor*%
%ADD31C,0.600000*%
%TD*%
G04 APERTURE END LIST*
D10*
%TO.P,SW1,1*%
%TO.N,Net-(U1-PB8-BOOT0)*%
X165025000Y-93525000D03*
X171525000Y-93525000D03*
%TO.P,SW1,2*%
%TO.N,+3.3V*%
X165025000Y-98025000D03*
X171525000Y-98025000D03*
%TD*%
D11*
%TO.P,JMP_BTN2,1,A*%
%TO.N,/BTN2*%
X161000000Y-105093600D03*
%TO.P,JMP_BTN2,2,B*%
%TO.N,Net-(JMP_BTN1-A)*%
X161000000Y-105906400D03*
%TD*%
D12*
%TO.P,C2,1*%
%TO.N,GND*%
X134440900Y-93870000D03*
%TO.P,C2,2*%
%TO.N,+3.3V*%
X134440900Y-91970000D03*
%TD*%
%TO.P,C5,1*%
%TO.N,GND*%
X131940900Y-94180000D03*
%TO.P,C5,2*%
%TO.N,+3.3V*%
X131940900Y-92280000D03*
%TD*%
D13*
%TO.P,J1,1,Pin_1*%
%TO.N,+3.3V*%
X124326700Y-112750000D03*
%TO.P,J1,2,Pin_2*%
%TO.N,/BTN2*%
X123562907Y-110327559D03*
%TO.P,J1,3,Pin_3*%
%TO.N,/BTN3*%
X122799115Y-107905118D03*
%TO.P,J1,4,Pin_4*%
%TO.N,/BTN4*%
X122035322Y-105482677D03*
%TO.P,J1,5,Pin_5*%
%TO.N,/BTN5*%
X121271529Y-103060236D03*
%TO.P,J1,6,Pin_6*%
%TO.N,/BTN6*%
X120507736Y-100637795D03*
%TO.P,J1,7,Pin_7*%
%TO.N,/BTN7*%
X119743944Y-98215354D03*
%TO.P,J1,8,Pin_8*%
%TO.N,/BTN8*%
X118980151Y-95792913D03*
%TD*%
D11*
%TO.P,JMP_BTN8,1,A*%
%TO.N,/BTN8*%
X161000000Y-93093600D03*
%TO.P,JMP_BTN8,2,B*%
%TO.N,Net-(JMP_BTN1-A)*%
X161000000Y-93906400D03*
%TD*%
D14*
%TO.P,R1,1*%
%TO.N,GND*%
X177742500Y-95060000D03*
%TO.P,R1,2*%
%TO.N,Net-(U1-PB8-BOOT0)*%
X175917500Y-95060000D03*
%TD*%
D15*
%TO.P,JP1,1*%
%TO.N,/RST*%
X126945000Y-95305000D03*
%TO.P,JP1,2*%
%TO.N,GND*%
X121865000Y-95305000D03*
%TD*%
D11*
%TO.P,JMP_BTN7,1,A*%
%TO.N,/BTN7*%
X161000000Y-95093600D03*
%TO.P,JMP_BTN7,2,B*%
%TO.N,Net-(JMP_BTN1-A)*%
X161000000Y-95906400D03*
%TD*%
%TO.P,JMP_BTN6,1,A*%
%TO.N,/BTN6*%
X161000000Y-97093600D03*
%TO.P,JMP_BTN6,2,B*%
%TO.N,Net-(JMP_BTN1-A)*%
X161000000Y-97906400D03*
%TD*%
D14*
%TO.P,R3,1*%
%TO.N,/D-*%
X139412500Y-94500000D03*
%TO.P,R3,2*%
%TO.N,Net-(U1-PA11)*%
X137587500Y-94500000D03*
%TD*%
D12*
%TO.P,C4,1*%
%TO.N,GND*%
X129513600Y-94550000D03*
%TO.P,C4,2*%
%TO.N,+3.3V*%
X129513600Y-92650000D03*
%TD*%
D16*
%TO.P,USB1,1,GND*%
%TO.N,GND*%
X153225000Y-92695000D03*
%TO.P,USB1,2,VBUS*%
%TO.N,5V*%
X152450001Y-92695000D03*
D17*
%TO.P,USB1,3,SBU2*%
%TO.N,unconnected-(USB1-SBU2-Pad3)*%
X151750000Y-92695000D03*
%TO.P,USB1,4,CC1*%
%TO.N,Net-(USB1-CC1)*%
X151250001Y-92695000D03*
%TO.P,USB1,5,DN2*%
%TO.N,/D-*%
X150750000Y-92695000D03*
%TO.P,USB1,6,DP1*%
%TO.N,/D+*%
X150250000Y-92694999D03*
%TO.P,USB1,7,DN1*%
%TO.N,/D-*%
X149749999Y-92695000D03*
%TO.P,USB1,8,DP2*%
%TO.N,/D+*%
X149250000Y-92695000D03*
%TO.P,USB1,9,SBU1*%
%TO.N,unconnected-(USB1-SBU1-Pad9)*%
X148750000Y-92695001D03*
%TO.P,USB1,10,CC2*%
%TO.N,Net-(USB1-CC2)*%
X148249999Y-92695000D03*
D16*
%TO.P,USB1,11,VBUS*%
%TO.N,5V*%
X147549999Y-92695000D03*
%TO.P,USB1,12,GND*%
%TO.N,GND*%
X146775001Y-92695000D03*
D18*
%TO.P,USB1,13,SHIELD*%
X154320001Y-87100000D03*
D19*
X154320000Y-91280000D03*
X145680000Y-91280000D03*
D18*
X145680000Y-87100000D03*
%TD*%
D11*
%TO.P,JMP_BTN3,1,A*%
%TO.N,/BTN3*%
X161000000Y-103093600D03*
%TO.P,JMP_BTN3,2,B*%
%TO.N,Net-(JMP_BTN1-A)*%
X161000000Y-103906400D03*
%TD*%
%TO.P,JMP_BTN4,1,A*%
%TO.N,/BTN4*%
X161000000Y-101093600D03*
%TO.P,JMP_BTN4,2,B*%
%TO.N,Net-(JMP_BTN1-A)*%
X161000000Y-101906400D03*
%TD*%
D20*
%TO.P,U1,1,VDD*%
%TO.N,+3.3V*%
X132079800Y-105113500D03*
%TO.P,U1,2,PF0-OSC_IN*%
%TO.N,unconnected-(U1-PF0-OSC_IN-Pad2)*%
X132729800Y-105113500D03*
%TO.P,U1,3,PF1-OSC_OUT*%
%TO.N,unconnected-(U1-PF1-OSC_OUT-Pad3)*%
X133379800Y-105113500D03*
%TO.P,U1,4,NRST*%
%TO.N,/RST*%
X134029800Y-105113500D03*
%TO.P,U1,5,VDDA*%
%TO.N,+3.3V*%
X134679800Y-105113500D03*
%TO.P,U1,6,PA0*%
%TO.N,/BTN1*%
X135329800Y-105113500D03*
%TO.P,U1,7,PA1*%
%TO.N,/BTN2*%
X135979800Y-105113500D03*
%TO.P,U1,8,PA2*%
%TO.N,/BTN3*%
X136629800Y-105113500D03*
%TO.P,U1,9,PA3*%
%TO.N,/BTN4*%
X137279800Y-105113500D03*
D21*
%TO.P,U1,10,PA4*%
%TO.N,/BTN5*%
X138892300Y-103501000D03*
%TO.P,U1,11,PA5*%
%TO.N,/BTN6*%
X138892300Y-102851000D03*
%TO.P,U1,12,PA6*%
%TO.N,/BTN7*%
X138892300Y-102201000D03*
%TO.P,U1,13,PA7*%
%TO.N,/BTN8*%
X138892300Y-101551000D03*
%TO.P,U1,14,PB0*%
%TO.N,unconnected-(U1-PB0-Pad14)*%
X138892300Y-100901000D03*
%TO.P,U1,15,PB1*%
%TO.N,unconnected-(U1-PB1-Pad15)*%
X138892300Y-100251000D03*
%TO.P,U1,16,VSS*%
%TO.N,GND*%
X138892300Y-99601000D03*
%TO.P,U1,17,VDDIO2*%
%TO.N,+3.3V*%
X138892300Y-98951000D03*
%TO.P,U1,18,PA8*%
%TO.N,unconnected-(U1-PA8-Pad18)*%
X138892300Y-98301000D03*
D20*
%TO.P,U1,19,PA9*%
%TO.N,unconnected-(U1-PA9-Pad19)*%
X137279800Y-96688500D03*
%TO.P,U1,20,PA10*%
%TO.N,unconnected-(U1-PA10-Pad20)*%
X136629800Y-96688500D03*
%TO.P,U1,21,PA11*%
%TO.N,Net-(U1-PA11)*%
X135979800Y-96688500D03*
%TO.P,U1,22,PA12*%
%TO.N,Net-(U1-PA12)*%
X135329800Y-96688500D03*
%TO.P,U1,23,PA13*%
%TO.N,/SWDIO*%
X134679800Y-96688500D03*
%TO.P,U1,24,PA14*%
%TO.N,/SWCLK*%
X134029800Y-96688500D03*
%TO.P,U1,25,PA15*%
%TO.N,unconnected-(U1-PA15-Pad25)*%
X133379800Y-96688500D03*
%TO.P,U1,26,PB3*%
%TO.N,unconnected-(U1-PB3-Pad26)*%
X132729800Y-96688500D03*
%TO.P,U1,27,PB4*%
%TO.N,unconnected-(U1-PB4-Pad27)*%
X132079800Y-96688500D03*
D21*
%TO.P,U1,28,PB5*%
%TO.N,unconnected-(U1-PB5-Pad28)*%
X130467300Y-98301000D03*
%TO.P,U1,29,PB6*%
%TO.N,unconnected-(U1-PB6-Pad29)*%
X130467300Y-98951000D03*
%TO.P,U1,30,PB7*%
%TO.N,unconnected-(U1-PB7-Pad30)*%
X130467300Y-99601000D03*
%TO.P,U1,31,PB8-BOOT0*%
%TO.N,Net-(U1-PB8-BOOT0)*%
X130467300Y-100251000D03*
%TO.P,U1,32,VSS*%
%TO.N,GND*%
X130467300Y-100901000D03*
%TO.P,U1,33*%
%TO.N,N/C*%
X130467300Y-101551000D03*
%TO.P,U1,34*%
X130467300Y-102201000D03*
%TO.P,U1,35*%
X130467300Y-102851000D03*
%TO.P,U1,36*%
X130467300Y-103501000D03*
%TD*%
D22*
%TO.P,R4,1*%
%TO.N,Net-(USB1-CC2)*%
X142330000Y-91270000D03*
%TO.P,R4,2*%
%TO.N,GND*%
X144155000Y-91270000D03*
%TD*%
D13*
%TO.P,J2,1,Pin_1*%
%TO.N,+3.3V*%
X175750000Y-112750000D03*
%TO.P,J2,2,Pin_2*%
%TO.N,/BTN2*%
X176492624Y-110320986D03*
%TO.P,J2,3,Pin_3*%
%TO.N,/BTN3*%
X177235248Y-107891972D03*
%TO.P,J2,4,Pin_4*%
%TO.N,/BTN4*%
X177977872Y-105462958D03*
%TO.P,J2,5,Pin_5*%
%TO.N,/BTN5*%
X178720497Y-103033944D03*
%TO.P,J2,6,Pin_6*%
%TO.N,/BTN6*%
X179463121Y-100604930D03*
%TO.P,J2,7,Pin_7*%
%TO.N,/BTN7*%
X180205744Y-98175916D03*
%TO.P,J2,8,Pin_8*%
%TO.N,/BTN8*%
X180948369Y-95746902D03*
%TD*%
D14*
%TO.P,R2,1*%
%TO.N,/D+*%
X139412500Y-92500000D03*
%TO.P,R2,2*%
%TO.N,Net-(U1-PA12)*%
X137587500Y-92500000D03*
%TD*%
D11*
%TO.P,JMP_BTN1,1,A*%
%TO.N,Net-(JMP_BTN1-A)*%
X161000000Y-107906400D03*
%TO.P,JMP_BTN1,2,B*%
%TO.N,/BTN1*%
X161000000Y-107093600D03*
%TD*%
%TO.P,JMP_BTN5,1,A*%
%TO.N,/BTN5*%
X161000000Y-99093600D03*
%TO.P,JMP_BTN5,2,B*%
%TO.N,Net-(JMP_BTN1-A)*%
X161000000Y-99906400D03*
%TD*%
D22*
%TO.P,R5,1*%
%TO.N,GND*%
X155877500Y-91130000D03*
%TO.P,R5,2*%
%TO.N,Net-(USB1-CC1)*%
X157702500Y-91130000D03*
%TD*%
D23*
%TO.P,C3,1*%
%TO.N,5V*%
X171490900Y-110480000D03*
%TO.P,C3,2*%
%TO.N,GND*%
X173390900Y-110480000D03*
%TD*%
%TO.P,C6,1*%
%TO.N,GND*%
X123681800Y-98590000D03*
%TO.P,C6,2*%
%TO.N,/RST*%
X125581800Y-98590000D03*
%TD*%
D24*
%TO.P,IC1,1,ADJ*%
%TO.N,GND*%
X169755000Y-103660000D03*
%TO.P,IC1,2,OUT*%
%TO.N,+3.3V*%
X167455000Y-103660000D03*
D25*
%TO.P,IC1,2B*%
%TO.N,N/C*%
X167455000Y-110060000D03*
D24*
%TO.P,IC1,3,IN*%
%TO.N,5V*%
X165255000Y-103660000D03*
%TD*%
D26*
%TO.P,J3,1,Pin_1*%
%TO.N,/RST*%
X127620000Y-109610000D03*
%TO.P,J3,2,Pin_2*%
%TO.N,/SWDIO*%
X130160000Y-109610000D03*
%TO.P,J3,3,Pin_3*%
%TO.N,/SWCLK*%
X132700000Y-109610000D03*
%TO.P,J3,4,Pin_4*%
%TO.N,GND*%
X135240000Y-109610000D03*
%TO.P,J3,5,Pin_5*%
%TO.N,+3.3V*%
X137780000Y-109610000D03*
%TD*%
D27*
%TO.P,C1,1*%
%TO.N,GND*%
X174450000Y-107250000D03*
%TO.P,C1,2*%
%TO.N,+3.3V*%
X172550000Y-107250000D03*
%TD*%
D28*
%TO.P,CH1,1,1*%
%TO.N,Net-(JMP_BTN1-A)*%
X145000000Y-103750000D03*
%TO.P,CH1,2,2*%
%TO.N,+3.3V*%
X150000000Y-105950000D03*
%TD*%
D29*
%TO.N,/BTN2*%
X133750000Y-107250000D03*
X135276498Y-103876000D03*
%TO.N,/BTN3*%
X133104600Y-106361800D03*
X133512000Y-103804100D03*
%TO.N,+3.3V*%
X134441000Y-91970000D03*
X167454998Y-103660000D03*
X134350883Y-103813746D03*
X127672842Y-105973013D03*
X132250000Y-104000000D03*
X129514000Y-92650000D03*
X127750000Y-107673013D03*
X172549998Y-107250000D03*
X137624500Y-98862200D03*
X131941000Y-92280000D03*
%TO.N,/BTN7*%
X134085100Y-98218400D03*
%TO.N,GND*%
X174449998Y-107250000D03*
X138900000Y-107600000D03*
X128625000Y-100125000D03*
X177742499Y-95060001D03*
X144250000Y-107750000D03*
X143000000Y-98000000D03*
X123682000Y-98590000D03*
X173391000Y-110480000D03*
X169755000Y-103660000D03*
X154783400Y-93473600D03*
%TO.N,5V*%
X167311393Y-93688607D03*
X165254998Y-103660000D03*
%TO.N,/RST*%
X125582000Y-98590000D03*
X129313500Y-107916500D03*
%TO.N,/SWCLK*%
X133161400Y-98693500D03*
%TO.N,/SWDIO*%
X129941200Y-96339100D03*
%TO.N,Net-(JMP_BTN1-A)*%
X162200000Y-97900000D03*
X162200000Y-95900000D03*
X162200000Y-103900000D03*
X162200000Y-105900000D03*
X141755000Y-103750000D03*
X162200000Y-99900000D03*
X162200000Y-107900000D03*
X154750000Y-107900000D03*
X162200000Y-101900000D03*
X162200000Y-93900000D03*
%TO.N,Net-(U1-PB8-BOOT0)*%
X146941000Y-106829500D03*
%TO.N,Net-(USB1-CC1)*%
X157702000Y-91130000D03*
X152914000Y-95795400D03*
%TD*%
D30*
%TO.N,Net-(U1-PA12)*%
X135329800Y-96688500D02*
X135330000Y-96688500D01*
X137588000Y-92500000D02*
X137587500Y-92500000D01*
X135330000Y-94713900D02*
X135330000Y-96688500D01*
X137544000Y-92500000D02*
X135330000Y-94713900D01*
X137587500Y-92500000D02*
X137544000Y-92500000D01*
%TO.N,/BTN2*%
X172037000Y-100121000D02*
X170205000Y-101953000D01*
X135979800Y-104376001D02*
X135479799Y-103876000D01*
X157552000Y-107332000D02*
X155582000Y-109302000D01*
X157552000Y-106698000D02*
X157552000Y-107332000D01*
X135979800Y-105113500D02*
X135979800Y-104376001D01*
X128173013Y-107023013D02*
X128400000Y-107250000D01*
X176514000Y-110328000D02*
X176513700Y-110327700D01*
X135979800Y-105113500D02*
X135980000Y-105113700D01*
X164297000Y-101953000D02*
X162801000Y-103449000D01*
X162801000Y-103449000D02*
X162801000Y-104149000D01*
X176513800Y-110327600D02*
X176513700Y-110327700D01*
X142202000Y-109302000D02*
X139453000Y-106553000D01*
X176513700Y-110327700D02*
X175750000Y-109564000D01*
X170205000Y-101953000D02*
X164297000Y-101953000D01*
X135980000Y-105113700D02*
X135980000Y-105114000D01*
X155582000Y-109302000D02*
X142202000Y-109302000D01*
X135479799Y-103876000D02*
X135276498Y-103876000D01*
X161000000Y-105094000D02*
X159156000Y-105094000D01*
X175750000Y-109564000D02*
X175750000Y-101250000D01*
X161000000Y-105093600D02*
X161000000Y-105094000D01*
X162801000Y-104149000D02*
X161856000Y-105094000D01*
X174621000Y-100121000D02*
X172037000Y-100121000D01*
X161856000Y-105094000D02*
X161000000Y-105094000D01*
X123541797Y-110334317D02*
X126853101Y-107023013D01*
X175750000Y-101250000D02*
X174621000Y-100121000D01*
X139453000Y-106553000D02*
X136762000Y-106553000D01*
X135980000Y-105771000D02*
X135980000Y-105114000D01*
X128400000Y-107250000D02*
X133750000Y-107250000D01*
X126853101Y-107023013D02*
X128173013Y-107023013D01*
X136762000Y-106553000D02*
X135980000Y-105771000D01*
X159156000Y-105094000D02*
X157552000Y-106698000D01*
%TO.N,/BTN8*%
X164660100Y-99500000D02*
X166249900Y-99500000D01*
X142250000Y-96000000D02*
X143750000Y-97500000D01*
X159156000Y-93093600D02*
X154750000Y-97500000D01*
X144419239Y-97500000D02*
X140368239Y-101551000D01*
X138892300Y-101551000D02*
X138892000Y-101551000D01*
X176000000Y-97250000D02*
X178750000Y-97250000D01*
X133115900Y-92920000D02*
X135637600Y-92920000D01*
X137083300Y-91474300D02*
X138113600Y-91474300D01*
X132664400Y-93371500D02*
X133115900Y-92920000D01*
X181050902Y-95746902D02*
X181096700Y-95792700D01*
X140368239Y-101551000D02*
X138892300Y-101551000D01*
X161000000Y-93093600D02*
X159156000Y-93093600D01*
X127447300Y-93630200D02*
X127613600Y-93463900D01*
X130454700Y-93463900D02*
X130547100Y-93371500D01*
X162244000Y-93093600D02*
X163724000Y-94574100D01*
X180253098Y-95746902D02*
X181050902Y-95746902D01*
X127613600Y-93463900D02*
X130454700Y-93463900D01*
X181096700Y-95792700D02*
X181097000Y-95792900D01*
X143750000Y-97500000D02*
X144419239Y-97500000D01*
X181096500Y-95792900D02*
X181096700Y-95792700D01*
X127447300Y-93630200D02*
X127613600Y-93463900D01*
X138113600Y-91474300D02*
X138500000Y-91860700D01*
X121400818Y-94000000D02*
X127077500Y-94000000D01*
X163724000Y-94574100D02*
X163724000Y-98563900D01*
X163724000Y-98563900D02*
X164660100Y-99500000D01*
X118980200Y-95792900D02*
X119607918Y-95792900D01*
X170749900Y-95000000D02*
X173750000Y-95000000D01*
X130547100Y-93371500D02*
X132664400Y-93371500D01*
X166249900Y-99500000D02*
X170749900Y-95000000D01*
X161000000Y-93093600D02*
X162244000Y-93093600D01*
X138500000Y-91860700D02*
X138500000Y-95134600D01*
X139365400Y-96000000D02*
X142250000Y-96000000D01*
X135637600Y-92920000D02*
X137083300Y-91474300D01*
X119607918Y-95792900D02*
X121400818Y-94000000D01*
X178750000Y-97250000D02*
X180253098Y-95746902D01*
X127077500Y-94000000D02*
X127447300Y-93630200D01*
X154750000Y-97500000D02*
X144419239Y-97500000D01*
X173750000Y-95000000D02*
X176000000Y-97250000D01*
X138500000Y-95134600D02*
X139365400Y-96000000D01*
%TO.N,/BTN6*%
X162244000Y-97093600D02*
X162922000Y-97772100D01*
X172802000Y-95802000D02*
X177637900Y-100637900D01*
X146899000Y-101399000D02*
X148000000Y-102500000D01*
X132508600Y-98468100D02*
X131414800Y-97374300D01*
X137922100Y-102851000D02*
X135590500Y-100519400D01*
X138892300Y-102851000D02*
X140649000Y-102851000D01*
X159156000Y-97093600D02*
X161000000Y-97093600D01*
X166582000Y-100302000D02*
X171082000Y-95802000D01*
X156750000Y-99500000D02*
X159156000Y-97093600D01*
X140649000Y-102851000D02*
X142101000Y-101399000D01*
X135590500Y-100519400D02*
X134136200Y-100519400D01*
X156750000Y-100448000D02*
X156750000Y-99500000D01*
X126632853Y-99639047D02*
X121506453Y-99639047D01*
X154698000Y-102500000D02*
X156750000Y-100448000D01*
X142101000Y-101399000D02*
X146899000Y-101399000D01*
X128897600Y-97374300D02*
X126632853Y-99639047D01*
X121506453Y-99639047D02*
X120507700Y-100637800D01*
X162922000Y-98896100D02*
X164328000Y-100302000D01*
X132508600Y-98891800D02*
X132508600Y-98468100D01*
X162922000Y-97772100D02*
X162922000Y-98896100D01*
X131414800Y-97374300D02*
X128897600Y-97374300D01*
X171082000Y-95802000D02*
X172802000Y-95802000D01*
X161000000Y-97093600D02*
X162244000Y-97093600D01*
X148000000Y-102500000D02*
X154698000Y-102500000D01*
X177637900Y-100637900D02*
X179568900Y-100637900D01*
X138892300Y-102851000D02*
X137922100Y-102851000D01*
X179569000Y-100637800D02*
X179568900Y-100637900D01*
X179568900Y-100637900D02*
X179569000Y-100638000D01*
X134136200Y-100519400D02*
X132508600Y-98891800D01*
X164328000Y-100302000D02*
X166582000Y-100302000D01*
%TO.N,/BTN5*%
X172500000Y-96250000D02*
X178645500Y-102395500D01*
X135477000Y-101292000D02*
X134340800Y-101292000D01*
X160682000Y-99093600D02*
X161000000Y-99093600D01*
X142856000Y-101799000D02*
X146483000Y-101799000D01*
X160589000Y-99000000D02*
X160682000Y-99093600D01*
X134340800Y-101292000D02*
X132106900Y-99058100D01*
X132106900Y-98634400D02*
X131248500Y-97776000D01*
X137686000Y-103501000D02*
X135477000Y-101292000D01*
X171250000Y-96250000D02*
X172500000Y-96250000D01*
X164000000Y-100750000D02*
X166750000Y-100750000D01*
X178645500Y-102395500D02*
X178805000Y-102395500D01*
X166750000Y-100750000D02*
X171250000Y-96250000D01*
X178805200Y-102395700D02*
X178805200Y-103060200D01*
X159066000Y-99000000D02*
X160589000Y-99000000D01*
X147584000Y-102900000D02*
X155166000Y-102900000D01*
X155166000Y-102900000D02*
X159066000Y-99000000D01*
X161000000Y-99093600D02*
X162344000Y-99093600D01*
X129585600Y-97776000D02*
X127289061Y-100072539D01*
X124259161Y-100072539D02*
X121271500Y-103060200D01*
X162344000Y-99093600D02*
X164000000Y-100750000D01*
X178805000Y-102395500D02*
X178805200Y-102395700D01*
X131248500Y-97776000D02*
X129585600Y-97776000D01*
X132106900Y-99058100D02*
X132106900Y-98634400D01*
X178805000Y-102395500D02*
X178805000Y-103060000D01*
X141154000Y-103501000D02*
X142856000Y-101799000D01*
X138892300Y-103501000D02*
X137686000Y-103501000D01*
X146483000Y-101799000D02*
X147584000Y-102900000D01*
X138892300Y-103501000D02*
X141154000Y-103501000D01*
X127289061Y-100072539D02*
X124259161Y-100072539D01*
%TO.N,/BTN3*%
X139785000Y-106152000D02*
X137011000Y-106152000D01*
X159156000Y-103094000D02*
X157151000Y-105099000D01*
X163948000Y-101552000D02*
X162406000Y-103094000D01*
X136630000Y-105442500D02*
X136629800Y-105442300D01*
X177278000Y-107905000D02*
X177039500Y-107666500D01*
X176500000Y-107127000D02*
X176500000Y-101433000D01*
X176500000Y-101433000D02*
X174787000Y-99720000D01*
X137011000Y-106152000D02*
X136630000Y-105771000D01*
X136629800Y-104310063D02*
X136629800Y-105113500D01*
X133104600Y-106361800D02*
X132843387Y-106623013D01*
X162406000Y-103094000D02*
X161000000Y-103094000D01*
X174787000Y-99720000D02*
X171871000Y-99720000D01*
X170039000Y-101552000D02*
X163948000Y-101552000D01*
X155416000Y-108901000D02*
X142534000Y-108901000D01*
X171871000Y-99720000D02*
X170039000Y-101552000D01*
X157151000Y-105099000D02*
X157151000Y-107166000D01*
X133512000Y-103804100D02*
X134183500Y-103132600D01*
X157151000Y-107166000D02*
X155416000Y-108901000D01*
X177039500Y-107666500D02*
X176500000Y-107127000D01*
X135452337Y-103132600D02*
X136629800Y-104310063D01*
X136629800Y-105442300D02*
X136629800Y-105113500D01*
X136630000Y-105771000D02*
X136630000Y-105442500D01*
X177277600Y-107904600D02*
X177277600Y-107905100D01*
X136630000Y-105442500D02*
X136630000Y-105114000D01*
X142534000Y-108901000D02*
X139785000Y-106152000D01*
X161000000Y-103094000D02*
X159156000Y-103094000D01*
X132843387Y-106623013D02*
X124081187Y-106623013D01*
X134183500Y-103132600D02*
X135452337Y-103132600D01*
X124081187Y-106623013D02*
X122799100Y-107905100D01*
X161000000Y-103093600D02*
X161000000Y-103094000D01*
X177039500Y-107666500D02*
X177277600Y-107904600D01*
%TO.N,+3.3V*%
X134440900Y-91970000D02*
X134030000Y-91970000D01*
X124326700Y-112750000D02*
X126269000Y-110807700D01*
X138803500Y-98862200D02*
X138892300Y-98951000D01*
X134679800Y-104096900D02*
X134679800Y-105113500D01*
X137624500Y-98862200D02*
X138803500Y-98862200D01*
X134030000Y-91970000D02*
X133720000Y-92280000D01*
X131571000Y-92650000D02*
X131941000Y-92280000D01*
X132250000Y-104000000D02*
X132079800Y-104170200D01*
X129514000Y-92650000D02*
X129513600Y-92650000D01*
X126269000Y-110807700D02*
X126269000Y-108981000D01*
X129514000Y-92650000D02*
X131571000Y-92650000D01*
X134441000Y-91970000D02*
X134440900Y-91970000D01*
X133720000Y-92280000D02*
X131941000Y-92280000D01*
X134350883Y-103813746D02*
X134396646Y-103813746D01*
X126269000Y-108981000D02*
X127576987Y-107673013D01*
X128738269Y-105113500D02*
X127878756Y-105973013D01*
X132079800Y-105113500D02*
X128738269Y-105113500D01*
X131941000Y-92280000D02*
X131940900Y-92280000D01*
X127878756Y-105973013D02*
X127672842Y-105973013D01*
X127576987Y-107673013D02*
X127750000Y-107673013D01*
X134396646Y-103813746D02*
X134679800Y-104096900D01*
X132079800Y-104170200D02*
X132079800Y-105113500D01*
%TO.N,/BTN7*%
X138892000Y-102201000D02*
X138067700Y-102201000D01*
X162344000Y-95093600D02*
X163323000Y-96073000D01*
X159156000Y-95093600D02*
X161000000Y-95093600D01*
X176215400Y-98215400D02*
X180333000Y-98215400D01*
X163323000Y-96073000D02*
X163323000Y-98730000D01*
X156301000Y-97949000D02*
X159156000Y-95093600D01*
X144652000Y-97949000D02*
X156301000Y-97949000D01*
X138892000Y-102201000D02*
X138892300Y-102201000D01*
X163323000Y-98730000D02*
X164494000Y-99901000D01*
X140400000Y-102201000D02*
X144652000Y-97949000D01*
X161000000Y-95093600D02*
X162344000Y-95093600D01*
X170916000Y-95401000D02*
X173401000Y-95401000D01*
X173401000Y-95401000D02*
X176215400Y-98215400D01*
X138892300Y-102201000D02*
X140400000Y-102201000D01*
X164494000Y-99901000D02*
X166416000Y-99901000D01*
X166416000Y-99901000D02*
X170916000Y-95401000D01*
X138067700Y-102201000D02*
X134085100Y-98218400D01*
%TO.N,/BTN4*%
X128708483Y-104577600D02*
X127963070Y-105323013D01*
X127963070Y-105323013D02*
X127259687Y-105323013D01*
X156750000Y-107000000D02*
X155250000Y-108500000D01*
X174953000Y-99319000D02*
X171705000Y-99319000D01*
X132187200Y-103132600D02*
X130742200Y-104577600D01*
X127259687Y-105323013D02*
X127100000Y-105482700D01*
X133513700Y-102730900D02*
X135634699Y-102730900D01*
X171705000Y-99319000D02*
X169873000Y-101151000D01*
X161000000Y-101094000D02*
X161028100Y-101122100D01*
X142700000Y-108500000D02*
X139314000Y-105114000D01*
X159156000Y-101094000D02*
X156750000Y-103500000D01*
X161057000Y-101151000D02*
X161028100Y-101122100D01*
X130742200Y-104577600D02*
X128708483Y-104577600D01*
X135634699Y-102730900D02*
X137279800Y-104376001D01*
X133278300Y-102966300D02*
X133513700Y-102730900D01*
X133278300Y-102966300D02*
X133112000Y-103132600D01*
X155250000Y-108500000D02*
X142700000Y-108500000D01*
X161028100Y-101122100D02*
X161000000Y-101094000D01*
X156750000Y-103500000D02*
X156750000Y-107000000D01*
X169873000Y-101151000D02*
X161057000Y-101151000D01*
X177802500Y-105244500D02*
X177250000Y-104692000D01*
X177802500Y-105244500D02*
X177803200Y-105244500D01*
X137280000Y-105113700D02*
X137280000Y-105114000D01*
X177250000Y-101616000D02*
X174953000Y-99319000D01*
X137279800Y-104376001D02*
X137279800Y-105113500D01*
X178041000Y-105483000D02*
X177802500Y-105244500D01*
X137279800Y-105113500D02*
X137280000Y-105113700D01*
X177250000Y-104692000D02*
X177250000Y-101616000D01*
X127100000Y-105482700D02*
X122035300Y-105482700D01*
X177803200Y-105244500D02*
X178041400Y-105482700D01*
X139314000Y-105114000D02*
X137280000Y-105114000D01*
X133112000Y-103132600D02*
X132187200Y-103132600D01*
X161000000Y-101094000D02*
X159156000Y-101094000D01*
X133278300Y-102966300D02*
X133112000Y-103132600D01*
X161000000Y-101093600D02*
X161000000Y-101094000D01*
%TO.N,/BTN1*%
X135330000Y-105771000D02*
X136513000Y-106954000D01*
X142036000Y-109703000D02*
X156547000Y-109703000D01*
X135330000Y-105113700D02*
X135330000Y-105114000D01*
X156547000Y-109703000D02*
X159156000Y-107094000D01*
X136513000Y-106954000D02*
X139287000Y-106954000D01*
X160999600Y-107094000D02*
X161000000Y-107093600D01*
X139287000Y-106954000D02*
X142036000Y-109703000D01*
X160632500Y-107094000D02*
X161000000Y-107094000D01*
X160632500Y-107094000D02*
X160999600Y-107094000D01*
X135329800Y-105113500D02*
X135330000Y-105113700D01*
X135330000Y-105114000D02*
X135330000Y-105771000D01*
X159156000Y-107094000D02*
X160632500Y-107094000D01*
%TO.N,GND*%
X145680000Y-90705000D02*
X146775000Y-91800000D01*
X135240000Y-109610000D02*
X137250000Y-107600000D01*
X131941000Y-94180000D02*
X131940900Y-94180000D01*
X154783400Y-93473600D02*
X154035300Y-94221700D01*
X144155100Y-91270000D02*
X144155000Y-91270000D01*
X173391000Y-110480000D02*
X174950000Y-108921000D01*
X138892300Y-99601000D02*
X141399000Y-99601000D01*
X137250000Y-107600000D02*
X138900000Y-107600000D01*
X154035300Y-94221700D02*
X153225000Y-94221700D01*
X174950000Y-107750002D02*
X174449998Y-107250000D01*
X129514000Y-94550000D02*
X131571000Y-94550000D01*
X153225000Y-92695000D02*
X153225000Y-94221700D01*
X123682000Y-98590000D02*
X123681800Y-98590000D01*
X154320000Y-91280000D02*
X154470000Y-91130000D01*
X141399000Y-99601000D02*
X143000000Y-98000000D01*
X129514000Y-94550000D02*
X126964000Y-97100000D01*
X145680000Y-91280000D02*
X145680000Y-90705000D01*
X146775000Y-91800000D02*
X146775000Y-92695000D01*
X134441000Y-93870000D02*
X134440900Y-93870000D01*
X144155100Y-91121100D02*
X144155100Y-91270000D01*
X174950000Y-108921000D02*
X174950000Y-107750002D01*
X131571000Y-94550000D02*
X131941000Y-94180000D01*
X121865000Y-96773200D02*
X123681800Y-98590000D01*
X154470000Y-91130000D02*
X155877500Y-91130000D01*
X129514000Y-94550000D02*
X129513600Y-94550000D01*
X126964000Y-97100000D02*
X125172000Y-97100000D01*
X129401000Y-100901000D02*
X128625000Y-100125000D01*
X130467300Y-100901000D02*
X129401000Y-100901000D01*
X125172000Y-97100000D02*
X123682000Y-98590000D01*
X131941000Y-94180000D02*
X134131000Y-94180000D01*
X145680000Y-91280000D02*
X144314000Y-91280000D01*
X144314000Y-91280000D02*
X144155100Y-91121100D01*
X173391000Y-110480000D02*
X173390900Y-110480000D01*
X121865000Y-95305000D02*
X121865000Y-96773200D01*
X134131000Y-94180000D02*
X134441000Y-93870000D01*
D31*
%TO.N,5V*%
X153000000Y-95000000D02*
X156250000Y-95000000D01*
D30*
X171490900Y-109869500D02*
X171490900Y-110480000D01*
D31*
X156250000Y-95000000D02*
X159250000Y-92000000D01*
X171491000Y-109869400D02*
X171464398Y-109869400D01*
X165622786Y-92000000D02*
X167311393Y-93688607D01*
X152424000Y-93357500D02*
X152424000Y-94424000D01*
D30*
X147550000Y-92695000D02*
X147550000Y-91418000D01*
X147550000Y-91418000D02*
X149218000Y-89750000D01*
D31*
X171464398Y-109869400D02*
X165254998Y-103660000D01*
D30*
X150934000Y-89750000D02*
X152450000Y-91266000D01*
D31*
X152424000Y-93357500D02*
X152424000Y-92695000D01*
D30*
X152450000Y-91266000D02*
X152450000Y-92695000D01*
D31*
X171491000Y-109869400D02*
X171491000Y-110480000D01*
D30*
X152424000Y-93357500D02*
X152450000Y-93331500D01*
X171491000Y-109869400D02*
X171490900Y-109869500D01*
D31*
X159250000Y-92000000D02*
X165622786Y-92000000D01*
D30*
X149218000Y-89750000D02*
X150934000Y-89750000D01*
D31*
X152424000Y-94424000D02*
X153000000Y-95000000D01*
D30*
X152450000Y-93331500D02*
X152450000Y-92695000D01*
%TO.N,/RST*%
X134410930Y-106152000D02*
X134410930Y-107464070D01*
X134410930Y-107464070D02*
X133958500Y-107916500D01*
X134029800Y-105770870D02*
X134410930Y-106152000D01*
X134029800Y-105113500D02*
X134029800Y-105770870D01*
X133958500Y-107916500D02*
X129313500Y-107916500D01*
X125581800Y-98590000D02*
X125582000Y-98590000D01*
%TO.N,/SWCLK*%
X133161400Y-98291300D02*
X134029800Y-97422900D01*
X133161400Y-98693500D02*
X133161400Y-98291300D01*
X134029800Y-97422900D02*
X134029800Y-96688500D01*
%TO.N,/SWDIO*%
X134679800Y-96688500D02*
X134679800Y-96024200D01*
X134679800Y-96024200D02*
X134304200Y-95648600D01*
X134304200Y-95648600D02*
X130631700Y-95648600D01*
X130631700Y-95648600D02*
X129941200Y-96339100D01*
%TO.N,Net-(JMP_BTN1-A)*%
X154650000Y-108000000D02*
X149000000Y-108000000D01*
X161000000Y-97906400D02*
X162194000Y-97906400D01*
X162200000Y-95900000D02*
X162113000Y-95900000D01*
X149000000Y-108000000D02*
X147000000Y-106000000D01*
X161000000Y-103906000D02*
X162194000Y-103906000D01*
X161000000Y-99906400D02*
X162194000Y-99906400D01*
X162194000Y-101906000D02*
X162200000Y-101900000D01*
X145000000Y-103750000D02*
X141755000Y-103750000D01*
X161000000Y-107906400D02*
X161000000Y-107906000D01*
X162194000Y-103906000D02*
X162200000Y-103900000D01*
X161000000Y-105906000D02*
X162194000Y-105906000D01*
X162194000Y-93906400D02*
X162200000Y-93900000D01*
X154750000Y-107900000D02*
X154650000Y-108000000D01*
X161000000Y-101906000D02*
X162194000Y-101906000D01*
X162194000Y-105906000D02*
X162200000Y-105900000D01*
X162106000Y-95906400D02*
X161000000Y-95906400D01*
X162113000Y-95900000D02*
X162106000Y-95906400D01*
X161000000Y-107906000D02*
X162194000Y-107906000D01*
X162194000Y-97906400D02*
X162200000Y-97900000D01*
X161000000Y-103906400D02*
X161000000Y-103906000D01*
X161000000Y-93906400D02*
X162194000Y-93906400D01*
X161000000Y-101906400D02*
X161000000Y-101906000D01*
X144005000Y-106000000D02*
X141755000Y-103750000D01*
X162194000Y-107906000D02*
X162200000Y-107900000D01*
X147000000Y-106000000D02*
X144005000Y-106000000D01*
X162194000Y-99906400D02*
X162200000Y-99900000D01*
X161000000Y-105906400D02*
X161000000Y-105906000D01*
%TO.N,Net-(U1-PB8-BOOT0)*%
X141976800Y-106829500D02*
X139857800Y-104710500D01*
X171810000Y-93810000D02*
X171525000Y-93525000D01*
X135310700Y-101693800D02*
X132999700Y-101693800D01*
X139857800Y-104710500D02*
X138327400Y-104710500D01*
X170525000Y-94525000D02*
X171525000Y-93525000D01*
X166025000Y-94525000D02*
X170525000Y-94525000D01*
X173877500Y-93810000D02*
X175127500Y-95060000D01*
X173877500Y-93810000D02*
X171810000Y-93810000D01*
X138327400Y-104710500D02*
X135310700Y-101693800D01*
X175127500Y-95060000D02*
X175917500Y-95060000D01*
X165025000Y-93525000D02*
X166025000Y-94525000D01*
X132999700Y-101693800D02*
X131556900Y-100251000D01*
X146941000Y-106829500D02*
X141976800Y-106829500D01*
X131556900Y-100251000D02*
X130467300Y-100251000D01*
%TO.N,Net-(U1-PA11)*%
X137588000Y-94500000D02*
X137587500Y-94500000D01*
X136500000Y-94500000D02*
X135980000Y-95020200D01*
X137587500Y-94500000D02*
X136500000Y-94500000D01*
X135979800Y-96688500D02*
X135980000Y-96688500D01*
X135980000Y-95020200D02*
X135980000Y-96688500D01*
%TO.N,Net-(USB1-CC2)*%
X147472000Y-94900000D02*
X145960000Y-94900000D01*
X148250000Y-92695000D02*
X148250000Y-94122000D01*
X148250000Y-94122000D02*
X147472000Y-94900000D01*
X145960000Y-94900000D02*
X142330000Y-91270000D01*
%TO.N,Net-(USB1-CC1)*%
X152914000Y-95795400D02*
X152914000Y-95783900D01*
X151250000Y-94120000D02*
X151250000Y-92695000D01*
X152914000Y-95783900D02*
X151250000Y-94120000D01*
X157702000Y-91130000D02*
X157702500Y-91130000D01*
%TO.N,/D+*%
X144218000Y-96650000D02*
X148782000Y-96650000D01*
X150250000Y-94157900D02*
X149775000Y-94632900D01*
X140843000Y-93275000D02*
X144218000Y-96650000D01*
X149250000Y-94225000D02*
X149250000Y-92695000D01*
X149775000Y-94632900D02*
X149775000Y-94750000D01*
X140375000Y-93275000D02*
X140843000Y-93275000D01*
X139600000Y-92500000D02*
X140375000Y-93275000D01*
X149775000Y-94750000D02*
X149250000Y-94225000D01*
X149775000Y-95656800D02*
X149775000Y-94750000D01*
X139412000Y-92500000D02*
X139412500Y-92500000D01*
X139412500Y-92500000D02*
X139600000Y-92500000D01*
X150250000Y-92695000D02*
X150250000Y-94157900D01*
X148782000Y-96650000D02*
X149775000Y-95656800D01*
%TO.N,/D-*%
X149750000Y-92695000D02*
X149750000Y-91250000D01*
X139600000Y-94500000D02*
X140375000Y-93725000D01*
X140657000Y-93725000D02*
X144032000Y-97100000D01*
X149750000Y-91250000D02*
X150250000Y-90750000D01*
X150750000Y-94225000D02*
X150750000Y-92695000D01*
X144032000Y-97100000D02*
X148968000Y-97100000D01*
X139412500Y-94500000D02*
X139600000Y-94500000D01*
X150225000Y-94750000D02*
X150750000Y-94225000D01*
X150225000Y-95843200D02*
X150225000Y-94750000D01*
X140375000Y-93725000D02*
X140657000Y-93725000D01*
X150750000Y-91250000D02*
X150750000Y-92695000D01*
X150250000Y-90750000D02*
X150750000Y-91250000D01*
X139412000Y-94500000D02*
X139412500Y-94500000D01*
X148968000Y-97100000D02*
X150225000Y-95843200D01*
%TD*%
M02*
