M48
; DRILL file {KiCad 9.0.6} date 2026-01-11T15:28:49-0800
; FORMAT={-:-/ absolute / metric / decimal}
; #@! TF.CreationDate,2026-01-11T15:28:49-08:00
; #@! TF.GenerationSoftware,Kicad,Pcbnew,9.0.6
; #@! TF.FileFunction,Plated,1,2,PTH
FMAT,2
METRIC
; #@! TA.AperFunction,Plated,PTH,ViaDrill
T1C0.300
; #@! TA.AperFunction,Plated,PTH,ComponentDrill
T2C0.600
; #@! TA.AperFunction,Plated,PTH,ComponentDrill
T3C0.800
; #@! TA.AperFunction,Plated,PTH,ComponentDrill
T4C1.016
; #@! TA.AperFunction,Plated,PTH,ComponentDrill
T5C1.100
; #@! TA.AperFunction,Plated,PTH,ComponentDrill
T6C1.400
; #@! TA.AperFunction,Plated,PTH,ComponentDrill
T7C3.000
%
G90
G05
T1
X123.682Y-98.59
X125.582Y-98.59
X127.673Y-105.973
X127.75Y-107.673
X128.625Y-100.125
X129.314Y-107.916
X129.514Y-92.65
X129.941Y-96.339
X131.941Y-92.28
X132.25Y-104.0
X133.105Y-106.362
X133.161Y-98.694
X133.512Y-103.804
X133.75Y-107.25
X134.085Y-98.218
X134.351Y-103.814
X134.441Y-91.97
X135.276Y-103.876
X137.624Y-98.862
X138.9Y-107.6
X141.755Y-103.75
X143.0Y-98.0
X144.25Y-107.75
X146.941Y-106.829
X152.914Y-95.795
X154.75Y-107.9
X154.783Y-93.474
X157.702Y-91.13
X162.2Y-93.9
X162.2Y-95.9
X162.2Y-97.9
X162.2Y-99.9
X162.2Y-101.9
X162.2Y-103.9
X162.2Y-105.9
X162.2Y-107.9
X165.255Y-103.66
X167.311Y-93.689
X167.455Y-103.66
X169.755Y-103.66
X172.55Y-107.25
X173.391Y-110.48
X174.45Y-107.25
X177.742Y-95.06
T3
X121.865Y-95.305
X126.945Y-95.305
T4
X118.98Y-95.793
X119.744Y-98.215
X120.508Y-100.638
X121.272Y-103.06
X122.035Y-105.483
X122.799Y-107.905
X123.563Y-110.328
X124.327Y-112.75
X175.75Y-112.75
X176.493Y-110.321
X177.235Y-107.892
X177.978Y-105.463
X178.72Y-103.034
X179.463Y-100.605
X180.206Y-98.176
X180.948Y-95.747
T5
X165.025Y-93.525
X165.025Y-98.025
X171.525Y-93.525
X171.525Y-98.025
T6
X127.62Y-109.61
X130.16Y-109.61
X132.7Y-109.61
X135.24Y-109.61
X137.78Y-109.61
T7
X145.0Y-103.75
X150.0Y-105.95
T2
G00X145.68Y-87.4
M15
G01X145.68Y-86.8
M16
G05
G00X145.68Y-91.83
M15
G01X145.68Y-90.73
M16
G05
G00X154.32Y-91.83
M15
G01X154.32Y-90.73
M16
G05
G00X154.32Y-87.4
M15
G01X154.32Y-86.8
M16
G05
M30
