%TF.GenerationSoftware,KiCad,Pcbnew,9.0.6*%
%TF.CreationDate,2026-01-11T15:28:45-08:00*%
%TF.ProjectId,pcb,7063622e-6b69-4636-9164-5f7063625858,rev?*%
%TF.SameCoordinates,Original*%
%TF.FileFunction,Soldermask,Top*%
%TF.FilePolarity,Negative*%
%FSLAX46Y46*%
G04 Gerber Fmt 4.6, Leading zero omitted, Abs format (unit mm)*
G04 Created by KiCad (PCBNEW 9.0.6) date 2026-01-11 15:28:45*
%MOMM*%
%LPD*%
G01*
G04 APERTURE LIST*
G04 Aperture macros list*
%AMRoundRect*
0 Rectangle with rounded corners*
0 $1 Rounding radius*
0 $2 $3 $4 $5 $6 $7 $8 $9 X,Y pos of 4 corners*
0 Add a 4 corners polygon primitive as box body*
4,1,4,$2,$3,$4,$5,$6,$7,$8,$9,$2,$3,0*
0 Add four circle primitives for the rounded corners*
1,1,$1+$1,$2,$3*
1,1,$1+$1,$4,$5*
1,1,$1+$1,$6,$7*
1,1,$1+$1,$8,$9*
0 Add four rect primitives between the rounded corners*
20,1,$1+$1,$2,$3,$4,$5,0*
20,1,$1+$1,$4,$5,$6,$7,0*
20,1,$1+$1,$6,$7,$8,$9,0*
20,1,$1+$1,$8,$9,$2,$3,0*%
G04 Aperture macros list end*
%ADD10C,2.000000*%
%ADD11R,1.270000X0.635000*%
%ADD12RoundRect,0.250000X0.475000X-0.250000X0.475000X0.250000X-0.475000X0.250000X-0.475000X-0.250000X0*%
%ADD13C,1.879600*%
%ADD14RoundRect,0.250000X0.262500X0.450000X-0.262500X0.450000X-0.262500X-0.450000X0.262500X-0.450000X0*%
%ADD15C,1.900000*%
%ADD16C,0.650000*%
%ADD17R,0.600000X2.450000*%
%ADD18R,0.300000X2.450000*%
%ADD19RoundRect,0.100000X0.100000X-0.637500X0.100000X0.637500X-0.100000X0.637500X-0.100000X-0.637500X0*%
%ADD20RoundRect,0.100000X0.637500X-0.100000X0.637500X0.100000X-0.637500X0.100000X-0.637500X-0.100000X0*%
%ADD21RoundRect,0.250000X-0.262500X-0.450000X0.262500X-0.450000X0.262500X0.450000X-0.262500X0.450000X0*%
%ADD22RoundRect,0.250000X-0.250000X-0.475000X0.250000X-0.475000X0.250000X0.475000X-0.250000X0.475000X0*%
%ADD23R,1.200000X1.500000*%
%ADD24R,3.300000X1.500000*%
%ADD25C,2.100000*%
%ADD26RoundRect,0.250000X0.250000X0.475000X-0.250000X0.475000X-0.250000X-0.475000X0.250000X-0.475000X0*%
%ADD27C,1.700000*%
%ADD28C,3.400000*%
G04 APERTURE END LIST*
D10*
%TO.C,SW1*%
X165025000Y-93525000D03*
X171525000Y-93525000D03*
X165025000Y-98025000D03*
X171525000Y-98025000D03*
%TD*%
D11*
%TO.C,JMP_BTN2*%
X161000000Y-105093600D03*
X161000000Y-105906400D03*
%TD*%
D12*
%TO.C,C2*%
X134440900Y-93870000D03*
X134440900Y-91970000D03*
%TD*%
%TO.C,C5*%
X131940900Y-94180000D03*
X131940900Y-92280000D03*
%TD*%
D13*
%TO.C,J1*%
X124326700Y-112750000D03*
X123562907Y-110327559D03*
X122799115Y-107905118D03*
X122035322Y-105482677D03*
X121271529Y-103060236D03*
X120507736Y-100637795D03*
X119743944Y-98215354D03*
X118980151Y-95792913D03*
%TD*%
D11*
%TO.C,JMP_BTN8*%
X161000000Y-93093600D03*
X161000000Y-93906400D03*
%TD*%
D14*
%TO.C,R1*%
X177742500Y-95060000D03*
X175917500Y-95060000D03*
%TD*%
D15*
%TO.C,JP1*%
X126945000Y-95305000D03*
X121865000Y-95305000D03*
%TD*%
D11*
%TO.C,JMP_BTN7*%
X161000000Y-95093600D03*
X161000000Y-95906400D03*
%TD*%
%TO.C,JMP_BTN6*%
X161000000Y-97093600D03*
X161000000Y-97906400D03*
%TD*%
D14*
%TO.C,R3*%
X139412500Y-94500000D03*
X137587500Y-94500000D03*
%TD*%
D12*
%TO.C,C4*%
X129513600Y-94550000D03*
X129513600Y-92650000D03*
%TD*%
D16*
%TO.C,USB1*%
X152890000Y-90750000D03*
X147110000Y-90750000D03*
D17*
X153225000Y-92695000D03*
X152450001Y-92695000D03*
D18*
X151750000Y-92695000D03*
X151250001Y-92695000D03*
X150750000Y-92695000D03*
X150250000Y-92694999D03*
X149749999Y-92695000D03*
X149250000Y-92695000D03*
X148750000Y-92695001D03*
X148249999Y-92695000D03*
D17*
X147549999Y-92695000D03*
X146775001Y-92695000D03*
%TD*%
D11*
%TO.C,JMP_BTN3*%
X161000000Y-103093600D03*
X161000000Y-103906400D03*
%TD*%
%TO.C,JMP_BTN4*%
X161000000Y-101093600D03*
X161000000Y-101906400D03*
%TD*%
D19*
%TO.C,U1*%
X132079800Y-105113500D03*
X132729800Y-105113500D03*
X133379800Y-105113500D03*
X134029800Y-105113500D03*
X134679800Y-105113500D03*
X135329800Y-105113500D03*
X135979800Y-105113500D03*
X136629800Y-105113500D03*
X137279800Y-105113500D03*
D20*
X138892300Y-103501000D03*
X138892300Y-102851000D03*
X138892300Y-102201000D03*
X138892300Y-101551000D03*
X138892300Y-100901000D03*
X138892300Y-100251000D03*
X138892300Y-99601000D03*
X138892300Y-98951000D03*
X138892300Y-98301000D03*
D19*
X137279800Y-96688500D03*
X136629800Y-96688500D03*
X135979800Y-96688500D03*
X135329800Y-96688500D03*
X134679800Y-96688500D03*
X134029800Y-96688500D03*
X133379800Y-96688500D03*
X132729800Y-96688500D03*
X132079800Y-96688500D03*
D20*
X130467300Y-98301000D03*
X130467300Y-98951000D03*
X130467300Y-99601000D03*
X130467300Y-100251000D03*
X130467300Y-100901000D03*
X130467300Y-101551000D03*
X130467300Y-102201000D03*
X130467300Y-102851000D03*
X130467300Y-103501000D03*
%TD*%
D21*
%TO.C,R4*%
X142330000Y-91270000D03*
X144155000Y-91270000D03*
%TD*%
D13*
%TO.C,J2*%
X175750000Y-112750000D03*
X176492624Y-110320986D03*
X177235248Y-107891972D03*
X177977872Y-105462958D03*
X178720497Y-103033944D03*
X179463121Y-100604930D03*
X180205744Y-98175916D03*
X180948369Y-95746902D03*
%TD*%
D14*
%TO.C,R2*%
X139412500Y-92500000D03*
X137587500Y-92500000D03*
%TD*%
D11*
%TO.C,JMP_BTN1*%
X161000000Y-107906400D03*
X161000000Y-107093600D03*
%TD*%
%TO.C,JMP_BTN5*%
X161000000Y-99093600D03*
X161000000Y-99906400D03*
%TD*%
D21*
%TO.C,R5*%
X155877500Y-91130000D03*
X157702500Y-91130000D03*
%TD*%
D22*
%TO.C,C3*%
X171490900Y-110480000D03*
X173390900Y-110480000D03*
%TD*%
%TO.C,C6*%
X123681800Y-98590000D03*
X125581800Y-98590000D03*
%TD*%
D23*
%TO.C,IC1*%
X169755000Y-103660000D03*
X167455000Y-103660000D03*
D24*
X167455000Y-110060000D03*
D23*
X165255000Y-103660000D03*
%TD*%
D25*
%TO.C,J3*%
X127620000Y-109610000D03*
X130160000Y-109610000D03*
X132700000Y-109610000D03*
X135240000Y-109610000D03*
X137780000Y-109610000D03*
%TD*%
D26*
%TO.C,C1*%
X174450000Y-107250000D03*
X172550000Y-107250000D03*
%TD*%
D27*
%TO.C,CH1*%
X155500000Y-100000000D03*
D28*
X150000000Y-100000000D03*
D27*
X144500000Y-100000000D03*
%TD*%
M02*
