%TF.GenerationSoftware,KiCad,Pcbnew,9.0.6*%
%TF.CreationDate,2026-01-11T15:28:45-08:00*%
%TF.ProjectId,pcb,7063622e-6b69-4636-9164-5f7063625858,rev?*%
%TF.SameCoordinates,Original*%
%TF.FileFunction,Soldermask,Bot*%
%TF.FilePolarity,Negative*%
%FSLAX46Y46*%
G04 Gerber Fmt 4.6, Leading zero omitted, Abs format (unit mm)*
G04 Created by KiCad (PCBNEW 9.0.6) date 2026-01-11 15:28:45*
%MOMM*%
%LPD*%
G01*
G04 APERTURE LIST*
G04 Aperture macros list*
%AMRoundRect*
0 Rectangle with rounded corners*
0 $1 Rounding radius*
0 $2 $3 $4 $5 $6 $7 $8 $9 X,Y pos of 4 corners*
0 Add a 4 corners polygon primitive as box body*
4,1,4,$2,$3,$4,$5,$6,$7,$8,$9,$2,$3,0*
0 Add four circle primitives for the rounded corners*
1,1,$1+$1,$2,$3*
1,1,$1+$1,$4,$5*
1,1,$1+$1,$6,$7*
1,1,$1+$1,$8,$9*
0 Add four rect primitives between the rounded corners*
20,1,$1+$1,$2,$3,$4,$5,0*
20,1,$1+$1,$4,$5,$6,$7,0*
20,1,$1+$1,$6,$7,$8,$9,0*
20,1,$1+$1,$8,$9,$2,$3,0*%
G04 Aperture macros list end*
%ADD10C,2.000000*%
%ADD11C,1.879600*%
%ADD12C,1.900000*%
%ADD13C,0.650000*%
%ADD14O,1.000000X1.600000*%
%ADD15O,1.000000X2.100000*%
%ADD16C,2.100000*%
%ADD17C,1.700000*%
%ADD18C,3.400000*%
%ADD19C,3.300000*%
%ADD20RoundRect,0.260000X1.065000X1.040000X-1.065000X1.040000X-1.065000X-1.040000X1.065000X-1.040000X0*%
G04 APERTURE END LIST*
D10*
%TO.C,SW1*%
X165025000Y-93525000D03*
X171525000Y-93525000D03*
X165025000Y-98025000D03*
X171525000Y-98025000D03*
%TD*%
D11*
%TO.C,J1*%
X124326700Y-112750000D03*
X123562907Y-110327559D03*
X122799115Y-107905118D03*
X122035322Y-105482677D03*
X121271529Y-103060236D03*
X120507736Y-100637795D03*
X119743944Y-98215354D03*
X118980151Y-95792913D03*
%TD*%
D12*
%TO.C,JP1*%
X126945000Y-95305000D03*
X121865000Y-95305000D03*
%TD*%
D13*
%TO.C,USB1*%
X152890000Y-90750000D03*
X147110000Y-90750000D03*
D14*
X154320001Y-87100000D03*
D15*
X154320000Y-91280000D03*
X145680000Y-91280000D03*
D14*
X145680000Y-87100000D03*
%TD*%
D11*
%TO.C,J2*%
X175750000Y-112750000D03*
X176492624Y-110320986D03*
X177235248Y-107891972D03*
X177977872Y-105462958D03*
X178720497Y-103033944D03*
X179463121Y-100604930D03*
X180205744Y-98175916D03*
X180948369Y-95746902D03*
%TD*%
D16*
%TO.C,J3*%
X127620000Y-109610000D03*
X130160000Y-109610000D03*
X132700000Y-109610000D03*
X135240000Y-109610000D03*
X137780000Y-109610000D03*
%TD*%
D17*
%TO.C,CH1*%
X155500000Y-100000000D03*
D18*
X150000000Y-100000000D03*
D17*
X144500000Y-100000000D03*
D19*
X145000000Y-103750000D03*
D20*
X141755000Y-103750000D03*
X153245000Y-105950000D03*
D19*
X150000000Y-105950000D03*
%TD*%
M02*
