%TF.GenerationSoftware,KiCad,Pcbnew,9.0.6*%
%TF.CreationDate,2026-01-11T15:28:45-08:00*%
%TF.ProjectId,pcb,7063622e-6b69-4636-9164-5f7063625858,rev?*%
%TF.SameCoordinates,Original*%
%TF.FileFunction,Copper,L2,Bot*%
%TF.FilePolarity,Positive*%
%FSLAX46Y46*%
G04 Gerber Fmt 4.6, Leading zero omitted, Abs format (unit mm)*
G04 Created by KiCad (PCBNEW 9.0.6) date 2026-01-11 15:28:45*
%MOMM*%
%LPD*%
G01*
G04 APERTURE LIST*
G04 Aperture macros list*
%AMRoundRect*
0 Rectangle with rounded corners*
0 $1 Rounding radius*
0 $2 $3 $4 $5 $6 $7 $8 $9 X,Y pos of 4 corners*
0 Add a 4 corners polygon primitive as box body*
4,1,4,$2,$3,$4,$5,$6,$7,$8,$9,$2,$3,0*
0 Add four circle primitives for the rounded corners*
1,1,$1+$1,$2,$3*
1,1,$1+$1,$4,$5*
1,1,$1+$1,$6,$7*
1,1,$1+$1,$8,$9*
0 Add four rect primitives between the rounded corners*
20,1,$1+$1,$2,$3,$4,$5,0*
20,1,$1+$1,$4,$5,$6,$7,0*
20,1,$1+$1,$6,$7,$8,$9,0*
20,1,$1+$1,$8,$9,$2,$3,0*%
G04 Aperture macros list end*
%TA.AperFunction,ComponentPad*%
%ADD10C,2.000000*%
%TD*%
%TA.AperFunction,ComponentPad*%
%ADD11C,1.879600*%
%TD*%
%TA.AperFunction,ComponentPad*%
%ADD12C,1.900000*%
%TD*%
%TA.AperFunction,ComponentPad*%
%ADD13O,1.000000X1.600000*%
%TD*%
%TA.AperFunction,ComponentPad*%
%ADD14O,1.000000X2.100000*%
%TD*%
%TA.AperFunction,ComponentPad*%
%ADD15C,2.100000*%
%TD*%
%TA.AperFunction,ComponentPad*%
%ADD16C,3.300000*%
%TD*%
%TA.AperFunction,SMDPad,CuDef*%
%ADD17R,1.200000X2.600000*%
%TD*%
%TA.AperFunction,SMDPad,CuDef*%
%ADD18RoundRect,0.260000X1.065000X1.040000X-1.065000X1.040000X-1.065000X-1.040000X1.065000X-1.040000X0*%
%TD*%
%TA.AperFunction,ViaPad*%
%ADD19C,0.600000*%
%TD*%
%TA.AperFunction,Conductor*%
%ADD20C,0.200000*%
%TD*%
%TA.AperFunction,Conductor*%
%ADD21C,0.600000*%
%TD*%
G04 APERTURE END LIST*
D10*
%TO.P,SW1,1*%
%TO.N,Net-(U1-PB8-BOOT0)*%
X165025000Y-93525000D03*
X171525000Y-93525000D03*
%TO.P,SW1,2*%
%TO.N,+3.3V*%
X165025000Y-98025000D03*
X171525000Y-98025000D03*
%TD*%
D11*
%TO.P,J1,1,Pin_1*%
%TO.N,+3.3V*%
X124326700Y-112750000D03*
%TO.P,J1,2,Pin_2*%
%TO.N,/BTN2*%
X123562907Y-110327559D03*
%TO.P,J1,3,Pin_3*%
%TO.N,/BTN3*%
X122799115Y-107905118D03*
%TO.P,J1,4,Pin_4*%
%TO.N,/BTN4*%
X122035322Y-105482677D03*
%TO.P,J1,5,Pin_5*%
%TO.N,/BTN5*%
X121271529Y-103060236D03*
%TO.P,J1,6,Pin_6*%
%TO.N,/BTN6*%
X120507736Y-100637795D03*
%TO.P,J1,7,Pin_7*%
%TO.N,/BTN7*%
X119743944Y-98215354D03*
%TO.P,J1,8,Pin_8*%
%TO.N,/BTN8*%
X118980151Y-95792913D03*
%TD*%
D12*
%TO.P,JP1,1*%
%TO.N,/RST*%
X126945000Y-95305000D03*
%TO.P,JP1,2*%
%TO.N,GND*%
X121865000Y-95305000D03*
%TD*%
D13*
%TO.P,USB1,13,SHIELD*%
%TO.N,GND*%
X154320001Y-87100000D03*
D14*
X154320000Y-91280000D03*
X145680000Y-91280000D03*
D13*
X145680000Y-87100000D03*
%TD*%
D11*
%TO.P,J2,1,Pin_1*%
%TO.N,+3.3V*%
X175750000Y-112750000D03*
%TO.P,J2,2,Pin_2*%
%TO.N,/BTN2*%
X176492624Y-110320986D03*
%TO.P,J2,3,Pin_3*%
%TO.N,/BTN3*%
X177235248Y-107891972D03*
%TO.P,J2,4,Pin_4*%
%TO.N,/BTN4*%
X177977872Y-105462958D03*
%TO.P,J2,5,Pin_5*%
%TO.N,/BTN5*%
X178720497Y-103033944D03*
%TO.P,J2,6,Pin_6*%
%TO.N,/BTN6*%
X179463121Y-100604930D03*
%TO.P,J2,7,Pin_7*%
%TO.N,/BTN7*%
X180205744Y-98175916D03*
%TO.P,J2,8,Pin_8*%
%TO.N,/BTN8*%
X180948369Y-95746902D03*
%TD*%
D15*
%TO.P,J3,1,Pin_1*%
%TO.N,/RST*%
X127620000Y-109610000D03*
%TO.P,J3,2,Pin_2*%
%TO.N,/SWDIO*%
X130160000Y-109610000D03*
%TO.P,J3,3,Pin_3*%
%TO.N,/SWCLK*%
X132700000Y-109610000D03*
%TO.P,J3,4,Pin_4*%
%TO.N,GND*%
X135240000Y-109610000D03*
%TO.P,J3,5,Pin_5*%
%TO.N,+3.3V*%
X137780000Y-109610000D03*
%TD*%
D16*
%TO.P,CH1,1,1*%
%TO.N,Net-(JMP_BTN1-A)*%
X145000000Y-103750000D03*
D17*
X143450000Y-103750000D03*
D18*
X141755000Y-103750000D03*
%TO.P,CH1,2,2*%
%TO.N,+3.3V*%
X153245000Y-105950000D03*
D17*
X151550000Y-105950000D03*
D16*
X150000000Y-105950000D03*
%TD*%
D19*
%TO.N,/BTN2*%
X133750000Y-107250000D03*
X135276498Y-103876000D03*
%TO.N,/BTN3*%
X133104600Y-106361800D03*
X133512000Y-103804100D03*
%TO.N,+3.3V*%
X134441000Y-91970000D03*
X167454998Y-103660000D03*
X134350883Y-103813746D03*
X127672842Y-105973013D03*
X132250000Y-104000000D03*
X129514000Y-92650000D03*
X127750000Y-107673013D03*
X172549998Y-107250000D03*
X137624500Y-98862200D03*
X131941000Y-92280000D03*
%TO.N,/BTN7*%
X134085100Y-98218400D03*
%TO.N,GND*%
X174449998Y-107250000D03*
X138900000Y-107600000D03*
X128625000Y-100125000D03*
X177742499Y-95060001D03*
X144250000Y-107750000D03*
X143000000Y-98000000D03*
X123682000Y-98590000D03*
X173391000Y-110480000D03*
X169755000Y-103660000D03*
X154783400Y-93473600D03*
%TO.N,5V*%
X167311393Y-93688607D03*
X165254998Y-103660000D03*
%TO.N,/RST*%
X125582000Y-98590000D03*
X129313500Y-107916500D03*
%TO.N,/SWCLK*%
X133161400Y-98693500D03*
%TO.N,/SWDIO*%
X129941200Y-96339100D03*
%TO.N,Net-(JMP_BTN1-A)*%
X162200000Y-97900000D03*
X162200000Y-95900000D03*
X162200000Y-103900000D03*
X162200000Y-105900000D03*
X141755000Y-103750000D03*
X162200000Y-99900000D03*
X162200000Y-107900000D03*
X154750000Y-107900000D03*
X162200000Y-101900000D03*
X162200000Y-93900000D03*
%TO.N,Net-(U1-PB8-BOOT0)*%
X146941000Y-106829500D03*
%TO.N,Net-(USB1-CC1)*%
X157702000Y-91130000D03*
X152914000Y-95795400D03*
%TD*%
D20*
%TO.N,/BTN2*%
X135276498Y-105723502D02*
X133750000Y-107250000D01*
X135276498Y-103876000D02*
X135276498Y-105723502D01*
%TO.N,/BTN3*%
X133104600Y-106361800D02*
X133512000Y-105954400D01*
X133512000Y-105954400D02*
X133512000Y-103804100D01*
%TO.N,+3.3V*%
X165629800Y-109601000D02*
X164025000Y-107996200D01*
X150700000Y-106650000D02*
X150000000Y-105950000D01*
D21*
X167454998Y-103660000D02*
X171044998Y-107250000D01*
X171044998Y-107250000D02*
X172549998Y-107250000D01*
X165629800Y-109601000D02*
X170699000Y-109601000D01*
D20*
X172549998Y-110879075D02*
X172549998Y-107250000D01*
D21*
X153245000Y-106055000D02*
X153245000Y-105950000D01*
X153245000Y-105950000D02*
X153245000Y-106055000D01*
X165629800Y-109601000D02*
X155160000Y-109601000D01*
D20*
X171525000Y-99589998D02*
X167454998Y-103660000D01*
X174420923Y-112750000D02*
X172549998Y-110879075D01*
X164025000Y-107996200D02*
X164025000Y-99025000D01*
D21*
X153245000Y-107686000D02*
X153245000Y-106055000D01*
D20*
X164025000Y-99025000D02*
X165025000Y-98025000D01*
D21*
X172549998Y-107750002D02*
X172549998Y-107250000D01*
D20*
X175750000Y-112750000D02*
X174420923Y-112750000D01*
X151550000Y-106650000D02*
X151550000Y-107551700D01*
X151550000Y-105950000D02*
X151550000Y-106650000D01*
X134350883Y-103793040D02*
X133760943Y-103203100D01*
X171525000Y-98025000D02*
X171525000Y-99589998D01*
D21*
X155160000Y-109601000D02*
X153245000Y-107686000D01*
X153245000Y-106055000D02*
X151748300Y-107551700D01*
D20*
X133760943Y-103203100D02*
X133046900Y-103203100D01*
X151550000Y-106650000D02*
X150700000Y-106650000D01*
X151748300Y-107551700D02*
X151550000Y-107551700D01*
X134350883Y-103813746D02*
X134350883Y-103793040D01*
D21*
X151748300Y-107551700D02*
X149690000Y-109610000D01*
D20*
X133046900Y-103203100D02*
X132250000Y-104000000D01*
D21*
X149690000Y-109610000D02*
X137780000Y-109610000D01*
X170699000Y-109601000D02*
X172549998Y-107750002D01*
D20*
%TO.N,/BTN7*%
X120740900Y-98215400D02*
X125056600Y-93899700D01*
X129766400Y-93899700D02*
X134085100Y-98218400D01*
X119743900Y-98215400D02*
X120740900Y-98215400D01*
X125056600Y-93899700D02*
X129766400Y-93899700D01*
%TO.N,GND*%
X128625000Y-100125000D02*
X128621013Y-100121013D01*
X144100000Y-107600000D02*
X144250000Y-107750000D01*
X138900000Y-107600000D02*
X144100000Y-107600000D01*
X128621013Y-100121013D02*
X125213013Y-100121013D01*
X125213013Y-100121013D02*
X123682000Y-98590000D01*
D21*
%TO.N,5V*%
X168000000Y-94377214D02*
X167311393Y-93688607D01*
X168000000Y-100250000D02*
X168000000Y-94377214D01*
X165254998Y-102995002D02*
X168000000Y-100250000D01*
X165254998Y-103660000D02*
X165254998Y-102995002D01*
D20*
%TO.N,/RST*%
X125582000Y-98590000D02*
X126945000Y-97227000D01*
X129313500Y-107916500D02*
X127620000Y-109610000D01*
X126945000Y-95305000D02*
X129573596Y-97933596D01*
X129573596Y-97933596D02*
X129573596Y-107656404D01*
X129573596Y-107656404D02*
X129313500Y-107916500D01*
X126945000Y-97227000D02*
X126945000Y-95305000D01*
%TO.N,/SWCLK*%
X132502900Y-99352000D02*
X133161400Y-98693500D01*
X131650000Y-108560000D02*
X131650000Y-103680761D01*
X132700000Y-109610000D02*
X131650000Y-108560000D01*
X132502900Y-102827861D02*
X132502900Y-99352000D01*
X131650000Y-103680761D02*
X132502900Y-102827861D01*
%TO.N,/SWDIO*%
X130160000Y-109610000D02*
X130160000Y-96557900D01*
X130160000Y-96557900D02*
X129941200Y-96339100D01*
%TO.N,Net-(JMP_BTN1-A)*%
X162200000Y-108200000D02*
X162200000Y-107900000D01*
X162200000Y-97900000D02*
X162200000Y-99900000D01*
X154750000Y-107900000D02*
X159400000Y-107900000D01*
X162200000Y-93900000D02*
X162200000Y-95900000D01*
X162200000Y-99900000D02*
X162200000Y-101900000D01*
X145000000Y-102923200D02*
X145000000Y-103750000D01*
X143450000Y-103750000D02*
X143450000Y-102148300D01*
X160500000Y-109000000D02*
X161400000Y-109000000D01*
X161400000Y-109000000D02*
X162200000Y-108200000D01*
X162200000Y-103900000D02*
X162200000Y-107900000D01*
X162200000Y-101900000D02*
X162200000Y-103900000D01*
X144225100Y-102148300D02*
X145000000Y-102923200D01*
X162200000Y-95900000D02*
X162200000Y-97900000D01*
X159400000Y-107900000D02*
X160500000Y-109000000D01*
X143450000Y-102148300D02*
X144225100Y-102148300D01*
%TO.N,Net-(U1-PB8-BOOT0)*%
X164795400Y-93295400D02*
X165025000Y-93525000D01*
X146941000Y-106233100D02*
X150117400Y-103056700D01*
X146941000Y-106829500D02*
X146941000Y-106233100D01*
X150213800Y-103056700D02*
X159975100Y-93295400D01*
X159975100Y-93295400D02*
X164795400Y-93295400D01*
X150117400Y-103056700D02*
X150213800Y-103056700D01*
%TO.N,Net-(USB1-CC1)*%
X152914000Y-95795400D02*
X153805000Y-95795400D01*
X153805000Y-95795400D02*
X157702000Y-91897500D01*
X157702000Y-91897500D02*
X157702000Y-91130000D01*
%TD*%
%TA.AperFunction,Conductor*%
%TO.N,+3.3V*%
G36*
X137159668Y-109941574D02*
G01*
X137236274Y-110056224D01*
X137333776Y-110153726D01*
X137448426Y-110230332D01*
X137494242Y-110249309D01*
X136872152Y-110871398D01*
X136865824Y-110892929D01*
X136859606Y-110922529D01*
X136856070Y-110926115D01*
X136854650Y-110930948D01*
X136831786Y-110950748D01*
X136810554Y-110972286D01*
X136804604Y-110974289D01*
X136801834Y-110976688D01*
X136767967Y-110986623D01*
X136641614Y-111004755D01*
X136572458Y-110994792D01*
X136519666Y-110949023D01*
X136500000Y-110882012D01*
X136500000Y-110705877D01*
X136500000Y-110538094D01*
X136502965Y-110533481D01*
X137140689Y-109895756D01*
X137159668Y-109941574D01*
G37*
%TD.AperFunction*%
%TA.AperFunction,Conductor*%
G36*
X142143039Y-108220185D02*
G01*
X142188794Y-108272989D01*
X142200000Y-108324500D01*
X142200000Y-110225902D01*
X142180315Y-110292941D01*
X142127511Y-110338696D01*
X142086089Y-110349491D01*
X141855889Y-110368283D01*
X140052975Y-110552475D01*
X139192170Y-110658168D01*
X139123231Y-110646800D01*
X139071382Y-110599965D01*
X139053084Y-110532534D01*
X139074148Y-110465915D01*
X139076742Y-110462204D01*
X139105677Y-110422379D01*
X139216439Y-110204998D01*
X139291834Y-109972959D01*
X139330000Y-109731993D01*
X139330000Y-109488006D01*
X139291834Y-109247040D01*
X139216439Y-109015001D01*
X139105676Y-108797619D01*
X139038456Y-108705097D01*
X139038454Y-108705096D01*
X138419309Y-109324242D01*
X138400332Y-109278426D01*
X138323726Y-109163776D01*
X138226224Y-109066274D01*
X138111574Y-108989668D01*
X138065755Y-108970689D01*
X138619808Y-108416637D01*
X138681131Y-108383152D01*
X138731677Y-108382701D01*
X138806272Y-108397538D01*
X138821157Y-108400500D01*
X138821158Y-108400500D01*
X138978844Y-108400500D01*
X138978845Y-108400499D01*
X139133497Y-108369737D01*
X139279179Y-108309394D01*
X139299090Y-108296090D01*
X139410875Y-108221398D01*
X139477553Y-108200520D01*
X139479766Y-108200500D01*
X142076000Y-108200500D01*
X142143039Y-108220185D01*
G37*
%TD.AperFunction*%
%TA.AperFunction,Conductor*%
G36*
X142135448Y-90311173D02*
G01*
X142184844Y-90360588D01*
X142200000Y-90419994D01*
X142200000Y-97918644D01*
X142199500Y-97921158D01*
X142199500Y-98078842D01*
X142200000Y-98081355D01*
X142200000Y-101825500D01*
X142180315Y-101892539D01*
X142127511Y-101938294D01*
X142076000Y-101949500D01*
X140639332Y-101949500D01*
X140639315Y-101949501D01*
X140535167Y-101960140D01*
X140535164Y-101960141D01*
X140366413Y-102016060D01*
X140366402Y-102016065D01*
X140215103Y-102109388D01*
X140215099Y-102109391D01*
X140089391Y-102235099D01*
X140089388Y-102235103D01*
X139996065Y-102386402D01*
X139996060Y-102386413D01*
X139940141Y-102555166D01*
X139940140Y-102555173D01*
X139929500Y-102659317D01*
X139929500Y-104840667D01*
X139929501Y-104840684D01*
X139940140Y-104944832D01*
X139940141Y-104944835D01*
X139996060Y-105113586D01*
X139996065Y-105113597D01*
X140089388Y-105264896D01*
X140089391Y-105264900D01*
X140215099Y-105390608D01*
X140215103Y-105390611D01*
X140366402Y-105483934D01*
X140366405Y-105483935D01*
X140366411Y-105483939D01*
X140535167Y-105539859D01*
X140639325Y-105550500D01*
X142076001Y-105550499D01*
X142143039Y-105570184D01*
X142188794Y-105622987D01*
X142200000Y-105674499D01*
X142200000Y-106875500D01*
X142180315Y-106942539D01*
X142127511Y-106988294D01*
X142076000Y-106999500D01*
X139479766Y-106999500D01*
X139412727Y-106979815D01*
X139410875Y-106978602D01*
X139279185Y-106890609D01*
X139279172Y-106890602D01*
X139133501Y-106830264D01*
X139133489Y-106830261D01*
X138978845Y-106799500D01*
X138978842Y-106799500D01*
X138821158Y-106799500D01*
X138821155Y-106799500D01*
X138666510Y-106830261D01*
X138666498Y-106830264D01*
X138520827Y-106890602D01*
X138520814Y-106890609D01*
X138389711Y-106978210D01*
X138389707Y-106978213D01*
X138278213Y-107089707D01*
X138278210Y-107089711D01*
X138190609Y-107220814D01*
X138190602Y-107220827D01*
X138130264Y-107366498D01*
X138130261Y-107366510D01*
X138099500Y-107521153D01*
X138099500Y-107678846D01*
X138129922Y-107831784D01*
X138130263Y-107833497D01*
X138144457Y-107867764D01*
X138161965Y-107910033D01*
X138169433Y-107979503D01*
X138138157Y-108041982D01*
X138078068Y-108077634D01*
X138028005Y-108079958D01*
X137901993Y-108060000D01*
X137658007Y-108060000D01*
X137417040Y-108098165D01*
X137185001Y-108173560D01*
X136967626Y-108284319D01*
X136875097Y-108351544D01*
X137494243Y-108970689D01*
X137448426Y-108989668D01*
X137333776Y-109066274D01*
X137236274Y-109163776D01*
X137159668Y-109278426D01*
X137140690Y-109324242D01*
X136502965Y-108686517D01*
X136500000Y-108681087D01*
X136500000Y-108300000D01*
X136499999Y-108299999D01*
X136105129Y-108296090D01*
X136050062Y-108282581D01*
X136034865Y-108274838D01*
X135835185Y-108173096D01*
X135603076Y-108097679D01*
X135603074Y-108097678D01*
X135603072Y-108097678D01*
X135420226Y-108068718D01*
X135362027Y-108059500D01*
X135117973Y-108059500D01*
X135062093Y-108068350D01*
X134876927Y-108097678D01*
X134876926Y-108097678D01*
X134644818Y-108173094D01*
X134644817Y-108173094D01*
X134462965Y-108265751D01*
X134405444Y-108279260D01*
X133958752Y-108274838D01*
X133891910Y-108254491D01*
X133846680Y-108201236D01*
X133837422Y-108131983D01*
X133867074Y-108068718D01*
X133926224Y-108031527D01*
X133935770Y-108029230D01*
X133983497Y-108019737D01*
X134106674Y-107968716D01*
X134129172Y-107959397D01*
X134129172Y-107959396D01*
X134129179Y-107959394D01*
X134260289Y-107871789D01*
X134371789Y-107760289D01*
X134459394Y-107629179D01*
X134519737Y-107483497D01*
X134543010Y-107366498D01*
X134550638Y-107328150D01*
X134583023Y-107266239D01*
X134584520Y-107264714D01*
X135635004Y-106214229D01*
X135635009Y-106214226D01*
X135645212Y-106204022D01*
X135645214Y-106204022D01*
X135757018Y-106092218D01*
X135814253Y-105993084D01*
X135836075Y-105955287D01*
X135876998Y-105802559D01*
X135876998Y-105644445D01*
X135876998Y-104455765D01*
X135896683Y-104388726D01*
X135897896Y-104386874D01*
X135985888Y-104255185D01*
X135985888Y-104255184D01*
X135985892Y-104255179D01*
X136046235Y-104109497D01*
X136076998Y-103954842D01*
X136076998Y-103797158D01*
X136076998Y-103797155D01*
X136076997Y-103797153D01*
X136071560Y-103769820D01*
X136046235Y-103642503D01*
X136032163Y-103608530D01*
X135985895Y-103496827D01*
X135985888Y-103496814D01*
X135898287Y-103365711D01*
X135898284Y-103365707D01*
X135786790Y-103254213D01*
X135786786Y-103254210D01*
X135655683Y-103166609D01*
X135655670Y-103166602D01*
X135509999Y-103106264D01*
X135509987Y-103106261D01*
X135355343Y-103075500D01*
X135355340Y-103075500D01*
X135197656Y-103075500D01*
X135197653Y-103075500D01*
X135043008Y-103106261D01*
X135042996Y-103106264D01*
X134897325Y-103166602D01*
X134897312Y-103166609D01*
X134766209Y-103254210D01*
X134766205Y-103254213D01*
X134654711Y-103365707D01*
X134654708Y-103365711D01*
X134567107Y-103496814D01*
X134567102Y-103496824D01*
X134520832Y-103608530D01*
X134476991Y-103662933D01*
X134410696Y-103684998D01*
X134342997Y-103667719D01*
X134295387Y-103616581D01*
X134284653Y-103585265D01*
X134281737Y-103570604D01*
X134281735Y-103570598D01*
X134221397Y-103424927D01*
X134221390Y-103424914D01*
X134133789Y-103293811D01*
X134133786Y-103293807D01*
X134022292Y-103182313D01*
X134022288Y-103182310D01*
X133891185Y-103094709D01*
X133891172Y-103094702D01*
X133745501Y-103034364D01*
X133745489Y-103034361D01*
X133590845Y-103003600D01*
X133590842Y-103003600D01*
X133433158Y-103003600D01*
X133433155Y-103003600D01*
X133278510Y-103034361D01*
X133278498Y-103034364D01*
X133273978Y-103036237D01*
X133241075Y-103039773D01*
X133208288Y-103044326D01*
X133206484Y-103043491D01*
X133204509Y-103043704D01*
X133174926Y-103028895D01*
X133144873Y-103014995D01*
X133143806Y-103013317D01*
X133142030Y-103012428D01*
X133125152Y-102983980D01*
X133107383Y-102956035D01*
X133107210Y-102953739D01*
X133106379Y-102952338D01*
X133102529Y-102921076D01*
X133102582Y-102909972D01*
X133103401Y-102906918D01*
X133103401Y-102748803D01*
X133103400Y-102748799D01*
X133103400Y-99652097D01*
X133123085Y-99585058D01*
X133139718Y-99564417D01*
X133142699Y-99561436D01*
X133176061Y-99528073D01*
X133237381Y-99494589D01*
X133239550Y-99494138D01*
X133297485Y-99482613D01*
X133394897Y-99463237D01*
X133540579Y-99402894D01*
X133671689Y-99315289D01*
X133783189Y-99203789D01*
X133870794Y-99072679D01*
X133870795Y-99072675D01*
X133872372Y-99070316D01*
X133925985Y-99025510D01*
X133995309Y-99016803D01*
X133999630Y-99017581D01*
X134006258Y-99018900D01*
X134006261Y-99018900D01*
X134163944Y-99018900D01*
X134163945Y-99018899D01*
X134318597Y-98988137D01*
X134464279Y-98927794D01*
X134595389Y-98840189D01*
X134706889Y-98728689D01*
X134794494Y-98597579D01*
X134854837Y-98451897D01*
X134885600Y-98297242D01*
X134885600Y-98139558D01*
X134885600Y-98139555D01*
X134885599Y-98139553D01*
X134854837Y-97984903D01*
X134853019Y-97980514D01*
X134794497Y-97839227D01*
X134794490Y-97839214D01*
X134706889Y-97708111D01*
X134706886Y-97708107D01*
X134595392Y-97596613D01*
X134595388Y-97596610D01*
X134464285Y-97509009D01*
X134464272Y-97509002D01*
X134318601Y-97448664D01*
X134318591Y-97448661D01*
X134163249Y-97417761D01*
X134101338Y-97385376D01*
X134099760Y-97383825D01*
X130253990Y-93538055D01*
X130253988Y-93538052D01*
X130135117Y-93419181D01*
X130135116Y-93419180D01*
X130048304Y-93369060D01*
X130048304Y-93369059D01*
X130048300Y-93369058D01*
X129998185Y-93340123D01*
X129845457Y-93299199D01*
X129687343Y-93299199D01*
X129679747Y-93299199D01*
X129679731Y-93299200D01*
X126445747Y-93299200D01*
X126378708Y-93279515D01*
X126332953Y-93226711D01*
X126321749Y-93175846D01*
X126321712Y-93168880D01*
X126319309Y-92707362D01*
X126338643Y-92640225D01*
X126391208Y-92594196D01*
X126417468Y-92585442D01*
X128217157Y-92202115D01*
X128219129Y-92201713D01*
X130071371Y-91840632D01*
X130073387Y-91840257D01*
X131931607Y-91511333D01*
X131933575Y-91511002D01*
X133797132Y-91214346D01*
X133799223Y-91214031D01*
X135667722Y-90949705D01*
X135669757Y-90949436D01*
X137542513Y-90717539D01*
X137544455Y-90717315D01*
X139421020Y-90517903D01*
X139423138Y-90517697D01*
X141302769Y-90350847D01*
X141304704Y-90350692D01*
X142067182Y-90296309D01*
X142135448Y-90311173D01*
G37*
%TD.AperFunction*%
%TA.AperFunction,Conductor*%
G36*
X128939398Y-104384384D02*
G01*
X128971007Y-104446695D01*
X128973096Y-104469363D01*
X128973096Y-107114918D01*
X128953411Y-107181957D01*
X128917987Y-107218020D01*
X128803210Y-107294710D01*
X128691713Y-107406207D01*
X128691710Y-107406211D01*
X128604109Y-107537314D01*
X128604102Y-107537327D01*
X128543764Y-107682998D01*
X128543761Y-107683008D01*
X128512862Y-107838348D01*
X128480477Y-107900259D01*
X128478926Y-107901837D01*
X128263242Y-108117520D01*
X128201919Y-108151005D01*
X128137243Y-108147770D01*
X127983079Y-108097679D01*
X127800226Y-108068718D01*
X127742027Y-108059500D01*
X127497973Y-108059500D01*
X127442093Y-108068350D01*
X127256927Y-108097678D01*
X127256926Y-108097678D01*
X127024815Y-108173095D01*
X127024814Y-108173096D01*
X126988211Y-108191745D01*
X126930692Y-108205253D01*
X126522134Y-108201209D01*
X126455292Y-108180862D01*
X126410062Y-108127608D01*
X126399363Y-108077865D01*
X126385006Y-105321316D01*
X126404340Y-105254181D01*
X126456905Y-105208151D01*
X126522886Y-105197456D01*
X126745271Y-105222512D01*
X126745272Y-105222513D01*
X126745275Y-105222513D01*
X127026128Y-105222513D01*
X127026129Y-105222512D01*
X127168755Y-105206442D01*
X127305194Y-105191070D01*
X127305199Y-105191069D01*
X127305209Y-105191068D01*
X127579018Y-105128573D01*
X127844108Y-105035814D01*
X128097145Y-104913958D01*
X128334948Y-104764536D01*
X128554525Y-104589429D01*
X128753116Y-104390838D01*
X128753121Y-104390830D01*
X128755441Y-104388237D01*
X128756387Y-104389083D01*
X128809309Y-104351919D01*
X128879120Y-104349053D01*
X128939398Y-104384384D01*
G37*
%TD.AperFunction*%
%TA.AperFunction,Conductor*%
G36*
X132630834Y-103651676D02*
G01*
X132686767Y-103693548D01*
X132711184Y-103759012D01*
X132711500Y-103767858D01*
X132711500Y-103882946D01*
X132742261Y-104037589D01*
X132742264Y-104037601D01*
X132802602Y-104183272D01*
X132802609Y-104183285D01*
X132890602Y-104314974D01*
X132911480Y-104381651D01*
X132911500Y-104383865D01*
X132911500Y-105492475D01*
X132891815Y-105559514D01*
X132839011Y-105605269D01*
X132834953Y-105607036D01*
X132725424Y-105652404D01*
X132725414Y-105652409D01*
X132594311Y-105740010D01*
X132594307Y-105740013D01*
X132482813Y-105851507D01*
X132482808Y-105851513D01*
X132477601Y-105859307D01*
X132423989Y-105904111D01*
X132354664Y-105912818D01*
X132291636Y-105882663D01*
X132254918Y-105823219D01*
X132250500Y-105790415D01*
X132250500Y-103980858D01*
X132270185Y-103913819D01*
X132286819Y-103893177D01*
X132499819Y-103680177D01*
X132561142Y-103646692D01*
X132630834Y-103651676D01*
G37*
%TD.AperFunction*%
%TA.AperFunction,Conductor*%
G36*
X134410611Y-104003475D02*
G01*
X134443585Y-104011267D01*
X134444384Y-104012095D01*
X134445499Y-104012380D01*
X134468578Y-104037168D01*
X134492101Y-104061546D01*
X134492604Y-104062974D01*
X134493110Y-104063517D01*
X134503843Y-104094829D01*
X134506759Y-104109492D01*
X134506762Y-104109501D01*
X134567100Y-104255172D01*
X134567107Y-104255185D01*
X134655100Y-104386874D01*
X134675978Y-104453551D01*
X134675998Y-104455765D01*
X134675998Y-105423404D01*
X134656313Y-105490443D01*
X134639679Y-105511085D01*
X134324181Y-105826583D01*
X134262858Y-105860068D01*
X134193166Y-105855084D01*
X134137233Y-105813212D01*
X134112816Y-105747748D01*
X134112500Y-105738902D01*
X134112500Y-104383865D01*
X134132185Y-104316826D01*
X134133398Y-104314974D01*
X134221390Y-104183285D01*
X134221390Y-104183284D01*
X134221394Y-104183279D01*
X134267665Y-104071569D01*
X134288922Y-104045189D01*
X134309698Y-104018445D01*
X134310782Y-104018062D01*
X134311505Y-104017166D01*
X134343662Y-104006462D01*
X134375588Y-103995200D01*
X134376707Y-103995464D01*
X134377799Y-103995101D01*
X134410611Y-104003475D01*
G37*
%TD.AperFunction*%
%TD*%
%TA.AperFunction,Conductor*%
%TO.N,GND*%
G36*
X125591821Y-94519885D02*
G01*
X125637576Y-94572689D01*
X125647520Y-94641847D01*
X125635267Y-94680495D01*
X125600770Y-94748196D01*
X125530215Y-94965339D01*
X125494500Y-95190837D01*
X125494500Y-95419162D01*
X125530215Y-95644660D01*
X125600770Y-95861803D01*
X125702441Y-96061342D01*
X125704421Y-96065228D01*
X125838621Y-96249937D01*
X126000063Y-96411379D01*
X126110839Y-96491863D01*
X126184773Y-96545580D01*
X126223153Y-96565135D01*
X126276794Y-96592466D01*
X126287857Y-96602915D01*
X126301703Y-96609238D01*
X126312744Y-96626419D01*
X126327590Y-96640440D01*
X126331831Y-96656119D01*
X126339477Y-96668016D01*
X126344500Y-96702951D01*
X126344500Y-96926903D01*
X126324815Y-96993942D01*
X126308181Y-97014584D01*
X125567339Y-97755425D01*
X125506016Y-97788910D01*
X125503850Y-97789361D01*
X125348508Y-97820261D01*
X125348498Y-97820264D01*
X125202827Y-97880602D01*
X125202814Y-97880609D01*
X125071711Y-97968210D01*
X125071707Y-97968213D01*
X124960213Y-98079707D01*
X124960210Y-98079711D01*
X124872609Y-98210814D01*
X124872602Y-98210827D01*
X124812264Y-98356498D01*
X124812261Y-98356510D01*
X124781500Y-98511153D01*
X124781500Y-98668846D01*
X124812261Y-98823489D01*
X124812264Y-98823501D01*
X124872602Y-98969172D01*
X124872609Y-98969185D01*
X124960210Y-99100288D01*
X124960213Y-99100292D01*
X125071707Y-99211786D01*
X125071711Y-99211789D01*
X125202814Y-99299390D01*
X125202827Y-99299397D01*
X125315621Y-99346117D01*
X125348503Y-99359737D01*
X125503153Y-99390499D01*
X125503156Y-99390500D01*
X125503158Y-99390500D01*
X125660843Y-99390500D01*
X125679800Y-99386729D01*
X125711104Y-99380502D01*
X125780695Y-99386729D01*
X125835873Y-99429591D01*
X125858532Y-99488379D01*
X125860485Y-99505898D01*
X125860486Y-99505904D01*
X125863772Y-99520821D01*
X125871689Y-99556763D01*
X125905536Y-99658017D01*
X125983320Y-99779050D01*
X125983328Y-99779061D01*
X126029072Y-99831853D01*
X126029075Y-99831856D01*
X126029079Y-99831860D01*
X126137813Y-99926080D01*
X126137816Y-99926081D01*
X126137817Y-99926082D01*
X126260305Y-99982022D01*
X126268690Y-99985851D01*
X126335729Y-100005536D01*
X126335733Y-100005537D01*
X126419865Y-100017633D01*
X126483419Y-100046656D01*
X126521194Y-100105434D01*
X126521195Y-100175303D01*
X126483421Y-100234082D01*
X126429810Y-100261261D01*
X126192379Y-100315453D01*
X126192370Y-100315456D01*
X125927288Y-100408213D01*
X125674257Y-100530066D01*
X125436453Y-100679489D01*
X125216875Y-100854596D01*
X125018283Y-101053188D01*
X124843176Y-101272766D01*
X124693753Y-101510570D01*
X124571900Y-101763601D01*
X124479143Y-102028683D01*
X124479139Y-102028695D01*
X124416645Y-102302500D01*
X124416642Y-102302518D01*
X124385200Y-102581581D01*
X124385200Y-102862444D01*
X124416642Y-103141507D01*
X124416645Y-103141525D01*
X124479139Y-103415330D01*
X124479143Y-103415342D01*
X124571900Y-103680424D01*
X124693753Y-103933455D01*
X124719460Y-103974367D01*
X124843177Y-104171261D01*
X124929233Y-104279172D01*
X124999341Y-104367085D01*
X125018284Y-104390838D01*
X125216875Y-104589429D01*
X125436452Y-104764536D01*
X125674255Y-104913958D01*
X125674260Y-104913961D01*
X125845159Y-104996261D01*
X125897019Y-105043083D01*
X125915332Y-105110510D01*
X125910516Y-105142294D01*
X125899249Y-105181420D01*
X125899246Y-105181433D01*
X125879513Y-105323944D01*
X125893869Y-108080477D01*
X125893870Y-108080506D01*
X125905164Y-108184154D01*
X125915863Y-108233901D01*
X125948187Y-108333038D01*
X125948190Y-108333045D01*
X126024773Y-108454842D01*
X126024775Y-108454845D01*
X126058663Y-108494745D01*
X126063433Y-108502289D01*
X126070004Y-108508097D01*
X126070004Y-108508098D01*
X126177804Y-108603391D01*
X126235255Y-108630318D01*
X126287602Y-108676592D01*
X126306623Y-108743822D01*
X126293114Y-108798891D01*
X126183097Y-109014812D01*
X126183096Y-109014814D01*
X126183096Y-109014815D01*
X126156813Y-109095706D01*
X126107678Y-109246927D01*
X126069500Y-109487973D01*
X126069500Y-109732026D01*
X126103606Y-109947365D01*
X126107679Y-109973076D01*
X126183096Y-110205185D01*
X126283123Y-110401500D01*
X126293896Y-110422642D01*
X126437339Y-110620076D01*
X126437343Y-110620081D01*
X126609918Y-110792656D01*
X126609923Y-110792660D01*
X126730746Y-110880442D01*
X126807361Y-110936106D01*
X127024815Y-111046904D01*
X127256924Y-111122321D01*
X127497973Y-111160500D01*
X127497974Y-111160500D01*
X127742026Y-111160500D01*
X127742027Y-111160500D01*
X127983076Y-111122321D01*
X128215185Y-111046904D01*
X128432639Y-110936106D01*
X128630083Y-110792655D01*
X128802319Y-110620419D01*
X128863642Y-110586934D01*
X128933334Y-110591918D01*
X128977681Y-110620419D01*
X129149918Y-110792656D01*
X129149923Y-110792660D01*
X129270746Y-110880442D01*
X129347361Y-110936106D01*
X129564815Y-111046904D01*
X129796924Y-111122321D01*
X130037973Y-111160500D01*
X130037974Y-111160500D01*
X130282026Y-111160500D01*
X130282027Y-111160500D01*
X130523076Y-111122321D01*
X130755185Y-111046904D01*
X130972639Y-110936106D01*
X131170083Y-110792655D01*
X131342319Y-110620419D01*
X131403642Y-110586934D01*
X131473334Y-110591918D01*
X131517681Y-110620419D01*
X131689918Y-110792656D01*
X131689923Y-110792660D01*
X131810746Y-110880442D01*
X131887361Y-110936106D01*
X132104815Y-111046904D01*
X132336924Y-111122321D01*
X132577973Y-111160500D01*
X132577974Y-111160500D01*
X132822026Y-111160500D01*
X132822027Y-111160500D01*
X133063076Y-111122321D01*
X133295185Y-111046904D01*
X133512639Y-110936106D01*
X133710083Y-110792655D01*
X133882655Y-110620083D01*
X133919471Y-110569408D01*
X133952531Y-110543915D01*
X134600689Y-109895756D01*
X134619668Y-109941574D01*
X134696274Y-110056224D01*
X134793776Y-110153726D01*
X134908426Y-110230332D01*
X134954241Y-110249309D01*
X134335096Y-110868454D01*
X134335097Y-110868456D01*
X134427619Y-110935676D01*
X134645003Y-111046439D01*
X134737771Y-111076582D01*
X134795447Y-111116020D01*
X134822645Y-111180378D01*
X134810730Y-111249225D01*
X134763486Y-111300700D01*
X134719564Y-111316871D01*
X134671959Y-111324695D01*
X132889941Y-111654973D01*
X131115135Y-112021441D01*
X130602160Y-112138300D01*
X129348070Y-112423990D01*
X127589597Y-112862426D01*
X127586174Y-112863354D01*
X125853383Y-113333060D01*
X125783528Y-113331600D01*
X125725552Y-113292606D01*
X125697861Y-113228458D01*
X125703009Y-113175063D01*
X125731535Y-113087271D01*
X125767000Y-112863354D01*
X125767000Y-112636646D01*
X125731535Y-112412729D01*
X125661479Y-112197117D01*
X125661479Y-112197116D01*
X125625837Y-112127166D01*
X125558555Y-111995118D01*
X125474425Y-111879322D01*
X125425305Y-111811713D01*
X125425301Y-111811708D01*
X125264991Y-111651398D01*
X125264986Y-111651394D01*
X125081585Y-111518147D01*
X125081584Y-111518146D01*
X125081582Y-111518145D01*
X125016866Y-111485170D01*
X124879583Y-111415220D01*
X124879580Y-111415219D01*
X124777676Y-111382109D01*
X124720000Y-111342671D01*
X124692802Y-111278313D01*
X124704717Y-111209467D01*
X124715667Y-111191305D01*
X124794762Y-111082441D01*
X124897686Y-110880442D01*
X124967742Y-110664830D01*
X125003207Y-110440913D01*
X125003207Y-110214205D01*
X124967742Y-109990288D01*
X124924716Y-109857866D01*
X124897687Y-109774678D01*
X124897686Y-109774675D01*
X124839651Y-109660776D01*
X124794762Y-109572677D01*
X124736440Y-109492403D01*
X124661512Y-109389272D01*
X124661508Y-109389267D01*
X124501198Y-109228957D01*
X124501193Y-109228953D01*
X124317792Y-109095706D01*
X124317791Y-109095705D01*
X124317789Y-109095704D01*
X124253073Y-109062729D01*
X124115790Y-108992779D01*
X124115784Y-108992777D01*
X124013885Y-108959669D01*
X123956209Y-108920232D01*
X123929010Y-108855874D01*
X123940924Y-108787027D01*
X123951879Y-108768859D01*
X124030970Y-108660000D01*
X124133894Y-108458001D01*
X124203950Y-108242389D01*
X124239415Y-108018472D01*
X124239415Y-107791764D01*
X124203950Y-107567847D01*
X124151061Y-107405069D01*
X124133895Y-107352237D01*
X124133894Y-107352234D01*
X124060748Y-107208679D01*
X124030970Y-107150236D01*
X123972931Y-107070352D01*
X123897720Y-106966831D01*
X123897716Y-106966826D01*
X123737406Y-106806516D01*
X123737401Y-106806512D01*
X123554000Y-106673265D01*
X123553999Y-106673264D01*
X123553997Y-106673263D01*
X123440129Y-106615244D01*
X123351998Y-106570338D01*
X123351995Y-106570337D01*
X123250091Y-106537227D01*
X123192415Y-106497789D01*
X123165217Y-106433431D01*
X123177132Y-106364585D01*
X123188082Y-106346423D01*
X123267177Y-106237559D01*
X123370101Y-106035560D01*
X123440157Y-105819948D01*
X123475622Y-105596031D01*
X123475622Y-105369323D01*
X123440157Y-105145406D01*
X123370101Y-104929794D01*
X123370101Y-104929793D01*
X123334190Y-104859315D01*
X123267177Y-104727795D01*
X123166649Y-104589429D01*
X123133927Y-104544390D01*
X123133923Y-104544385D01*
X122973613Y-104384075D01*
X122973608Y-104384071D01*
X122790207Y-104250824D01*
X122790206Y-104250823D01*
X122790204Y-104250822D01*
X122721980Y-104216060D01*
X122588205Y-104147897D01*
X122588202Y-104147896D01*
X122486298Y-104114786D01*
X122428622Y-104075348D01*
X122401424Y-104010990D01*
X122413339Y-103942144D01*
X122424289Y-103923982D01*
X122503384Y-103815118D01*
X122606308Y-103613119D01*
X122676364Y-103397507D01*
X122711829Y-103173590D01*
X122711829Y-102946882D01*
X122676364Y-102722965D01*
X122630426Y-102581580D01*
X122606309Y-102507355D01*
X122606308Y-102507352D01*
X122537960Y-102373213D01*
X122503384Y-102305354D01*
X122428225Y-102201906D01*
X122370134Y-102121949D01*
X122370130Y-102121944D01*
X122209820Y-101961634D01*
X122209815Y-101961630D01*
X122026414Y-101828383D01*
X122026413Y-101828382D01*
X122026411Y-101828381D01*
X121930638Y-101779582D01*
X121824412Y-101725456D01*
X121824409Y-101725455D01*
X121722505Y-101692345D01*
X121664829Y-101652907D01*
X121637631Y-101588549D01*
X121649546Y-101519703D01*
X121660496Y-101501541D01*
X121739591Y-101392677D01*
X121842515Y-101190678D01*
X121912571Y-100975066D01*
X121948036Y-100751149D01*
X121948036Y-100524441D01*
X121912571Y-100300524D01*
X121867103Y-100160587D01*
X121842516Y-100084914D01*
X121842515Y-100084911D01*
X121792039Y-99985848D01*
X121739591Y-99882913D01*
X121711586Y-99844367D01*
X121606341Y-99699508D01*
X121606337Y-99699503D01*
X121446027Y-99539193D01*
X121446022Y-99539189D01*
X121262621Y-99405942D01*
X121262620Y-99405941D01*
X121262618Y-99405940D01*
X121171936Y-99359735D01*
X121060619Y-99303015D01*
X121060613Y-99303013D01*
X120958714Y-99269905D01*
X120901038Y-99230468D01*
X120873839Y-99166110D01*
X120885753Y-99097263D01*
X120896708Y-99079095D01*
X120975799Y-98970236D01*
X121078723Y-98768237D01*
X121089461Y-98735186D01*
X121096446Y-98723787D01*
X121098558Y-98714080D01*
X121119704Y-98685831D01*
X121221420Y-98584116D01*
X121221421Y-98584113D01*
X125269016Y-94536519D01*
X125330339Y-94503034D01*
X125356697Y-94500200D01*
X125524782Y-94500200D01*
X125591821Y-94519885D01*
G37*
%TD.AperFunction*%
%TA.AperFunction,Conductor*%
G36*
X153275929Y-86520185D02*
G01*
X153321684Y-86572989D01*
X153331628Y-86642147D01*
X153330507Y-86648692D01*
X153320001Y-86701507D01*
X153320001Y-86850000D01*
X154020001Y-86850000D01*
X154020001Y-87350000D01*
X153320001Y-87350000D01*
X153320001Y-87498495D01*
X153358428Y-87691681D01*
X153358431Y-87691693D01*
X153433808Y-87873671D01*
X153433815Y-87873684D01*
X153543249Y-88037462D01*
X153543252Y-88037466D01*
X153682534Y-88176748D01*
X153682538Y-88176751D01*
X153846316Y-88286185D01*
X153846329Y-88286192D01*
X154028309Y-88361569D01*
X154070001Y-88369862D01*
X154070001Y-87566988D01*
X154079941Y-87584205D01*
X154135796Y-87640060D01*
X154204205Y-87679556D01*
X154280505Y-87700000D01*
X154359497Y-87700000D01*
X154435797Y-87679556D01*
X154492404Y-87646873D01*
X154492404Y-89605267D01*
X154489920Y-89659688D01*
X154492404Y-89670998D01*
X154492404Y-89682581D01*
X154500106Y-89711327D01*
X154506502Y-89735196D01*
X154518188Y-89788405D01*
X154523514Y-89798687D01*
X154525467Y-89805977D01*
X154526512Y-89809874D01*
X154552342Y-89854611D01*
X154555044Y-89859547D01*
X154556101Y-89861588D01*
X154570000Y-89918629D01*
X154570000Y-90563011D01*
X154560060Y-90545795D01*
X154504205Y-90489940D01*
X154435796Y-90450444D01*
X154359496Y-90430000D01*
X154280504Y-90430000D01*
X154204204Y-90450444D01*
X154135795Y-90489940D01*
X154079940Y-90545795D01*
X154070000Y-90563011D01*
X154070000Y-89760136D01*
X154069999Y-89760135D01*
X154028316Y-89768427D01*
X154028308Y-89768429D01*
X153846328Y-89843807D01*
X153846315Y-89843814D01*
X153682537Y-89953248D01*
X153682533Y-89953251D01*
X153543248Y-90092536D01*
X153430427Y-90261387D01*
X153429003Y-90260435D01*
X153385742Y-90304451D01*
X153317600Y-90319892D01*
X153251927Y-90296041D01*
X153249907Y-90294306D01*
X153249811Y-90294432D01*
X153243367Y-90289487D01*
X153243365Y-90289485D01*
X153162806Y-90242974D01*
X153112136Y-90213719D01*
X153038950Y-90194109D01*
X152965766Y-90174500D01*
X152814234Y-90174500D01*
X152667863Y-90213719D01*
X152536635Y-90289485D01*
X152536632Y-90289487D01*
X152429487Y-90396632D01*
X152429485Y-90396635D01*
X152353719Y-90527863D01*
X152314500Y-90674234D01*
X152314500Y-90825765D01*
X152353719Y-90972136D01*
X152387475Y-91030602D01*
X152429485Y-91103365D01*
X152536635Y-91210515D01*
X152667865Y-91286281D01*
X152814234Y-91325500D01*
X152814236Y-91325500D01*
X152965764Y-91325500D01*
X152965766Y-91325500D01*
X153112135Y-91286281D01*
X153243365Y-91210515D01*
X153350515Y-91103365D01*
X153357077Y-91092000D01*
X153407644Y-91043784D01*
X153464464Y-91030000D01*
X154020000Y-91030000D01*
X154020000Y-91530000D01*
X153320000Y-91530000D01*
X153320000Y-91928495D01*
X153358427Y-92121681D01*
X153358430Y-92121693D01*
X153433807Y-92303671D01*
X153433814Y-92303684D01*
X153543248Y-92467462D01*
X153543251Y-92467466D01*
X153682533Y-92606748D01*
X153682537Y-92606751D01*
X153846315Y-92716185D01*
X153846328Y-92716192D01*
X154028308Y-92791569D01*
X154070000Y-92799862D01*
X154070000Y-91996988D01*
X154079940Y-92014205D01*
X154135795Y-92070060D01*
X154204204Y-92109556D01*
X154280504Y-92130000D01*
X154359496Y-92130000D01*
X154435796Y-92109556D01*
X154504205Y-92070060D01*
X154560060Y-92014205D01*
X154570000Y-91996988D01*
X154570000Y-92799862D01*
X154611690Y-92791569D01*
X154611692Y-92791569D01*
X154793671Y-92716192D01*
X154793684Y-92716185D01*
X154957462Y-92606751D01*
X154957466Y-92606748D01*
X155096748Y-92467466D01*
X155096751Y-92467462D01*
X155206185Y-92303684D01*
X155206192Y-92303671D01*
X155281569Y-92121693D01*
X155281572Y-92121681D01*
X155319999Y-91928495D01*
X155320000Y-91928492D01*
X155320000Y-91530000D01*
X154620000Y-91530000D01*
X154620000Y-91030000D01*
X155320000Y-91030000D01*
X155320000Y-90631508D01*
X155319999Y-90631504D01*
X155281572Y-90438318D01*
X155281570Y-90438310D01*
X155227813Y-90308528D01*
X155220344Y-90239058D01*
X155251619Y-90176579D01*
X155311708Y-90140927D01*
X155349094Y-90137258D01*
X156854471Y-90219045D01*
X156856542Y-90219175D01*
X157189154Y-90243031D01*
X157254612Y-90267461D01*
X157296472Y-90323403D01*
X157301443Y-90393095D01*
X157267946Y-90454412D01*
X157249174Y-90469815D01*
X157191707Y-90508213D01*
X157080213Y-90619707D01*
X157080210Y-90619711D01*
X156992609Y-90750814D01*
X156992602Y-90750827D01*
X156932264Y-90896498D01*
X156932261Y-90896510D01*
X156901500Y-91051153D01*
X156901500Y-91208846D01*
X156932261Y-91363489D01*
X156932264Y-91363501D01*
X156992602Y-91509172D01*
X156992609Y-91509185D01*
X157035619Y-91573553D01*
X157056497Y-91640230D01*
X157038013Y-91707610D01*
X157020208Y-91730115D01*
X155935695Y-92814879D01*
X153646520Y-95104584D01*
X153592545Y-95158571D01*
X153565613Y-95173281D01*
X153539789Y-95189877D01*
X153533598Y-95190767D01*
X153531226Y-95192063D01*
X153504854Y-95194900D01*
X153493766Y-95194900D01*
X153426727Y-95175215D01*
X153424875Y-95174002D01*
X153293185Y-95086009D01*
X153293172Y-95086002D01*
X153147501Y-95025664D01*
X153147489Y-95025661D01*
X152992845Y-94994900D01*
X152992842Y-94994900D01*
X152835158Y-94994900D01*
X152835155Y-94994900D01*
X152680510Y-95025661D01*
X152680498Y-95025664D01*
X152534827Y-95086002D01*
X152534814Y-95086009D01*
X152403711Y-95173610D01*
X152403707Y-95173613D01*
X152292213Y-95285107D01*
X152292210Y-95285111D01*
X152204609Y-95416214D01*
X152204602Y-95416227D01*
X152144264Y-95561898D01*
X152144261Y-95561910D01*
X152113500Y-95716553D01*
X152113500Y-95874246D01*
X152144261Y-96028889D01*
X152144264Y-96028901D01*
X152204602Y-96174572D01*
X152204609Y-96174585D01*
X152292210Y-96305688D01*
X152292213Y-96305692D01*
X152403707Y-96417186D01*
X152403711Y-96417189D01*
X152534814Y-96504790D01*
X152534827Y-96504797D01*
X152638635Y-96547795D01*
X152680503Y-96565137D01*
X152817894Y-96592466D01*
X152835153Y-96595899D01*
X152835156Y-96595900D01*
X152835158Y-96595900D01*
X152992844Y-96595900D01*
X152992845Y-96595899D01*
X153147497Y-96565137D01*
X153293179Y-96504794D01*
X153333951Y-96477551D01*
X153424875Y-96416798D01*
X153442921Y-96411147D01*
X153458831Y-96400923D01*
X153489792Y-96396471D01*
X153491553Y-96395920D01*
X153493766Y-96395900D01*
X153717745Y-96395900D01*
X153717911Y-96395910D01*
X153726008Y-96395909D01*
X153726012Y-96395910D01*
X153809230Y-96395900D01*
X153884057Y-96395900D01*
X153884059Y-96395899D01*
X153884118Y-96395891D01*
X153884127Y-96395891D01*
X153949724Y-96378305D01*
X153961172Y-96375237D01*
X153961175Y-96375235D01*
X154036784Y-96354977D01*
X154036794Y-96354970D01*
X154036834Y-96354953D01*
X154036849Y-96354950D01*
X154036864Y-96354940D01*
X154036874Y-96354937D01*
X154037053Y-96354831D01*
X154103050Y-96316718D01*
X154173716Y-96275920D01*
X154173717Y-96275918D01*
X154173744Y-96275903D01*
X154173768Y-96275878D01*
X154173771Y-96275877D01*
X154225709Y-96223925D01*
X154225723Y-96223918D01*
X154225720Y-96223915D01*
X154285520Y-96164116D01*
X154285521Y-96164113D01*
X154291735Y-96157900D01*
X154291832Y-96157787D01*
X158121953Y-92326782D01*
X158182013Y-92266722D01*
X158182524Y-92266224D01*
X158182559Y-92266162D01*
X158182562Y-92266160D01*
X158221516Y-92198672D01*
X158261577Y-92129284D01*
X158261577Y-92129280D01*
X158261595Y-92129251D01*
X158261602Y-92129222D01*
X158261604Y-92129220D01*
X158283755Y-92046513D01*
X158283759Y-92046506D01*
X158283758Y-92046506D01*
X158292412Y-92014205D01*
X158302500Y-91976557D01*
X158302500Y-91976550D01*
X158302507Y-91976496D01*
X158302510Y-91976488D01*
X158302500Y-91888646D01*
X158302500Y-91709765D01*
X158322185Y-91642726D01*
X158323398Y-91640874D01*
X158411390Y-91509185D01*
X158411390Y-91509184D01*
X158411394Y-91509179D01*
X158471737Y-91363497D01*
X158502500Y-91208842D01*
X158502500Y-91051158D01*
X158502500Y-91051155D01*
X158502499Y-91051153D01*
X158483342Y-90954846D01*
X158471737Y-90896503D01*
X158442436Y-90825764D01*
X158411397Y-90750827D01*
X158411390Y-90750814D01*
X158323789Y-90619711D01*
X158323786Y-90619707D01*
X158240827Y-90536748D01*
X158207342Y-90475425D01*
X158212326Y-90405733D01*
X158254198Y-90349800D01*
X158319662Y-90325383D01*
X158337370Y-90325384D01*
X158737833Y-90354107D01*
X158739917Y-90354274D01*
X160580301Y-90518361D01*
X160618552Y-90521772D01*
X160620692Y-90521981D01*
X162496203Y-90722003D01*
X162498279Y-90722243D01*
X164369982Y-90954717D01*
X164372031Y-90954989D01*
X166239528Y-91219866D01*
X166241504Y-91220164D01*
X168104110Y-91517347D01*
X168106186Y-91517697D01*
X169963303Y-91847091D01*
X169965341Y-91847471D01*
X170626160Y-91976525D01*
X170730649Y-91996931D01*
X170792673Y-92029100D01*
X170827458Y-92089695D01*
X170823962Y-92159477D01*
X170783293Y-92216291D01*
X170763179Y-92229116D01*
X170738566Y-92241657D01*
X170653212Y-92303671D01*
X170547490Y-92380483D01*
X170547488Y-92380485D01*
X170547487Y-92380485D01*
X170380485Y-92547487D01*
X170380485Y-92547488D01*
X170380483Y-92547490D01*
X170337427Y-92606751D01*
X170241657Y-92738566D01*
X170134433Y-92949003D01*
X170061446Y-93173631D01*
X170024500Y-93406902D01*
X170024500Y-93643097D01*
X170061446Y-93876368D01*
X170134433Y-94100996D01*
X170235002Y-94298372D01*
X170241657Y-94311433D01*
X170380483Y-94502510D01*
X170547490Y-94669517D01*
X170738567Y-94808343D01*
X170829391Y-94854620D01*
X170949003Y-94915566D01*
X170949005Y-94915566D01*
X170949008Y-94915568D01*
X171059429Y-94951446D01*
X171173631Y-94988553D01*
X171406903Y-95025500D01*
X171406908Y-95025500D01*
X171643097Y-95025500D01*
X171876368Y-94988553D01*
X171887549Y-94984920D01*
X172100992Y-94915568D01*
X172311433Y-94808343D01*
X172502510Y-94669517D01*
X172669517Y-94502510D01*
X172808343Y-94311433D01*
X172915568Y-94100992D01*
X172988553Y-93876368D01*
X173005804Y-93767449D01*
X173025500Y-93643097D01*
X173025500Y-93406902D01*
X172988553Y-93173631D01*
X172915566Y-92949003D01*
X172835349Y-92791569D01*
X172808343Y-92738567D01*
X172725013Y-92623873D01*
X172701534Y-92558070D01*
X172717359Y-92490016D01*
X172767465Y-92441321D01*
X172835943Y-92427445D01*
X172851200Y-92429718D01*
X173452824Y-92558070D01*
X173663125Y-92602936D01*
X173665213Y-92603400D01*
X175502822Y-93028849D01*
X175504699Y-93029301D01*
X177334659Y-93486517D01*
X177336679Y-93487040D01*
X179158374Y-93975871D01*
X179160340Y-93976417D01*
X180194983Y-94273357D01*
X180253991Y-94310771D01*
X180283404Y-94374148D01*
X180273883Y-94443366D01*
X180228452Y-94496449D01*
X180217072Y-94503029D01*
X180193485Y-94515047D01*
X180010082Y-94648296D01*
X180010077Y-94648300D01*
X179849767Y-94808610D01*
X179849763Y-94808615D01*
X179716516Y-94992016D01*
X179613589Y-95194018D01*
X179613588Y-95194021D01*
X179543534Y-95409629D01*
X179535652Y-95459394D01*
X179508069Y-95633548D01*
X179508069Y-95860256D01*
X179525801Y-95972214D01*
X179543534Y-96084174D01*
X179613588Y-96299782D01*
X179613589Y-96299785D01*
X179716513Y-96501783D01*
X179803505Y-96621518D01*
X179826984Y-96687325D01*
X179811158Y-96755379D01*
X179761052Y-96804073D01*
X179741505Y-96812334D01*
X179652860Y-96841137D01*
X179450858Y-96944063D01*
X179267457Y-97077310D01*
X179267452Y-97077314D01*
X179107142Y-97237624D01*
X179107138Y-97237629D01*
X178973891Y-97421030D01*
X178870964Y-97623032D01*
X178870963Y-97623035D01*
X178800909Y-97838643D01*
X178765444Y-98062562D01*
X178765444Y-98289269D01*
X178800909Y-98513188D01*
X178870963Y-98728796D01*
X178870964Y-98728798D01*
X178903785Y-98793212D01*
X178971748Y-98926597D01*
X178973891Y-98930801D01*
X179060880Y-99050533D01*
X179084360Y-99116340D01*
X179068534Y-99184393D01*
X179018428Y-99233088D01*
X178998880Y-99241349D01*
X178910240Y-99270149D01*
X178910237Y-99270150D01*
X178708235Y-99373077D01*
X178524834Y-99506324D01*
X178524829Y-99506328D01*
X178364519Y-99666638D01*
X178364515Y-99666643D01*
X178231268Y-99850044D01*
X178128341Y-100052046D01*
X178128340Y-100052049D01*
X178058286Y-100267657D01*
X178035603Y-100410874D01*
X178022821Y-100491576D01*
X178022821Y-100718284D01*
X178030397Y-100766116D01*
X178058286Y-100942202D01*
X178128340Y-101157810D01*
X178128341Y-101157813D01*
X178186910Y-101272759D01*
X178219467Y-101336656D01*
X178231268Y-101359815D01*
X178318257Y-101479546D01*
X178341737Y-101545352D01*
X178325911Y-101613406D01*
X178275806Y-101662101D01*
X178256258Y-101670362D01*
X178167613Y-101699165D01*
X177965611Y-101802091D01*
X177782210Y-101935338D01*
X177782205Y-101935342D01*
X177621895Y-102095652D01*
X177621891Y-102095657D01*
X177488644Y-102279058D01*
X177385717Y-102481060D01*
X177385716Y-102481063D01*
X177315662Y-102696671D01*
X177280197Y-102920590D01*
X177280197Y-103147297D01*
X177315662Y-103371216D01*
X177385716Y-103586824D01*
X177385717Y-103586825D01*
X177488641Y-103788825D01*
X177575633Y-103908560D01*
X177599112Y-103974367D01*
X177583286Y-104042421D01*
X177533180Y-104091115D01*
X177513633Y-104099376D01*
X177424988Y-104128179D01*
X177222986Y-104231105D01*
X177039585Y-104364352D01*
X177039580Y-104364356D01*
X176879270Y-104524666D01*
X176879266Y-104524671D01*
X176746019Y-104708072D01*
X176643092Y-104910074D01*
X176643091Y-104910077D01*
X176573037Y-105125685D01*
X176537572Y-105349604D01*
X176537572Y-105576311D01*
X176573037Y-105800230D01*
X176643091Y-106015838D01*
X176643092Y-106015841D01*
X176746019Y-106217843D01*
X176833008Y-106337574D01*
X176856488Y-106403380D01*
X176840662Y-106471434D01*
X176790557Y-106520129D01*
X176771009Y-106528390D01*
X176682364Y-106557193D01*
X176480362Y-106660119D01*
X176296961Y-106793366D01*
X176296956Y-106793370D01*
X176136646Y-106953680D01*
X176136642Y-106953685D01*
X176003395Y-107137086D01*
X175900468Y-107339088D01*
X175900467Y-107339091D01*
X175830413Y-107554699D01*
X175800762Y-107741910D01*
X175794948Y-107778618D01*
X175794948Y-108005326D01*
X175808308Y-108089676D01*
X175830413Y-108229244D01*
X175900467Y-108444852D01*
X175900468Y-108444855D01*
X175969923Y-108581166D01*
X176000696Y-108641561D01*
X176003395Y-108646857D01*
X176090384Y-108766588D01*
X176113864Y-108832394D01*
X176098038Y-108900448D01*
X176047933Y-108949143D01*
X176028385Y-108957404D01*
X175939740Y-108986207D01*
X175737738Y-109089133D01*
X175554337Y-109222380D01*
X175554332Y-109222384D01*
X175394022Y-109382694D01*
X175394018Y-109382699D01*
X175260771Y-109566100D01*
X175157844Y-109768102D01*
X175157843Y-109768105D01*
X175087789Y-109983713D01*
X175052324Y-110207632D01*
X175052324Y-110434339D01*
X175087789Y-110658258D01*
X175157843Y-110873866D01*
X175157844Y-110873869D01*
X175200779Y-110958132D01*
X175259543Y-111073462D01*
X175260771Y-111075871D01*
X175347760Y-111195602D01*
X175371240Y-111261408D01*
X175355414Y-111329462D01*
X175305309Y-111378157D01*
X175285761Y-111386418D01*
X175197116Y-111415221D01*
X174995114Y-111518147D01*
X174811713Y-111651394D01*
X174811708Y-111651398D01*
X174651398Y-111811708D01*
X174602274Y-111879322D01*
X174546944Y-111921987D01*
X174477330Y-111927966D01*
X174415535Y-111895360D01*
X174414275Y-111894117D01*
X173820858Y-111300700D01*
X173186817Y-110666658D01*
X173153332Y-110605335D01*
X173150498Y-110578977D01*
X173150498Y-108329767D01*
X173170183Y-108262728D01*
X173171396Y-108260876D01*
X173185588Y-108239637D01*
X173259392Y-108129181D01*
X173260194Y-108127244D01*
X173312688Y-108000514D01*
X173312699Y-108000485D01*
X173312725Y-108000423D01*
X173319735Y-107983500D01*
X173350498Y-107828845D01*
X173350498Y-107671160D01*
X173350498Y-107171158D01*
X173350498Y-107171155D01*
X173350497Y-107171153D01*
X173346336Y-107150236D01*
X173319735Y-107016503D01*
X173319733Y-107016498D01*
X173259395Y-106870827D01*
X173259388Y-106870814D01*
X173171787Y-106739711D01*
X173171784Y-106739707D01*
X173060290Y-106628213D01*
X173060286Y-106628210D01*
X172929183Y-106540609D01*
X172929170Y-106540602D01*
X172783499Y-106480264D01*
X172783487Y-106480261D01*
X172628843Y-106449500D01*
X172628840Y-106449500D01*
X171427938Y-106449500D01*
X171360899Y-106429815D01*
X171340257Y-106413181D01*
X168533335Y-103606259D01*
X168499850Y-103544936D01*
X168504834Y-103475244D01*
X168533335Y-103430897D01*
X169762326Y-102201906D01*
X171008000Y-100956231D01*
X171069321Y-100922748D01*
X171139013Y-100927732D01*
X171194946Y-100969604D01*
X171219363Y-101035068D01*
X171204511Y-101103341D01*
X171192626Y-101121226D01*
X171071782Y-101272759D01*
X171071781Y-101272761D01*
X170922356Y-101510569D01*
X170800503Y-101763600D01*
X170707746Y-102028682D01*
X170707742Y-102028694D01*
X170645248Y-102302499D01*
X170645245Y-102302517D01*
X170613803Y-102581580D01*
X170613803Y-102862443D01*
X170645245Y-103141506D01*
X170645248Y-103141524D01*
X170707742Y-103415329D01*
X170707746Y-103415341D01*
X170800503Y-103680423D01*
X170922356Y-103933454D01*
X170950875Y-103978842D01*
X171071780Y-104171260D01*
X171159922Y-104281786D01*
X171229783Y-104369390D01*
X171246887Y-104390837D01*
X171445478Y-104589428D01*
X171665055Y-104764535D01*
X171902858Y-104913957D01*
X172155895Y-105035813D01*
X172354983Y-105105477D01*
X172420973Y-105128568D01*
X172420985Y-105128572D01*
X172694794Y-105191067D01*
X172694800Y-105191067D01*
X172694808Y-105191069D01*
X172880850Y-105212030D01*
X172973872Y-105222511D01*
X172973875Y-105222512D01*
X172973878Y-105222512D01*
X173254731Y-105222512D01*
X173254732Y-105222511D01*
X173397358Y-105206441D01*
X173533797Y-105191069D01*
X173533802Y-105191068D01*
X173533812Y-105191067D01*
X173807621Y-105128572D01*
X174072711Y-105035813D01*
X174325748Y-104913957D01*
X174563551Y-104764535D01*
X174783128Y-104589428D01*
X174981719Y-104390837D01*
X175156826Y-104171260D01*
X175306248Y-103933457D01*
X175428104Y-103680420D01*
X175520863Y-103415330D01*
X175583358Y-103141521D01*
X175614803Y-102862437D01*
X175614803Y-102581587D01*
X175603476Y-102481060D01*
X175583360Y-102302517D01*
X175583357Y-102302499D01*
X175520863Y-102028694D01*
X175520859Y-102028682D01*
X175489312Y-101938526D01*
X175428104Y-101763604D01*
X175306248Y-101510567D01*
X175156826Y-101272764D01*
X174981719Y-101053187D01*
X174783128Y-100854596D01*
X174764090Y-100839414D01*
X174715087Y-100800335D01*
X174563551Y-100679489D01*
X174399307Y-100576287D01*
X174325745Y-100530065D01*
X174072714Y-100408212D01*
X173807632Y-100315455D01*
X173807620Y-100315451D01*
X173533815Y-100252957D01*
X173533797Y-100252954D01*
X173254734Y-100221512D01*
X173254728Y-100221512D01*
X172973878Y-100221512D01*
X172973871Y-100221512D01*
X172694808Y-100252954D01*
X172694790Y-100252957D01*
X172420985Y-100315451D01*
X172420973Y-100315455D01*
X172155891Y-100408212D01*
X171902860Y-100530065D01*
X171665052Y-100679490D01*
X171665050Y-100679491D01*
X171513517Y-100800335D01*
X171448831Y-100826744D01*
X171380135Y-100813987D01*
X171329242Y-100766116D01*
X171312308Y-100698330D01*
X171334711Y-100632149D01*
X171348518Y-100615713D01*
X171883506Y-100080726D01*
X171883511Y-100080722D01*
X171893714Y-100070518D01*
X171893716Y-100070518D01*
X172005520Y-99958714D01*
X172073995Y-99840111D01*
X172084577Y-99821783D01*
X172125501Y-99669055D01*
X172125501Y-99510941D01*
X172125501Y-99503346D01*
X172125500Y-99503328D01*
X172125500Y-99479067D01*
X172145185Y-99412028D01*
X172193205Y-99368582D01*
X172311433Y-99308343D01*
X172502510Y-99169517D01*
X172669517Y-99002510D01*
X172808343Y-98811433D01*
X172915568Y-98600992D01*
X172988553Y-98376368D01*
X173003946Y-98279179D01*
X173025500Y-98143097D01*
X173025500Y-97906902D01*
X172988553Y-97673631D01*
X172938903Y-97520827D01*
X172915568Y-97449008D01*
X172915566Y-97449005D01*
X172915566Y-97449003D01*
X172849954Y-97320234D01*
X172808343Y-97238567D01*
X172669517Y-97047490D01*
X172502510Y-96880483D01*
X172311433Y-96741657D01*
X172290922Y-96731206D01*
X172100996Y-96634433D01*
X171876368Y-96561446D01*
X171643097Y-96524500D01*
X171643092Y-96524500D01*
X171406908Y-96524500D01*
X171406903Y-96524500D01*
X171173631Y-96561446D01*
X170949003Y-96634433D01*
X170738566Y-96741657D01*
X170643787Y-96810519D01*
X170547490Y-96880483D01*
X170547488Y-96880485D01*
X170547487Y-96880485D01*
X170380485Y-97047487D01*
X170380485Y-97047488D01*
X170380483Y-97047490D01*
X170358815Y-97077314D01*
X170241657Y-97238566D01*
X170134433Y-97449003D01*
X170061446Y-97673631D01*
X170024500Y-97906902D01*
X170024500Y-98143097D01*
X170061446Y-98376368D01*
X170134433Y-98600996D01*
X170219649Y-98768240D01*
X170241657Y-98811433D01*
X170380483Y-99002510D01*
X170547490Y-99169517D01*
X170619421Y-99221778D01*
X170738568Y-99308344D01*
X170740148Y-99309312D01*
X170740622Y-99309836D01*
X170742509Y-99311207D01*
X170742221Y-99311603D01*
X170787024Y-99361124D01*
X170798447Y-99430054D01*
X170770790Y-99494217D01*
X170763040Y-99502721D01*
X167440337Y-102825425D01*
X167379014Y-102858910D01*
X167376848Y-102859361D01*
X167221506Y-102890261D01*
X167221496Y-102890264D01*
X167075825Y-102950602D01*
X167075812Y-102950609D01*
X166944709Y-103038210D01*
X166944705Y-103038213D01*
X166833211Y-103149707D01*
X166833208Y-103149711D01*
X166745607Y-103280814D01*
X166745600Y-103280827D01*
X166685262Y-103426498D01*
X166685259Y-103426510D01*
X166654498Y-103581153D01*
X166654498Y-103738846D01*
X166685259Y-103893489D01*
X166685262Y-103893501D01*
X166745600Y-104039172D01*
X166745607Y-104039185D01*
X166833208Y-104170288D01*
X166833211Y-104170292D01*
X170534705Y-107871786D01*
X170534709Y-107871789D01*
X170665812Y-107959390D01*
X170665816Y-107959392D01*
X170665819Y-107959394D01*
X170811501Y-108019738D01*
X170831834Y-108023782D01*
X170864794Y-108030339D01*
X170926705Y-108062724D01*
X170961279Y-108123439D01*
X170957540Y-108193209D01*
X170928284Y-108239637D01*
X170403741Y-108764181D01*
X170342418Y-108797666D01*
X170316060Y-108800500D01*
X165729897Y-108800500D01*
X165662858Y-108780815D01*
X165642216Y-108764181D01*
X164661819Y-107783784D01*
X164628334Y-107722461D01*
X164625500Y-107696103D01*
X164625500Y-104434124D01*
X164645185Y-104367085D01*
X164697989Y-104321330D01*
X164767147Y-104311386D01*
X164818391Y-104331022D01*
X164868273Y-104364352D01*
X164875819Y-104369394D01*
X164875821Y-104369395D01*
X164875825Y-104369397D01*
X164975961Y-104410874D01*
X165021501Y-104429737D01*
X165176151Y-104460499D01*
X165176154Y-104460500D01*
X165176156Y-104460500D01*
X165333842Y-104460500D01*
X165333843Y-104460499D01*
X165488495Y-104429737D01*
X165634177Y-104369394D01*
X165765287Y-104281789D01*
X165876787Y-104170289D01*
X165964392Y-104039179D01*
X166024735Y-103893497D01*
X166055498Y-103738842D01*
X166055498Y-103377942D01*
X166075183Y-103310903D01*
X166091817Y-103290261D01*
X168621786Y-100760292D01*
X168621789Y-100760289D01*
X168709394Y-100629179D01*
X168769737Y-100483497D01*
X168800500Y-100328842D01*
X168800500Y-100171158D01*
X168800500Y-94298372D01*
X168796805Y-94279793D01*
X168796681Y-94279172D01*
X168769738Y-94143721D01*
X168769737Y-94143720D01*
X168769737Y-94143716D01*
X168740085Y-94072130D01*
X168740085Y-94072129D01*
X168709397Y-93998041D01*
X168709390Y-93998028D01*
X168621790Y-93866926D01*
X168602725Y-93847861D01*
X168510289Y-93755425D01*
X168174039Y-93419175D01*
X167821685Y-93066820D01*
X167821681Y-93066817D01*
X167690578Y-92979216D01*
X167690565Y-92979209D01*
X167544894Y-92918871D01*
X167544882Y-92918868D01*
X167390238Y-92888107D01*
X167390235Y-92888107D01*
X167232551Y-92888107D01*
X167232548Y-92888107D01*
X167077903Y-92918868D01*
X167077891Y-92918871D01*
X166932220Y-92979209D01*
X166932207Y-92979216D01*
X166801104Y-93066817D01*
X166801100Y-93066820D01*
X166685296Y-93182625D01*
X166684218Y-93181547D01*
X166632665Y-93216655D01*
X166562821Y-93218517D01*
X166503057Y-93182323D01*
X166476641Y-93136970D01*
X166415566Y-92949003D01*
X166335349Y-92791569D01*
X166308343Y-92738567D01*
X166169517Y-92547490D01*
X166002510Y-92380483D01*
X165811433Y-92241657D01*
X165786820Y-92229116D01*
X165600996Y-92134433D01*
X165376368Y-92061446D01*
X165143097Y-92024500D01*
X165143092Y-92024500D01*
X164906908Y-92024500D01*
X164906903Y-92024500D01*
X164673631Y-92061446D01*
X164449003Y-92134433D01*
X164238566Y-92241657D01*
X164153212Y-92303671D01*
X164047490Y-92380483D01*
X164047488Y-92380485D01*
X164047487Y-92380485D01*
X163880485Y-92547487D01*
X163880485Y-92547488D01*
X163880483Y-92547490D01*
X163810520Y-92643786D01*
X163755190Y-92686451D01*
X163710202Y-92694900D01*
X160061769Y-92694900D01*
X160061753Y-92694899D01*
X160054157Y-92694899D01*
X159896043Y-92694899D01*
X159816578Y-92716192D01*
X159743310Y-92735824D01*
X159743309Y-92735825D01*
X159693196Y-92764759D01*
X159693195Y-92764760D01*
X159649789Y-92789820D01*
X159606385Y-92814879D01*
X159606382Y-92814881D01*
X159494578Y-92926686D01*
X152156809Y-100264454D01*
X152095486Y-100297939D01*
X152025794Y-100292955D01*
X151969861Y-100251083D01*
X151945444Y-100185619D01*
X151946189Y-100160587D01*
X151950499Y-100127850D01*
X151950500Y-100127843D01*
X151950500Y-99872157D01*
X151917126Y-99618660D01*
X151850950Y-99371687D01*
X151826062Y-99311603D01*
X151784717Y-99211786D01*
X151753104Y-99135465D01*
X151753102Y-99135462D01*
X151753100Y-99135457D01*
X151625265Y-98914042D01*
X151625261Y-98914035D01*
X151555789Y-98823497D01*
X151469611Y-98711188D01*
X151469605Y-98711181D01*
X151288818Y-98530394D01*
X151288811Y-98530388D01*
X151085973Y-98374745D01*
X151085971Y-98374743D01*
X151085965Y-98374739D01*
X151085960Y-98374736D01*
X151085957Y-98374734D01*
X150864542Y-98246899D01*
X150864531Y-98246894D01*
X150628322Y-98149053D01*
X150628315Y-98149051D01*
X150628313Y-98149050D01*
X150381340Y-98082874D01*
X150325007Y-98075457D01*
X150127850Y-98049500D01*
X150127843Y-98049500D01*
X149872157Y-98049500D01*
X149872149Y-98049500D01*
X149653266Y-98078318D01*
X149618660Y-98082874D01*
X149429762Y-98133489D01*
X149371687Y-98149050D01*
X149371677Y-98149053D01*
X149135468Y-98246894D01*
X149135457Y-98246899D01*
X148914042Y-98374734D01*
X148914026Y-98374745D01*
X148711188Y-98530388D01*
X148711181Y-98530394D01*
X148530394Y-98711181D01*
X148530388Y-98711188D01*
X148374745Y-98914026D01*
X148374734Y-98914042D01*
X148246899Y-99135457D01*
X148246894Y-99135468D01*
X148149053Y-99371677D01*
X148149050Y-99371687D01*
X148113089Y-99505898D01*
X148082874Y-99618661D01*
X148049500Y-99872149D01*
X148049500Y-100127850D01*
X148069423Y-100279172D01*
X148082874Y-100381340D01*
X148149050Y-100628312D01*
X148149053Y-100628322D01*
X148246894Y-100864531D01*
X148246899Y-100864542D01*
X148374734Y-101085957D01*
X148374745Y-101085973D01*
X148530388Y-101288811D01*
X148530394Y-101288818D01*
X148711181Y-101469605D01*
X148711187Y-101469610D01*
X148914035Y-101625261D01*
X148914042Y-101625265D01*
X149135457Y-101753100D01*
X149135462Y-101753102D01*
X149135465Y-101753104D01*
X149371687Y-101850950D01*
X149618660Y-101917126D01*
X149872157Y-101950500D01*
X149872164Y-101950500D01*
X150127836Y-101950500D01*
X150127843Y-101950500D01*
X150160587Y-101946189D01*
X150229622Y-101956954D01*
X150281878Y-102003334D01*
X150300764Y-102070603D01*
X150280284Y-102137403D01*
X150264454Y-102156809D01*
X149961737Y-102459526D01*
X149924475Y-102485132D01*
X149915565Y-102489097D01*
X149885615Y-102497123D01*
X149851160Y-102517016D01*
X149845533Y-102520264D01*
X149845521Y-102520270D01*
X149748687Y-102576177D01*
X149748682Y-102576181D01*
X146460482Y-105864381D01*
X146460478Y-105864387D01*
X146412706Y-105947131D01*
X146381424Y-106001312D01*
X146381423Y-106001313D01*
X146372247Y-106035560D01*
X146340499Y-106154043D01*
X146340499Y-106154045D01*
X146340499Y-106249735D01*
X146320814Y-106316774D01*
X146319601Y-106318626D01*
X146231609Y-106450314D01*
X146231602Y-106450327D01*
X146171264Y-106595998D01*
X146171261Y-106596010D01*
X146140500Y-106750653D01*
X146140500Y-106908346D01*
X146171261Y-107062989D01*
X146171264Y-107063001D01*
X146231602Y-107208672D01*
X146231609Y-107208685D01*
X146319210Y-107339788D01*
X146319213Y-107339792D01*
X146430707Y-107451286D01*
X146430711Y-107451289D01*
X146561814Y-107538890D01*
X146561827Y-107538897D01*
X146666106Y-107582090D01*
X146707503Y-107599237D01*
X146857422Y-107629058D01*
X146862153Y-107629999D01*
X146862156Y-107630000D01*
X146862158Y-107630000D01*
X147019844Y-107630000D01*
X147019845Y-107629999D01*
X147174497Y-107599237D01*
X147320179Y-107538894D01*
X147451289Y-107451289D01*
X147562789Y-107339789D01*
X147650394Y-107208679D01*
X147710737Y-107062997D01*
X147741500Y-106908342D01*
X147741500Y-106750658D01*
X147741500Y-106744566D01*
X147742837Y-106744566D01*
X147754572Y-106682643D01*
X147802630Y-106631927D01*
X147870479Y-106615244D01*
X147936576Y-106637891D01*
X147979524Y-106691668D01*
X148067135Y-106903179D01*
X148067140Y-106903190D01*
X148208083Y-107147309D01*
X148208088Y-107147317D01*
X148369354Y-107357482D01*
X148379704Y-107370970D01*
X148579029Y-107570295D01*
X148579033Y-107570298D01*
X148579035Y-107570300D01*
X148802683Y-107741912D01*
X148802690Y-107741916D01*
X149046809Y-107882859D01*
X149046814Y-107882861D01*
X149046817Y-107882863D01*
X149111197Y-107909530D01*
X149289767Y-107983496D01*
X149307261Y-107990742D01*
X149579558Y-108063704D01*
X149706961Y-108080477D01*
X149793885Y-108091921D01*
X149857781Y-108120188D01*
X149896252Y-108178512D01*
X149897083Y-108248377D01*
X149865380Y-108302541D01*
X149394741Y-108773181D01*
X149333418Y-108806666D01*
X149307060Y-108809500D01*
X142829500Y-108809500D01*
X142762461Y-108789815D01*
X142716706Y-108737011D01*
X142705500Y-108685500D01*
X142705500Y-108324510D01*
X142705500Y-108324500D01*
X142693947Y-108217044D01*
X142682741Y-108165533D01*
X142672080Y-108133501D01*
X142648616Y-108063002D01*
X142648613Y-108062996D01*
X142608393Y-108000414D01*
X142570825Y-107941957D01*
X142549324Y-107917143D01*
X142525076Y-107889159D01*
X142525072Y-107889156D01*
X142525070Y-107889153D01*
X142416336Y-107794933D01*
X142416333Y-107794931D01*
X142416331Y-107794930D01*
X142285460Y-107735162D01*
X142234753Y-107720272D01*
X142175976Y-107682497D01*
X142146953Y-107618940D01*
X142156898Y-107549782D01*
X142202654Y-107496979D01*
X142232017Y-107483891D01*
X142231817Y-107483290D01*
X142337497Y-107448116D01*
X142337501Y-107448113D01*
X142337504Y-107448113D01*
X142458543Y-107370325D01*
X142511347Y-107324570D01*
X142605567Y-107215836D01*
X142665338Y-107084959D01*
X142685023Y-107017920D01*
X142685024Y-107017916D01*
X142705500Y-106875500D01*
X142705500Y-105674499D01*
X142725185Y-105607460D01*
X142777989Y-105561705D01*
X142829495Y-105550499D01*
X143784330Y-105550499D01*
X143846330Y-105567112D01*
X143916215Y-105607460D01*
X144046817Y-105682863D01*
X144307261Y-105790742D01*
X144579558Y-105863704D01*
X144859049Y-105900500D01*
X144859056Y-105900500D01*
X145140944Y-105900500D01*
X145140951Y-105900500D01*
X145420442Y-105863704D01*
X145692739Y-105790742D01*
X145953183Y-105682863D01*
X146197317Y-105541912D01*
X146420965Y-105370300D01*
X146620300Y-105170965D01*
X146791912Y-104947317D01*
X146932863Y-104703183D01*
X147040742Y-104442739D01*
X147113704Y-104170442D01*
X147150500Y-103890951D01*
X147150500Y-103609049D01*
X147113704Y-103329558D01*
X147040742Y-103057261D01*
X146932863Y-102796817D01*
X146932861Y-102796814D01*
X146932859Y-102796809D01*
X146791916Y-102552690D01*
X146791912Y-102552683D01*
X146620300Y-102329035D01*
X146620298Y-102329033D01*
X146620295Y-102329029D01*
X146420970Y-102129704D01*
X146420965Y-102129700D01*
X146197317Y-101958088D01*
X146197311Y-101958084D01*
X146197309Y-101958083D01*
X145953190Y-101817140D01*
X145953179Y-101817135D01*
X145692743Y-101709259D01*
X145420439Y-101636295D01*
X145140958Y-101599500D01*
X145140951Y-101599500D01*
X144859049Y-101599500D01*
X144859043Y-101599500D01*
X144859038Y-101599501D01*
X144588495Y-101635119D01*
X144565912Y-101631597D01*
X144543081Y-101632686D01*
X144524053Y-101625069D01*
X144519460Y-101624353D01*
X144510315Y-101619570D01*
X144489478Y-101607541D01*
X144489475Y-101607538D01*
X144489471Y-101607537D01*
X144456885Y-101588723D01*
X144304157Y-101547799D01*
X144146043Y-101547799D01*
X144138447Y-101547799D01*
X144138431Y-101547800D01*
X143370943Y-101547800D01*
X143218216Y-101588723D01*
X143218209Y-101588726D01*
X143081290Y-101667775D01*
X143081282Y-101667781D01*
X142969481Y-101779582D01*
X142969477Y-101779587D01*
X142936887Y-101836036D01*
X142886320Y-101884252D01*
X142817713Y-101897475D01*
X142752848Y-101871507D01*
X142712320Y-101814592D01*
X142705500Y-101774036D01*
X142705500Y-99913389D01*
X143399500Y-99913389D01*
X143399500Y-100086610D01*
X143425846Y-100252958D01*
X143426598Y-100257701D01*
X143480127Y-100422445D01*
X143558768Y-100576788D01*
X143660586Y-100716928D01*
X143783072Y-100839414D01*
X143923212Y-100941232D01*
X144077555Y-101019873D01*
X144242299Y-101073402D01*
X144413389Y-101100500D01*
X144413390Y-101100500D01*
X144586610Y-101100500D01*
X144586611Y-101100500D01*
X144757701Y-101073402D01*
X144922445Y-101019873D01*
X145076788Y-100941232D01*
X145216928Y-100839414D01*
X145339414Y-100716928D01*
X145441232Y-100576788D01*
X145519873Y-100422445D01*
X145573402Y-100257701D01*
X145600500Y-100086611D01*
X145600500Y-99913389D01*
X145573402Y-99742299D01*
X145519873Y-99577555D01*
X145441232Y-99423212D01*
X145339414Y-99283072D01*
X145216928Y-99160586D01*
X145076788Y-99058768D01*
X144966376Y-99002511D01*
X144922447Y-98980128D01*
X144922446Y-98980127D01*
X144922445Y-98980127D01*
X144757701Y-98926598D01*
X144757699Y-98926597D01*
X144757698Y-98926597D01*
X144626271Y-98905781D01*
X144586611Y-98899500D01*
X144413389Y-98899500D01*
X144373728Y-98905781D01*
X144242302Y-98926597D01*
X144077552Y-98980128D01*
X143923211Y-99058768D01*
X143870228Y-99097263D01*
X143783072Y-99160586D01*
X143783070Y-99160588D01*
X143783069Y-99160588D01*
X143660588Y-99283069D01*
X143660588Y-99283070D01*
X143660586Y-99283072D01*
X143641141Y-99309836D01*
X143558768Y-99423211D01*
X143480128Y-99577552D01*
X143426597Y-99742302D01*
X143399500Y-99913389D01*
X142705500Y-99913389D01*
X142705500Y-98081348D01*
X142705351Y-98078318D01*
X142705398Y-98078315D01*
X142705000Y-98070187D01*
X142705000Y-97929809D01*
X142705399Y-97921679D01*
X142705351Y-97921677D01*
X142705500Y-97918647D01*
X142705500Y-90419995D01*
X142705499Y-90419989D01*
X142700743Y-90382107D01*
X142711922Y-90313140D01*
X142758614Y-90261162D01*
X142814953Y-90242974D01*
X143187055Y-90216435D01*
X143189168Y-90216303D01*
X144650856Y-90137483D01*
X144718855Y-90153529D01*
X144767387Y-90203793D01*
X144781040Y-90272316D01*
X144772092Y-90308755D01*
X144718428Y-90438315D01*
X144718427Y-90438318D01*
X144680000Y-90631504D01*
X144680000Y-91030000D01*
X145380000Y-91030000D01*
X145380000Y-91530000D01*
X144680000Y-91530000D01*
X144680000Y-91928495D01*
X144718427Y-92121681D01*
X144718430Y-92121693D01*
X144793807Y-92303671D01*
X144793814Y-92303684D01*
X144903248Y-92467462D01*
X144903251Y-92467466D01*
X145042533Y-92606748D01*
X145042537Y-92606751D01*
X145206315Y-92716185D01*
X145206328Y-92716192D01*
X145388308Y-92791569D01*
X145430000Y-92799862D01*
X145430000Y-91996988D01*
X145439940Y-92014205D01*
X145495795Y-92070060D01*
X145564204Y-92109556D01*
X145640504Y-92130000D01*
X145719496Y-92130000D01*
X145795796Y-92109556D01*
X145864205Y-92070060D01*
X145920060Y-92014205D01*
X145930000Y-91996988D01*
X145930000Y-92799862D01*
X145971690Y-92791569D01*
X145971692Y-92791569D01*
X146153671Y-92716192D01*
X146153684Y-92716185D01*
X146317462Y-92606751D01*
X146317466Y-92606748D01*
X146456748Y-92467466D01*
X146456751Y-92467462D01*
X146566185Y-92303684D01*
X146566192Y-92303671D01*
X146641569Y-92121693D01*
X146641572Y-92121681D01*
X146679999Y-91928495D01*
X146680000Y-91928492D01*
X146680000Y-91530000D01*
X145980000Y-91530000D01*
X145980000Y-91030000D01*
X146535536Y-91030000D01*
X146602575Y-91049685D01*
X146642923Y-91092000D01*
X146649482Y-91103361D01*
X146649484Y-91103364D01*
X146649485Y-91103365D01*
X146756635Y-91210515D01*
X146887865Y-91286281D01*
X147034234Y-91325500D01*
X147034236Y-91325500D01*
X147185764Y-91325500D01*
X147185766Y-91325500D01*
X147332135Y-91286281D01*
X147463365Y-91210515D01*
X147570515Y-91103365D01*
X147646281Y-90972135D01*
X147685500Y-90825766D01*
X147685500Y-90674234D01*
X147646281Y-90527865D01*
X147570515Y-90396635D01*
X147463365Y-90289485D01*
X147382806Y-90242974D01*
X147332136Y-90213719D01*
X147258950Y-90194109D01*
X147185766Y-90174500D01*
X147034234Y-90174500D01*
X146887863Y-90213719D01*
X146756635Y-90289485D01*
X146750189Y-90294432D01*
X146748099Y-90291709D01*
X146700217Y-90317466D01*
X146630558Y-90312043D01*
X146574888Y-90269821D01*
X146569299Y-90260976D01*
X146456751Y-90092537D01*
X146456748Y-90092533D01*
X146317466Y-89953251D01*
X146317462Y-89953248D01*
X146153684Y-89843814D01*
X146153671Y-89843807D01*
X145971691Y-89768429D01*
X145971683Y-89768427D01*
X145930000Y-89760135D01*
X145930000Y-90563011D01*
X145920060Y-90545795D01*
X145864205Y-90489940D01*
X145795796Y-90450444D01*
X145719496Y-90430000D01*
X145640504Y-90430000D01*
X145564204Y-90450444D01*
X145495795Y-90489940D01*
X145439940Y-90545795D01*
X145430000Y-90563011D01*
X145430000Y-89993194D01*
X145434902Y-89976280D01*
X145434782Y-89959090D01*
X145446798Y-89935236D01*
X145448555Y-89929174D01*
X145448285Y-89929019D01*
X145448918Y-89927922D01*
X145449219Y-89926884D01*
X145452285Y-89922038D01*
X145452357Y-89921967D01*
X145452630Y-89921493D01*
X145453959Y-89919394D01*
X145455429Y-89918101D01*
X145455636Y-89917692D01*
X145457317Y-89915502D01*
X145457344Y-89915522D01*
X145461213Y-89910237D01*
X145461185Y-89910218D01*
X145465832Y-89903558D01*
X145465835Y-89903555D01*
X145489669Y-89857592D01*
X145492358Y-89852683D01*
X145518248Y-89807841D01*
X145521220Y-89796750D01*
X145526502Y-89786565D01*
X145538230Y-89733264D01*
X145552357Y-89680545D01*
X145552357Y-89680540D01*
X145552358Y-89680537D01*
X145553418Y-89672489D01*
X145553450Y-89672493D01*
X145554161Y-89665957D01*
X145554128Y-89665955D01*
X145554822Y-89657865D01*
X145554824Y-89657860D01*
X145552484Y-89606137D01*
X145552357Y-89600532D01*
X145552357Y-87672716D01*
X145564204Y-87679556D01*
X145640504Y-87700000D01*
X145719496Y-87700000D01*
X145795796Y-87679556D01*
X145864205Y-87640060D01*
X145920060Y-87584205D01*
X145930000Y-87566988D01*
X145930000Y-88369862D01*
X145971690Y-88361569D01*
X145971692Y-88361569D01*
X146153671Y-88286192D01*
X146153684Y-88286185D01*
X146317462Y-88176751D01*
X146317466Y-88176748D01*
X146456748Y-88037466D01*
X146456751Y-88037462D01*
X146566185Y-87873684D01*
X146566192Y-87873671D01*
X146641569Y-87691693D01*
X146641572Y-87691681D01*
X146679999Y-87498495D01*
X146680000Y-87498492D01*
X146680000Y-87350000D01*
X145980000Y-87350000D01*
X145980000Y-86850000D01*
X146680000Y-86850000D01*
X146680000Y-86701508D01*
X146679999Y-86701507D01*
X146669494Y-86648692D01*
X146675721Y-86579100D01*
X146718584Y-86523923D01*
X146784473Y-86500678D01*
X146791111Y-86500500D01*
X153208890Y-86500500D01*
X153275929Y-86520185D01*
G37*
%TD.AperFunction*%
%TA.AperFunction,Conductor*%
G36*
X138941027Y-107307381D02*
G01*
X138974079Y-107313956D01*
X138997325Y-107321006D01*
X139028458Y-107333902D01*
X139049886Y-107345356D01*
X139130033Y-107398909D01*
X139132646Y-107400638D01*
X139133980Y-107401521D01*
X139135754Y-107402683D01*
X139139431Y-107405068D01*
X139139434Y-107405069D01*
X139270302Y-107464836D01*
X139270303Y-107464836D01*
X139270307Y-107464838D01*
X139324528Y-107480759D01*
X139383306Y-107518534D01*
X139412330Y-107582090D01*
X139402386Y-107651249D01*
X139356630Y-107704052D01*
X139326646Y-107718070D01*
X139259826Y-107738992D01*
X139259817Y-107738996D01*
X139130039Y-107801086D01*
X139049886Y-107854641D01*
X139028451Y-107866098D01*
X138997330Y-107878989D01*
X138974070Y-107886045D01*
X138958447Y-107889153D01*
X138941030Y-107892617D01*
X138916841Y-107895000D01*
X138883161Y-107895000D01*
X138858973Y-107892618D01*
X138841582Y-107889159D01*
X138830290Y-107886913D01*
X138816359Y-107885603D01*
X138755527Y-107879886D01*
X138736339Y-107872237D01*
X138715887Y-107869346D01*
X138704541Y-107859561D01*
X138690624Y-107854014D01*
X138678616Y-107837205D01*
X138662975Y-107823716D01*
X138653528Y-107802083D01*
X138650011Y-107797160D01*
X138648237Y-107791646D01*
X138647565Y-107789378D01*
X138628987Y-107716588D01*
X138618520Y-107691320D01*
X138616674Y-107685086D01*
X138616669Y-107683022D01*
X138613953Y-107674069D01*
X138607381Y-107641030D01*
X138605000Y-107616847D01*
X138605000Y-107583153D01*
X138607382Y-107558964D01*
X138608230Y-107554701D01*
X138613956Y-107525914D01*
X138621006Y-107502674D01*
X138633902Y-107471539D01*
X138645351Y-107450119D01*
X138664079Y-107422090D01*
X138679488Y-107403316D01*
X138703314Y-107379489D01*
X138722093Y-107364076D01*
X138750111Y-107345356D01*
X138771545Y-107333900D01*
X138802668Y-107321008D01*
X138825918Y-107313955D01*
X138858970Y-107307381D01*
X138883154Y-107305000D01*
X138916842Y-107305000D01*
X138941027Y-107307381D01*
G37*
%TD.AperFunction*%
%TA.AperFunction,Conductor*%
G36*
X128649652Y-99830768D02*
G01*
X128653791Y-99830577D01*
X128659961Y-99831174D01*
X128726287Y-99844367D01*
X128739555Y-99846823D01*
X128746099Y-99847944D01*
X128759513Y-99850056D01*
X128855079Y-99850055D01*
X128861039Y-99850632D01*
X128888121Y-99861513D01*
X128916134Y-99869739D01*
X128920162Y-99874388D01*
X128925871Y-99876682D01*
X128942771Y-99900478D01*
X128961890Y-99922542D01*
X128962765Y-99928632D01*
X128966327Y-99933647D01*
X128973096Y-99974055D01*
X128973096Y-100974662D01*
X128953411Y-101041701D01*
X128900607Y-101087456D01*
X128831449Y-101097400D01*
X128767893Y-101068375D01*
X128755639Y-101055611D01*
X128755441Y-101055789D01*
X128753118Y-101053190D01*
X128554524Y-100854596D01*
X128436270Y-100760292D01*
X128334948Y-100679490D01*
X128097145Y-100530068D01*
X128097142Y-100530066D01*
X127844111Y-100408213D01*
X127579029Y-100315456D01*
X127579017Y-100315452D01*
X127383836Y-100270904D01*
X127322857Y-100236795D01*
X127289999Y-100175134D01*
X127295694Y-100105497D01*
X127338134Y-100049993D01*
X127403844Y-100026245D01*
X127411428Y-100026013D01*
X128051120Y-100026013D01*
X128051201Y-100026013D01*
X128055769Y-100025992D01*
X128057982Y-100025972D01*
X128062435Y-100025912D01*
X128062440Y-100025911D01*
X128062444Y-100025911D01*
X128121270Y-100016378D01*
X128204463Y-100002898D01*
X128271141Y-99982020D01*
X128271146Y-99982018D01*
X128400936Y-99919921D01*
X128475120Y-99870351D01*
X128496544Y-99858900D01*
X128527669Y-99846008D01*
X128550918Y-99838955D01*
X128583970Y-99832381D01*
X128608154Y-99830000D01*
X128641848Y-99830000D01*
X128649652Y-99830768D01*
G37*
%TD.AperFunction*%
%TA.AperFunction,Conductor*%
G36*
X121465000Y-95357661D02*
G01*
X121492259Y-95459394D01*
X121544920Y-95550606D01*
X121619394Y-95625080D01*
X121710606Y-95677741D01*
X121812339Y-95705000D01*
X121818553Y-95705000D01*
X121031688Y-96491862D01*
X121031689Y-96491863D01*
X121105030Y-96545148D01*
X121255628Y-96621883D01*
X121306424Y-96669858D01*
X121323219Y-96737679D01*
X121300681Y-96803814D01*
X121287014Y-96820049D01*
X120923954Y-97183109D01*
X120862631Y-97216594D01*
X120792939Y-97211610D01*
X120748592Y-97183109D01*
X120682235Y-97116752D01*
X120682230Y-97116748D01*
X120498829Y-96983501D01*
X120498828Y-96983500D01*
X120498826Y-96983499D01*
X120421425Y-96944061D01*
X120296827Y-96880574D01*
X120296824Y-96880573D01*
X120194920Y-96847463D01*
X120137244Y-96808025D01*
X120110046Y-96743667D01*
X120121961Y-96674821D01*
X120132911Y-96656659D01*
X120212006Y-96547795D01*
X120314930Y-96345796D01*
X120384986Y-96130184D01*
X120390045Y-96098238D01*
X120419973Y-96035107D01*
X120479284Y-95998175D01*
X120549146Y-95999171D01*
X120607380Y-96037780D01*
X120623002Y-96061342D01*
X120624849Y-96064967D01*
X120678135Y-96138309D01*
X120678137Y-96138309D01*
X121465000Y-95351446D01*
X121465000Y-95357661D01*
G37*
%TD.AperFunction*%
%TA.AperFunction,Conductor*%
G36*
X120947599Y-93967533D02*
G01*
X121005468Y-94006686D01*
X121032983Y-94070909D01*
X121033480Y-94095380D01*
X121031689Y-94118136D01*
X121818554Y-94905000D01*
X121812339Y-94905000D01*
X121710606Y-94932259D01*
X121619394Y-94984920D01*
X121544920Y-95059394D01*
X121492259Y-95150606D01*
X121465000Y-95252339D01*
X121465000Y-95258553D01*
X120678136Y-94471689D01*
X120678135Y-94471689D01*
X120624849Y-94545033D01*
X120624848Y-94545035D01*
X120521230Y-94748395D01*
X120450704Y-94965455D01*
X120445032Y-95001267D01*
X120415103Y-95064402D01*
X120355791Y-95101333D01*
X120285928Y-95100335D01*
X120227696Y-95061725D01*
X120214684Y-95042101D01*
X120214551Y-95042183D01*
X120212269Y-95038459D01*
X120212078Y-95038171D01*
X120212006Y-95038030D01*
X120078756Y-94854626D01*
X120078752Y-94854621D01*
X119918442Y-94694311D01*
X119918437Y-94694307D01*
X119735036Y-94561060D01*
X119735035Y-94561059D01*
X119735033Y-94561058D01*
X119679333Y-94532677D01*
X119628538Y-94484703D01*
X119611743Y-94416882D01*
X119634280Y-94350747D01*
X119688996Y-94307296D01*
X119701453Y-94302995D01*
X120871291Y-93967631D01*
X120873322Y-93967069D01*
X120875603Y-93966457D01*
X120877749Y-93965882D01*
X120947599Y-93967533D01*
G37*
%TD.AperFunction*%
%TA.AperFunction,Conductor*%
G36*
X125732518Y-92763140D02*
G01*
X125788991Y-92804281D01*
X125814257Y-92869423D01*
X125814696Y-92879229D01*
X125816217Y-93171127D01*
X125816217Y-93171219D01*
X125816235Y-93174525D01*
X125796916Y-93241671D01*
X125744362Y-93287712D01*
X125692237Y-93299200D01*
X124977540Y-93299200D01*
X124936619Y-93310164D01*
X124936619Y-93310165D01*
X124899351Y-93320151D01*
X124824814Y-93340123D01*
X124824809Y-93340126D01*
X124687890Y-93419175D01*
X124687882Y-93419181D01*
X124576078Y-93530986D01*
X123380048Y-94727014D01*
X123318725Y-94760499D01*
X123249033Y-94755515D01*
X123193100Y-94713643D01*
X123181882Y-94695628D01*
X123105148Y-94545029D01*
X123051863Y-94471689D01*
X123051862Y-94471688D01*
X122265000Y-95258553D01*
X122265000Y-95252339D01*
X122237741Y-95150606D01*
X122185080Y-95059394D01*
X122110606Y-94984920D01*
X122019394Y-94932259D01*
X121917661Y-94905000D01*
X121911446Y-94905000D01*
X122698309Y-94118137D01*
X122698309Y-94118135D01*
X122624969Y-94064851D01*
X122421604Y-93961230D01*
X122204544Y-93890704D01*
X122123008Y-93877790D01*
X122059873Y-93847861D01*
X122022942Y-93788549D01*
X122023940Y-93718687D01*
X122062550Y-93660454D01*
X122110306Y-93635544D01*
X122696027Y-93478564D01*
X122697996Y-93478055D01*
X124528950Y-93021200D01*
X124530828Y-93020748D01*
X125662770Y-92759061D01*
X125732518Y-92763140D01*
G37*
%TD.AperFunction*%
%TD*%
M02*
